<svg xmlns="http://www.w3.org/2000/svg" width="58.646" height="58.646" viewBox="0 0 58.646 58.646">
  <path id="google-plus" d="M29.323,58.646A29.323,29.323,0,1,0,0,29.323,29.333,29.333,0,0,0,29.323,58.646ZM39.789,27.229h4.2v-4.2h4.2v4.2h4.161v4.2H48.185v4.2h-4.2v-4.2h-4.2Zm-9.009-8.75-3.973,3.856c-5.083-4.968-14.972-1.349-14.972,6.976,0,11.292,16.027,12.064,17.418,2.932H20.963V27.207H34.787c1.569,8.2-3.726,16.778-13.823,16.778v0A14.64,14.64,0,0,1,6.3,29.323c0-13.044,15.475-19.209,24.48-10.845Z" fill="#f44336"/>
</svg>
