<svg id="Icons" xmlns="http://www.w3.org/2000/svg" width="58.646" height="58.646" viewBox="0 0 58.646 58.646">
  <g id="Social-Media-Collection">
    <g id="Linkedin">
      <path id="Fill-209" d="M43.984,43.957H37.909V34.449c0-2.267-.04-5.183-3.158-5.183-3.161,0-3.643,2.47-3.643,5.022v9.669h-6.07V24.406h5.824V27.08h.084A6.383,6.383,0,0,1,36.7,23.92c6.152,0,7.289,4.048,7.289,9.314Zm-25.8-22.221a3.524,3.524,0,1,1,3.521-3.524A3.524,3.524,0,0,1,18.187,21.735Zm3.039,22.221H15.143V24.406h6.083ZM29.323,0A29.323,29.323,0,1,0,58.646,29.323,29.322,29.322,0,0,0,29.323,0Z" fill="#2e78b6" fill-rule="evenodd"/>
    </g>
  </g>
</svg>
