<svg xmlns="http://www.w3.org/2000/svg" width="58.646" height="58.646" viewBox="0 0 58.646 58.646">
  <g id="pinterest" transform="translate(-0.001 -0.002)">
    <circle id="Ellipse_535" data-name="Ellipse 535" cx="29.323" cy="29.323" r="29.323" transform="translate(0.001 0.002)" fill="#cb2027"/>
    <g id="Group_13211" data-name="Group 13211" transform="translate(15.159 12.856)">
      <path id="Path_9915" data-name="Path 9915" d="M45.532,51c-2.217-.171-3.148-1.271-4.887-2.326-.956,5.013-2.123,9.819-5.582,12.33C33.994,53.431,36.63,47.74,37.854,41.7c-2.087-3.513.251-10.583,4.652-8.841,5.417,2.142-4.69,13.061,2.1,14.425,7.083,1.424,9.975-12.29,5.582-16.751-6.347-6.44-18.474-.146-16.983,9.073.363,2.254,2.692,2.938.93,6.048-4.062-.9-5.274-4.1-5.118-8.374.251-6.991,6.282-11.886,12.331-12.564,7.65-.856,14.83,2.809,15.821,10C58.279,42.841,53.711,51.636,45.532,51Z" transform="translate(-29 -24.593)" fill="#f1f2f2"/>
    </g>
  </g>
</svg>
