<svg id="twitter" xmlns="http://www.w3.org/2000/svg" width="58.646" height="58.646" viewBox="0 0 58.646 58.646">
  <ellipse id="Ellipse_532" data-name="Ellipse 532" cx="29.323" cy="29.323" rx="29.323" ry="29.323" transform="translate(0 0)" fill="#55acee"/>
  <g id="Group_13208" data-name="Group 13208" transform="translate(13.121 17.787)">
    <path id="Path_9912" data-name="Path 9912" d="M59.266,37.315a13.984,13.984,0,0,1-4.026,1.1,7.028,7.028,0,0,0,3.082-3.877,14.031,14.031,0,0,1-4.451,1.7,7.015,7.015,0,0,0-11.944,6.394A19.9,19.9,0,0,1,27.481,35.31a7.017,7.017,0,0,0,2.169,9.358,6.96,6.96,0,0,1-3.174-.878c0,.03,0,.06,0,.089A7.013,7.013,0,0,0,32.1,50.752a7.036,7.036,0,0,1-3.165.121A7.016,7.016,0,0,0,35.48,55.74a14.149,14.149,0,0,1-10.377,2.9,19.826,19.826,0,0,0,10.743,3.149c12.892,0,19.942-10.68,19.942-19.943,0-.3-.007-.606-.02-.906a14.213,14.213,0,0,0,3.5-3.628Z" transform="translate(-25.103 -34.028)" fill="#f1f2f2"/>
  </g>
</svg>
