<svg id="buy" xmlns="http://www.w3.org/2000/svg" width="54.419" height="54.419" viewBox="0 0 54.419 54.419">
  <path id="Path_7810" data-name="Path 7810" d="M140.783,162.861A4.788,4.788,0,0,0,136,167.644v7.972a12.755,12.755,0,1,0,25.509,0v-5.674a4.777,4.777,0,0,0-3.27-4.537l-6.3-2.1V153.189a3.189,3.189,0,0,0-6.377,0v19.238a1.594,1.594,0,0,1-3.189,0v-9.566Z" transform="translate(-121.545 -134.057)" fill="#ff5c53"/>
  <path id="Path_7811" data-name="Path 7811" d="M11.16,22.32h9.672V19.132a6.377,6.377,0,0,1,12.755,0V22.32h9.566A11.265,11.265,0,0,0,54.419,11.16,11.265,11.265,0,0,0,43.153,0H11.16a11.16,11.16,0,0,0,0,22.32Zm6.222-10.067a11.156,11.156,0,0,1,19.655,0,1.594,1.594,0,0,1-2.806,1.513,7.969,7.969,0,0,0-14.044,0,1.594,1.594,0,0,1-2.806-1.513Z" transform="translate(0 0)" fill="#4562db"/>
</svg>
