<svg id="corporate" xmlns="http://www.w3.org/2000/svg" width="31.004" height="31.004" viewBox="0 0 31.004 31.004">
  <path id="Path_7593" data-name="Path 7593" d="M0,257.41H5.45V241H0Zm1.817-12.777H3.633v1.817H1.817Zm0,3.633H3.633v1.817H1.817Zm0,3.633H3.633v1.817H1.817Z" transform="translate(0 -226.406)" fill="#ff5c53"/>
  <path id="Path_7594" data-name="Path 7594" d="M422,241v16.41h5.45V241Zm3.633,12.716h-1.817V251.9h1.817Zm0-3.633h-1.817v-1.817h1.817Zm0-3.633h-1.817v-1.817h1.817Z" transform="translate(-396.446 -226.406)" fill="#ff5c53"/>
  <path id="Path_7595" data-name="Path 7595" d="M241,451h1.817v3.694H241Z" transform="translate(-226.406 -423.69)"/>
  <path id="Path_7596" data-name="Path 7596" d="M121,144.677h5.45v-5.51h5.45v5.51h5.45V121H121Zm3.633-20.044h9.083v1.817h-9.083Zm0,3.633h9.083v1.817h-9.083Zm0,3.633h9.083v1.817h-9.083Zm0,3.633h9.083v1.817h-9.083Z" transform="translate(-113.673 -113.673)" fill="#4562db"/>
  <path id="Path_7597" data-name="Path 7597" d="M163.716,3.694h-5.45V0H156.45V3.694H151V5.51h12.716Z" transform="translate(-141.856)" fill="#4562db"/>
</svg>
