<svg xmlns="http://www.w3.org/2000/svg" xmlns:xlink="http://www.w3.org/1999/xlink" width="1208.001" height="995.451" viewBox="0 0 1208.001 995.451">
  <defs>
    <linearGradient id="linear-gradient" x1="-108.671" y1="21.404" x2="-107.662" y2="21.404" gradientUnits="objectBoundingBox">
      <stop offset="0.008" stop-color="#007adf"/>
      <stop offset="0.99" stop-color="#2e3192"/>
    </linearGradient>
    <linearGradient id="linear-gradient-2" x1="-118.49" y1="14.251" x2="-117.004" y2="14.251" xlink:href="#linear-gradient"/>
    <clipPath id="clip-path">
      <circle id="Ellipse_552" data-name="Ellipse 552" cx="38.391" cy="38.391" r="38.391" fill="#fff"/>
    </clipPath>
  </defs>
  <g id="Group_13898" data-name="Group 13898" transform="translate(-1207.999 -3513.275)">
    <path id="smiling-businessman-welcoming-new-partner-group-meeting-with-handshake" d="M14569.141-18612.1s-118.463-307.961,280.906-506.1c2.324-2.32,359.846-201.977,359.846-201.977s82.613-36.32,111.877,55.533c-.812,1.629,4.877,46.334-26.822,72.346,0-.814-71.531,42.266-71.531,42.266s-80.475,35.771-43.895,106.486c0,.813,31.7,71.531,110.549,32.514,2.439.811,427.152-245.281,427.152-245.281v178.822l-165.818,94.3s-59.275,32.27-39.555,91.91c0,.48,18.275,68.293,98.6,51.941,1.922.484,106.773-59.639,106.773-59.639v179.449l-595.822,343.164s-203.406,124.418-425.312-42.545c1.059,0-84.825-66.568-126.947-183.863C14569.286-18604.891,14569.141-18612.1,14569.141-18612.1Z" transform="translate(-13301.223 22840.531)" fill="#f1f3f6"/>
    <g id="Group_13303" data-name="Group 13303" transform="translate(992.422 3646.221)">
      <g id="Group_13257" data-name="Group 13257" transform="translate(1255.869 536.455)">
        <rect id="Rectangle_933" data-name="Rectangle 933" width="4.899" height="4.899" transform="translate(81.452 3.464) rotate(-45)" fill="#fff"/>
        <rect id="Rectangle_934" data-name="Rectangle 934" width="4.899" height="4.899" transform="translate(61.089 3.464) rotate(-45)" fill="#fff"/>
        <rect id="Rectangle_935" data-name="Rectangle 935" width="4.899" height="4.899" transform="translate(40.726 3.464) rotate(-45)" fill="#fff"/>
        <rect id="Rectangle_936" data-name="Rectangle 936" width="4.899" height="4.899" transform="translate(20.363 3.464) rotate(-45)" fill="#fff"/>
        <rect id="Rectangle_937" data-name="Rectangle 937" width="4.899" height="4.899" transform="translate(0 3.464) rotate(-45)" fill="#fff"/>
        <rect id="Rectangle_938" data-name="Rectangle 938" width="4.899" height="4.899" transform="translate(101.815 3.464) rotate(-45)" fill="#fff"/>
      </g>
      <g id="Group_13258" data-name="Group 13258" transform="translate(1255.869 565.395)">
        <rect id="Rectangle_939" data-name="Rectangle 939" width="4.899" height="4.899" transform="translate(81.452 3.464) rotate(-45)" fill="#fff"/>
        <rect id="Rectangle_940" data-name="Rectangle 940" width="4.899" height="4.899" transform="translate(61.089 3.464) rotate(-45)" fill="#fff"/>
        <rect id="Rectangle_941" data-name="Rectangle 941" width="4.899" height="4.899" transform="translate(40.726 3.464) rotate(-45)" fill="#fff"/>
        <rect id="Rectangle_942" data-name="Rectangle 942" width="4.899" height="4.899" transform="translate(20.363 3.464) rotate(-45)" fill="#fff"/>
        <rect id="Rectangle_943" data-name="Rectangle 943" width="4.899" height="4.899" transform="translate(0 3.464) rotate(-45)" fill="#fff"/>
        <rect id="Rectangle_944" data-name="Rectangle 944" width="4.899" height="4.899" transform="translate(101.815 3.464) rotate(-45)" fill="#fff"/>
      </g>
      <g id="Group_13259" data-name="Group 13259" transform="translate(1255.869 594.336)">
        <rect id="Rectangle_945" data-name="Rectangle 945" width="4.899" height="4.899" transform="translate(81.452 3.464) rotate(-45)" fill="#fff"/>
        <rect id="Rectangle_946" data-name="Rectangle 946" width="4.899" height="4.899" transform="translate(61.089 3.464) rotate(-45)" fill="#fff"/>
        <rect id="Rectangle_947" data-name="Rectangle 947" width="4.899" height="4.899" transform="translate(40.726 3.464) rotate(-45)" fill="#fff"/>
        <rect id="Rectangle_948" data-name="Rectangle 948" width="4.899" height="4.899" transform="translate(20.363 3.464) rotate(-45)" fill="#fff"/>
        <rect id="Rectangle_949" data-name="Rectangle 949" width="4.899" height="4.899" transform="translate(0 3.464) rotate(-45)" fill="#fff"/>
        <rect id="Rectangle_950" data-name="Rectangle 950" width="4.899" height="4.899" transform="translate(101.815 3.464) rotate(-45)" fill="#fff"/>
      </g>
      <g id="Group_13260" data-name="Group 13260" transform="translate(1255.869 623.276)">
        <rect id="Rectangle_951" data-name="Rectangle 951" width="4.899" height="4.899" transform="translate(81.452 3.464) rotate(-45)" fill="#fff"/>
        <rect id="Rectangle_952" data-name="Rectangle 952" width="4.899" height="4.899" transform="translate(61.089 3.464) rotate(-45)" fill="#fff"/>
        <rect id="Rectangle_953" data-name="Rectangle 953" width="4.899" height="4.899" transform="translate(40.726 3.464) rotate(-45)" fill="#fff"/>
        <rect id="Rectangle_954" data-name="Rectangle 954" width="4.899" height="4.899" transform="translate(20.363 3.464) rotate(-45)" fill="#fff"/>
        <rect id="Rectangle_955" data-name="Rectangle 955" width="4.899" height="4.899" transform="translate(0 3.464) rotate(-45)" fill="#fff"/>
        <rect id="Rectangle_956" data-name="Rectangle 956" width="4.899" height="4.899" transform="translate(101.815 3.464) rotate(-45)" fill="#fff"/>
      </g>
      <g id="Group_13261" data-name="Group 13261" transform="translate(1255.869 652.216)">
        <rect id="Rectangle_957" data-name="Rectangle 957" width="4.899" height="4.899" transform="translate(81.452 3.464) rotate(-45)" fill="#fff"/>
        <rect id="Rectangle_958" data-name="Rectangle 958" width="4.899" height="4.899" transform="translate(61.089 3.464) rotate(-45)" fill="#fff"/>
        <rect id="Rectangle_959" data-name="Rectangle 959" width="4.899" height="4.899" transform="translate(40.726 3.464) rotate(-45)" fill="#fff"/>
        <rect id="Rectangle_960" data-name="Rectangle 960" width="4.899" height="4.899" transform="translate(20.363 3.464) rotate(-45)" fill="#fff"/>
        <rect id="Rectangle_961" data-name="Rectangle 961" width="4.899" height="4.899" transform="translate(0 3.464) rotate(-45)" fill="#fff"/>
        <rect id="Rectangle_962" data-name="Rectangle 962" width="4.899" height="4.899" transform="translate(101.815 3.464) rotate(-45)" fill="#fff"/>
      </g>
      <g id="Group_13262" data-name="Group 13262" transform="translate(1255.869 681.156)">
        <rect id="Rectangle_963" data-name="Rectangle 963" width="4.899" height="4.899" transform="translate(81.452 3.464) rotate(-45)" fill="#fff"/>
        <rect id="Rectangle_964" data-name="Rectangle 964" width="4.899" height="4.899" transform="translate(61.089 3.464) rotate(-45)" fill="#fff"/>
        <rect id="Rectangle_965" data-name="Rectangle 965" width="4.899" height="4.899" transform="translate(40.726 3.464) rotate(-45)" fill="#fff"/>
        <rect id="Rectangle_966" data-name="Rectangle 966" width="4.899" height="4.899" transform="translate(20.363 3.464) rotate(-45)" fill="#fff"/>
        <rect id="Rectangle_967" data-name="Rectangle 967" width="4.899" height="4.899" transform="translate(0 3.464) rotate(-45)" fill="#fff"/>
        <rect id="Rectangle_968" data-name="Rectangle 968" width="4.899" height="4.899" transform="translate(101.815 3.464) rotate(-45)" fill="#fff"/>
      </g>
      <g id="Group_13263" data-name="Group 13263" transform="translate(1255.869 710.097)">
        <rect id="Rectangle_969" data-name="Rectangle 969" width="4.899" height="4.899" transform="translate(81.452 3.464) rotate(-45)" fill="#fff"/>
        <rect id="Rectangle_970" data-name="Rectangle 970" width="4.899" height="4.899" transform="translate(61.089 3.464) rotate(-45)" fill="#fff"/>
        <rect id="Rectangle_971" data-name="Rectangle 971" width="4.899" height="4.899" transform="translate(40.726 3.464) rotate(-45)" fill="#fff"/>
        <rect id="Rectangle_972" data-name="Rectangle 972" width="4.899" height="4.899" transform="translate(20.363 3.464) rotate(-45)" fill="#fff"/>
        <rect id="Rectangle_973" data-name="Rectangle 973" width="4.899" height="4.899" transform="translate(0 3.464) rotate(-45)" fill="#fff"/>
        <rect id="Rectangle_974" data-name="Rectangle 974" width="4.899" height="4.899" transform="translate(101.815 3.464) rotate(-45)" fill="#fff"/>
      </g>
      <g id="Group_13264" data-name="Group 13264" transform="translate(1255.869 739.037)">
        <rect id="Rectangle_975" data-name="Rectangle 975" width="4.899" height="4.899" transform="translate(81.452 3.464) rotate(-45)" fill="#fff"/>
        <rect id="Rectangle_976" data-name="Rectangle 976" width="4.899" height="4.899" transform="translate(61.089 3.464) rotate(-45)" fill="#fff"/>
        <rect id="Rectangle_977" data-name="Rectangle 977" width="4.899" height="4.899" transform="translate(40.726 3.464) rotate(-45)" fill="#fff"/>
        <rect id="Rectangle_978" data-name="Rectangle 978" width="4.899" height="4.899" transform="translate(20.363 3.464) rotate(-45)" fill="#fff"/>
        <rect id="Rectangle_979" data-name="Rectangle 979" width="4.899" height="4.899" transform="translate(0 3.464) rotate(-45)" fill="#fff"/>
        <rect id="Rectangle_980" data-name="Rectangle 980" width="4.899" height="4.899" transform="translate(101.815 3.464) rotate(-45)" fill="#fff"/>
      </g>
      <g id="Group_13265" data-name="Group 13265" transform="translate(1255.869 507.515)">
        <rect id="Rectangle_981" data-name="Rectangle 981" width="4.899" height="4.899" transform="translate(81.452 3.464) rotate(-45)" fill="#fff"/>
        <rect id="Rectangle_982" data-name="Rectangle 982" width="4.899" height="4.899" transform="translate(61.089 3.464) rotate(-45)" fill="#fff"/>
        <rect id="Rectangle_983" data-name="Rectangle 983" width="4.899" height="4.899" transform="translate(40.726 3.464) rotate(-45)" fill="#fff"/>
        <rect id="Rectangle_984" data-name="Rectangle 984" width="4.899" height="4.899" transform="translate(20.363 3.464) rotate(-45)" fill="#fff"/>
        <rect id="Rectangle_985" data-name="Rectangle 985" width="4.899" height="4.899" transform="translate(0 3.464) rotate(-45)" fill="#fff"/>
        <rect id="Rectangle_986" data-name="Rectangle 986" width="4.899" height="4.899" transform="translate(101.815 3.464) rotate(-45)" fill="#fff"/>
      </g>
      <path id="Path_9986" data-name="Path 9986" d="M558.785,162.02c6.934,10.2,18.778,1.383,18.778,1.383s-1.079-3.477-7.035-5.88c-4.443-1.8-10.323.649-12.388,1.635l-6.972.518-.11.008c-1.539.232-3.06.51-4.573.809,19.124-8.991,7.431-31.474,7.431-31.474s-6.2.881-11.916,10.331c-4.586,7.583-1.3,19.343-.392,22.222a116.266,116.266,0,0,0-22.272,8.063,39.67,39.67,0,0,0,2.58-3.4c6.651-9.808,1.593-26.643,1.593-26.643-26.719,6.192-18.778,31.111-16.582,36.793a170.1,170.1,0,0,0-23.01,17.012,35.759,35.759,0,0,0,4.156-12.316c2.141-13.088-10.913-27.8-10.913-27.8-24.86,19.355-3.351,41.569.83,45.506-4.4,4.152-8.4,8.3-11.971,12.249-3.92,4.337-7.507,8.632-10.748,12.742.969-3.68,1.517-9.4-.358-17.341-3.334-14.112-22.694-23.482-22.694-23.482-16.586,29.307,12.7,42.762,19.511,45.421a229.015,229.015,0,0,0-17.092,25.885l2.559,1.374a203.932,203.932,0,0,1,11.326-17.893c13.5,31.419,47.107,11.389,47.107,11.389s-1.762-8.763-15.705-16.131c-8.987-4.75-21.4-2.04-28.017.008a250.673,250.673,0,0,1,16.312-20.08c2.087-2.31,4.329-4.687,6.71-7.09,12.148,29.7,43.369,11.107,43.369,11.107s-1.614-8.017-14.365-14.757c-8.017-4.236-19.018-1.981-25.172-.131a181.03,181.03,0,0,1,23.95-19.511c8.506,28.388,38.15,13.627,38.15,13.627s-.9-7.25-11.8-14.112c-7.136-4.493-17.615-2.938-23.073-1.665a125.006,125.006,0,0,1,31.979-14.841c2.141,26.306,30.07,18.378,30.07,18.378s.388-6.251-7.718-13.758c-6.306-5.838-17.956-5.222-21.391-4.894a101.962,101.962,0,0,1,12.51-2.719Z" transform="translate(680.387 127.27)" fill="#ff5c53"/>
      <path id="Path_9987" data-name="Path 9987" d="M398.718,126.084c-7.174,5.109-12.923-3.73-12.923-3.73s1.585-2.065,6.171-2.2c3.418-.1,6.752,2.993,7.895,4.169L404.4,126.4l.068.034c.974.535,1.926,1.1,2.866,1.678-10.584-10.769,2.824-22.93,2.824-22.93s3.937,2.124,5.421,9.876c1.193,6.217-3.92,13.282-5.248,14.984a83.052,83.052,0,0,1,12.923,10.925,28.035,28.035,0,0,1-.885-2.917c-2.023-8.219,5.539-18.243,5.539-18.243,16.367,10.774,4.868,25.5,1.989,28.763a121.754,121.754,0,0,1,11.2,17.1,25.513,25.513,0,0,1,.27-9.281c1.808-9.3,14.2-15.92,14.2-15.92,11.857,19.132-8.059,28.683-11.836,30.281,1.914,3.874,3.566,7.642,4.982,11.178,1.551,3.878,2.887,7.646,4.038,11.2a25.5,25.5,0,0,1,4.54-11.532c5.737-8.628,21.033-10.1,21.033-10.1,3.84,23.748-19.115,25.5-24.338,25.594a163.471,163.471,0,0,1,5.033,21.581l-2.053.287a147.918,147.918,0,0,0-3.153-14.795c-16.835,17.7-34.391-4.055-34.391-4.055s3.355-5.433,14.525-6.913c7.2-.957,14.841,3.941,18.77,6.951a178.952,178.952,0,0,0-5.947-17.5c-.83-2.065-1.741-4.215-2.74-6.415-15.507,16.894-31.811-3.313-31.811-3.313s3.069-4.97,13.282-6.323c6.424-.851,13.235,3.389,16.9,6.154A129.229,129.229,0,0,0,431.2,153.739c-12.738,16.911-28.94-.329-28.94-.329s2.4-4.637,11.41-6.529c5.893-1.239,12.527,2.4,15.87,4.607a89.412,89.412,0,0,0-17.745-17.876c-7.958,17.1-24.7,4.86-24.7,4.86s1.29-4.287,8.582-7.3c5.674-2.348,13.328.953,15.545,2.023a72.269,72.269,0,0,0-7.705-4.919Z" transform="translate(547.256 50.63)" fill="#97f0ff"/>
      <g id="Group_13267" data-name="Group 13267" transform="translate(215.577 335.578)">
        <path id="Path_9988" data-name="Path 9988" d="M327.725,317.89a9.643,9.643,0,0,1-4.2-3.225c-.944-1.53-.847-3.878.666-4.873a5.736,5.736,0,0,1,2.563-.67A30.882,30.882,0,0,0,345.7,299.47c-3.937-3.41-9.9-3.039-14.875-1.391s-9.648,4.375-14.807,5.189c-10.668,1.682-20.561-5.029-29.21-11.41q-8.422-6.209-16.843-12.422c-2.976-2.2-6.276-5.066-5.964-8.818a90.855,90.855,0,0,0,14.753-11.511c-1.5-3.123-5.871-3.431-9.147-2.289s-6.28,3.275-9.72,3.57c-5.408.464-9.96-3.659-13.783-7.5-12.906-12.953-29.248-21.294-30.466-39.773a17.344,17.344,0,0,1,.308-5.2,18.832,18.832,0,0,1,3.6-4.11c14.4-12.906,31.824-7.144,50.256-7.347,5.463-.063,11.638.2,15.039,4.51,2.162,2.744,2.677,6.546,4.105,9.8s4.679,6.23,8.009,5a97.508,97.508,0,0,0-1.766-19.419c2.537-3.031,6.93-2.752,10.6-2.209q10.382,1.536,20.763,3.077c10.668,1.585,22.432,3.832,28.582,12.911,2.972,4.392,4.2,9.863,6.436,14.74s6.086,9.534,11.309,9.872a32.17,32.17,0,0,0-6.027-21.109,5.778,5.778,0,0,1-1.281-2.382c-.316-1.85,1.34-3.676,3.115-4.127a9.257,9.257,0,0,1,5.273.679,103.58,103.58,0,0,1,25.269,12.906,113.133,113.133,0,0,1,34.2,38.087c3.97,7.174.5,8.169,3.988,15.587,2.778,5.909,3.646,16.957.582,23.153l-.847,2.554-1.589,3.258c-2.015,6.255-10.462,13.033-16.612,15-7.629,2.445-5.863,5.509-13.661,7.452a116.009,116.009,0,0,1-50.7,1.2A109.131,109.131,0,0,1,327.725,317.89Z" transform="translate(-215.577 -0.045)" fill="#f9c33c"/>
        <path id="Path_9989" data-name="Path 9989" d="M239.141,194.125c-5.2,4.493-10.306-1.952-10.306-1.952s1.079-1.716,4.628-2.158c2.647-.325,5.463,1.834,6.436,2.66l3.68,1.277.055.021c.8.346,1.576.712,2.348,1.092-9.007-7.583.51-18.011.51-18.011s3.212,1.366,4.936,7.271c1.383,4.742-2.074,10.6-2.976,12.021a64.6,64.6,0,0,1,10.833,7.532,20.629,20.629,0,0,1-.9-2.2c-2.175-6.234,2.959-14.571,2.959-14.571,13.5,7.161,5.648,19.44,3.654,22.184a95.535,95.535,0,0,1,9.948,12.455,19.791,19.791,0,0,1-.472-7.225c.721-7.351,9.859-13.4,9.859-13.4,10.609,13.985-4.156,22.862-6.967,24.38,1.77,2.866,3.33,5.669,4.687,8.312,1.488,2.9,2.8,5.724,3.958,8.4a19.875,19.875,0,0,1,2.677-9.286c3.823-7.115,15.587-9.387,15.587-9.387,4.725,18.159-12.97,21.2-17.02,21.657a126.622,126.622,0,0,1,5.492,16.388l-1.572.371a114.638,114.638,0,0,0-3.532-11.258c-11.773,14.98-27-.624-27-.624s2.209-4.464,10.769-6.432c5.522-1.269,11.811,1.973,15.081,4.021a138.908,138.908,0,0,0-5.9-13.147c-.792-1.543-1.661-3.144-2.6-4.78-10.8,14.251-24.94-.24-24.94-.24s2.019-4.084,9.851-5.884c4.923-1.13,10.521,1.661,13.568,3.541a100.526,100.526,0,0,0-10.1-13.939c-8.649,14.061-22.491,1.863-22.491,1.863s1.522-3.772,8.38-5.905c4.485-1.391,9.9.948,12.658,2.415a69.6,69.6,0,0,0-15.086-12.578c-4.927,13.855-18.824,5.585-18.824,5.585s.687-3.423,6.124-6.3c4.232-2.238,10.42-.236,12.219.434a55.82,55.82,0,0,0-6.344-3.258Z" transform="translate(-172.954 -53.877)" fill="url(#linear-gradient)"/>
        <path id="Path_9990" data-name="Path 9990" d="M269.054,174.591c-9.113,1.366-10.281-9.606-10.281-9.606s2.457-1.172,6.795.881c3.237,1.526,4.877,5.994,5.387,7.629l3.25,4.089.051.063c.653.965,1.273,1.939,1.876,2.921-4.763-15.056,13.505-20.038,13.505-20.038s2.664,3.848.375,11.777c-1.838,6.365-9.956,10.529-12,11.486a86.764,86.764,0,0,1,6.866,16.316,30.111,30.111,0,0,1,.561-3.14c2.011-8.624,13.813-14.386,13.813-14.386,10.154,17.8-7.549,26.083-11.781,27.76A127.6,127.6,0,0,1,289.8,231.6a26.7,26.7,0,0,1,4.649-8.527c6.1-7.815,20.8-8.114,20.8-8.114,1.985,23.465-21.117,22.926-25.4,22.626-.051,4.514-.3,8.814-.653,12.78-.392,4.354-.932,8.5-1.547,12.363,1.53-2.4,4.4-5.6,9.7-8.6,9.438-5.324,24.4.548,24.4.548-7.68,23.967-29.914,14.715-34.829,12.325a171.128,171.128,0,0,1-5.543,22.512l-2.048-.708a152.591,152.591,0,0,0,4.076-15.292c-24.093,8.527-30.142-20.08-30.142-20.08s5.7-3.477,16.818.438c7.165,2.525,11.971,10.71,14.2,15.381a186.646,186.646,0,0,0,2.748-19.132c.211-2.318.379-4.755.493-7.279-22.47,8.4-28.093-18.175-28.093-18.175s5.218-3.178,15.385.4c6.39,2.255,10.731,9.437,12.839,13.754a135.516,135.516,0,0,0-1.437-23.044c-19.9,9.728-26.829-14.028-26.829-14.028s4.434-3.187,13.733-.679c6.082,1.64,10.546,8.177,12.616,11.819a93.478,93.478,0,0,0-8.072-25.079c-15.528,12.165-25.337-7.187-25.337-7.187s3.233-3.38,11.461-2.74c6.407.5,11.975,7.208,13.535,9.256a74.584,74.584,0,0,0-4.852-8.24Z" transform="translate(-97.394 -107.002)" fill="url(#linear-gradient-2)"/>
        <path id="Path_9991" data-name="Path 9991" d="M255.865,329.778a9.642,9.642,0,0,1-.7-5.252c.417-1.749,2.145-3.343,3.916-2.976a5.745,5.745,0,0,1,2.289,1.34,30.87,30.87,0,0,0,20.224,6.571c-.371-5.193-4.847-9.147-9.53-11.5s-9.922-3.73-14.146-6.8c-8.729-6.352-10.98-18.091-12.586-28.721q-1.562-10.35-3.123-20.692c-.552-3.659-.856-8.025,2.015-10.458a91.116,91.116,0,0,0,18.576,2.3c1.146-3.271-1.728-6.58-4.851-8.089s-6.757-2.129-9.4-4.35c-4.152-3.494-4.455-9.631-4.447-15.052.038-18.281-5.623-35.735,6.584-49.661a17.275,17.275,0,0,1,3.895-3.461,18.794,18.794,0,0,1,5.454-.358c19.3,1.058,27.554,17.45,40.73,30.34,3.907,3.819,8.089,8.371,7.444,13.825-.409,3.469-2.735,6.521-4.025,9.829s-1.1,7.713,2.129,9.2a97.5,97.5,0,0,0,12.485-14.98c3.933-.35,6.845,2.951,9.054,5.931l12.506,16.86c6.424,8.662,13.155,18.571,11.081,29.337-1,5.21-4,9.947-5.872,14.98s-2.436,11.039,1.016,14.976a32.19,32.19,0,0,0,10.668-19.187,5.752,5.752,0,0,1,.776-2.592c1.087-1.534,3.545-1.652,5.121-.717a9.264,9.264,0,0,1,3.246,4.207,103.525,103.525,0,0,1,8.742,26.993,113.107,113.107,0,0,1-2.744,51.12c-2.268,7.878-5.421,6.129-8.2,13.838-2.217,6.146-9.416,14.571-15.962,16.784l-2.407,1.205-3.427,1.18c-5.846,3-16.616,1.821-22.357-1.138-7.119-3.663-8.038-.253-14.925-4.388a115.949,115.949,0,0,1-36.7-35.01A109.044,109.044,0,0,1,255.865,329.778Z" transform="translate(-131.114 -68.301)" fill="#ff5c53"/>
        <g id="Group_13266" data-name="Group 13266" transform="translate(168.954)">
          <path id="Path_9992" data-name="Path 9992" d="M426.7,383.592c-3.511-4.746-7.6-9.214-9.72-14.727-2.951-7.7-1.61-16.4,1.062-24.2s6.618-15.132,8.986-23.031a62,62,0,0,0-12.055-57.067c-2.921-3.414-6.238-6.529-8.616-10.339-5.526-8.856-5.206-20.131-3.334-30.4s5.109-20.422,4.818-30.85a46.544,46.544,0,0,0-15.617-33.227c-9.269-8.131-21.965-11.288-34.3-11.857v-.008c-.131,0-.261-.008-.392-.008s-.261-.017-.388-.021v.008c-12.346-.35-25.248,1.855-35.09,9.277a46.513,46.513,0,0,0-18.044,31.971c-1.066,10.377,1.412,20.751,2.512,31.124s.582,21.648-5.585,30.066c-2.655,3.625-6.2,6.483-9.362,9.669a62.016,62.016,0,0,0-16.266,56.018c1.775,8.051,5.168,15.655,7.254,23.63s2.774,16.759-.742,24.215c-2.516,5.336-6.934,9.488-10.786,13.96-14.264,16.557-20.983,41.838-9.674,60.532,4.519,7.465,11.414,13.185,18.6,18.141,11.157,7.7,23.512,13.948,36.7,17.261,5.783,1.454,11.768,2.79,17.665,1.5,3.928-.86,6.883-.19,11.027-.063,4.143.185,7.14-.266,10.993.885,5.787,1.724,11.853.839,17.728-.181,13.4-2.327,26.184-7.642,37.88-14.487,7.528-4.409,14.833-9.6,19.891-16.708C444.511,426.872,439.69,401.16,426.7,383.592Z" transform="translate(-255.661 -147.831)" fill="#abc8e9"/>
          <path id="Path_9993" data-name="Path 9993" d="M387.709,355.286l-59.023,59.365,1.77-120.344c8.97-11.178,44.608-55.63,44.608-55.63l-44.448,44.7,1.075-73.122c3.886-4.839,32.228-40.19,32.228-40.19l-32.11,32.3.755-51.39-3.111,65.86L300.761,183.33,329.086,224.6l-3.507,74.235L284.55,250.913s32.683,47.634,40.507,59.023L319.3,431.7l-56.03-65.439s49.619,72.317,55.314,80.6l-.847,17.969,10.2.379.531-36.051C340.041,414.743,387.709,355.286,387.709,355.286Z" transform="translate(-231.188 -137.722)" fill="#94b2ff"/>
        </g>
      </g>
      <g id="Group_13269" data-name="Group 13269" transform="translate(1075.819 99.745)">
        <path id="Path_9994" data-name="Path 9994" d="M512.426,138.9A46.381,46.381,0,1,1,466.57,91.883,46.434,46.434,0,0,1,512.426,138.9Z" transform="translate(-419.666 -91.88)" fill="#fece00"/>
        <g id="Group_13268" data-name="Group 13268" transform="translate(20.493 24.113)">
          <path id="Path_9995" data-name="Path 9995" d="M431.135,110.474a6.437,6.437,0,1,0-6.348-6.508A6.425,6.425,0,0,0,431.135,110.474Z" transform="translate(-423.696 -97.601)"/>
          <path id="Path_9996" data-name="Path 9996" d="M439.938,110.577a6.439,6.439,0,1,0-6.348-6.512A6.436,6.436,0,0,0,439.938,110.577Z" transform="translate(-395.395 -97.283)"/>
          <rect id="Rectangle_987" data-name="Rectangle 987" width="4.292" height="51.377" transform="translate(0 39.888) rotate(-89.353)"/>
        </g>
      </g>
      <g id="Group_13271" data-name="Group 13271" transform="translate(768.892 99.748)">
        <path id="Path_9997" data-name="Path 9997" d="M439.614,138.2a46.383,46.383,0,1,1-46.555-46.315A46.439,46.439,0,0,1,439.614,138.2Z" transform="translate(-346.849 -91.881)" fill="#fece00"/>
        <g id="Group_13270" data-name="Group 13270" transform="translate(18.593 24.249)">
          <path id="Path_9998" data-name="Path 9998" d="M358.359,110.54a6.436,6.436,0,1,0-6.445-6.411A6.428,6.428,0,0,0,358.359,110.54Z" transform="translate(-349.157 -97.528)"/>
          <path id="Path_9999" data-name="Path 9999" d="M367.162,110.507a6.436,6.436,0,1,0-6.445-6.411A6.428,6.428,0,0,0,367.162,110.507Z" transform="translate(-320.855 -97.634)"/>
          <path id="Path_10000" data-name="Path 10000" d="M378.675,105.1c-.139,0-.278,0-.417,0-12.548.181-22.892,6.074-27,15.381l3.916,1.737c4.089-9.269,14.635-12.7,23.14-12.826,11.043-.185,20.6,4.822,24.346,12.687l3.865-1.846C402.118,110.965,391.214,105.051,378.675,105.1Z" transform="translate(-351.26 -73.64)"/>
        </g>
      </g>
      <g id="Group_13272" data-name="Group 13272" transform="translate(1200.96 380.719)">
        <ellipse id="Ellipse_550" data-name="Ellipse 550" cx="46.382" cy="46.492" rx="46.382" ry="46.492" fill="#fece00"/>
        <path id="Path_10001" data-name="Path 10001" d="M460.858,177.187a6.438,6.438,0,1,0-6.424-6.436A6.43,6.43,0,0,0,460.858,177.187Z" transform="translate(-433.028 -139.99)"/>
        <path id="Path_10002" data-name="Path 10002" d="M469.661,177.186a6.438,6.438,0,1,0-6.424-6.436A6.43,6.43,0,0,0,469.661,177.186Z" transform="translate(-404.726 -139.993)"/>
        <path id="Path_10003" data-name="Path 10003" d="M453.764,171.757l1,2.394a30.493,30.493,0,0,0,9.513,13.459c3.267-2.79,10.044-4.712,17.9-4.717,8.148,0,15.145,2.07,18.259,5.033a29.771,29.771,0,0,0,9.6-13.838l.552-2.226Z" transform="translate(-435.181 -116.048)"/>
        <path id="Path_10004" data-name="Path 10004" d="M456.259,179.116a28.942,28.942,0,0,0,18.285,6.424h.417a28.458,28.458,0,0,0,17.454-6.108c-3.115-2.963-10.112-5.033-18.259-5.033C466.3,174.4,459.526,176.325,456.259,179.116Z" transform="translate(-427.16 -107.554)" fill="#c1272d"/>
      </g>
      <g id="Group_13277" data-name="Group 13277" transform="translate(420.532 89.434)">
        <g id="Group_13274" data-name="Group 13274" transform="translate(33.247 193.871)">
          <path id="Path_10005" data-name="Path 10005" d="M279.806,135.429l-.969,6.651c.653.051,8.906,1.3,8.906,1.3l.969-6.651Z" transform="translate(-250.397 -135.429)" fill="#cb957b"/>
          <path id="Path_10006" data-name="Path 10006" d="M298.666,136.372s-20.666,6.854-21.088,6.967c-.19.051-1.18.135-2.221.215a3.4,3.4,0,0,0-3.178,2.824,3.56,3.56,0,0,0-.067,1.075c.16.3,37.118,5.408,37.118,5.408s2.592-11.735.7-12.485S301.145,140.233,298.666,136.372Z" transform="translate(-272.09 -132.397)" fill="#333"/>
          <g id="Group_13273" data-name="Group 13273" transform="translate(8.95 7.887)">
            <path id="Path_10007" data-name="Path 10007" d="M276.582,137.3l1.284,3.393-1.287.487-1.3-3.445Z" transform="translate(-270.798 -137.3)" fill="#fff"/>
            <path id="Path_10008" data-name="Path 10008" d="M276.036,137.482l1.227,3.241-1.287.487-1.247-3.293Z" transform="translate(-272.554 -136.715)" fill="#fff"/>
            <path id="Path_10009" data-name="Path 10009" d="M275.52,137.654l1.18,3.121-1.286.487-1.2-3.173Z" transform="translate(-274.213 -136.161)" fill="#fff"/>
          </g>
        </g>
        <g id="Group_13276" data-name="Group 13276" transform="translate(0 177.955)">
          <path id="Path_10010" data-name="Path 10010" d="M274.973,132.139l-3.853,5.509c.561.337,7.376,5.155,7.376,5.155l3.853-5.509Z" transform="translate(-241.957 -130.091)" fill="#cb957b"/>
          <path id="Path_10011" data-name="Path 10011" d="M292.9,135.977s-21.543-3.153-21.969-3.241c-.194-.038-1.117-.4-2.082-.805a3.4,3.4,0,0,0-4.105,1.1,3.481,3.481,0,0,0-.544.927c0,.346,30.736,21.5,30.736,21.5s7.583-9.319,6.234-10.837S293.383,140.542,292.9,135.977Z" transform="translate(-264.202 -131.653)" fill="#333"/>
          <g id="Group_13275" data-name="Group 13275" transform="translate(9.977 1.63)">
            <path id="Path_10012" data-name="Path 10012" d="M269.414,132.4l-.376,3.608-1.368-.142.381-3.663Z" transform="translate(-263.029 -131.523)" fill="#fff"/>
            <path id="Path_10013" data-name="Path 10013" d="M268.832,132.315l-.359,3.447-1.369-.143.364-3.5Z" transform="translate(-264.847 -131.788)" fill="#fff"/>
            <path id="Path_10014" data-name="Path 10014" d="M268.284,132.238l-.346,3.319-1.369-.143.352-3.375Z" transform="translate(-266.569 -132.04)" fill="#fff"/>
          </g>
        </g>
        <path id="Path_10015" data-name="Path 10015" d="M352.525,118.323s-43.579-6.2-47.836-1.619-32.983,72.4-32.983,72.4l9.311,5.319,36.439-51.6,39.63-16.489Z" transform="translate(-240.076 -7.177)" fill="#00c3ae"/>
        <path id="Path_10016" data-name="Path 10016" d="M303.818,118.712s-7.865.776-10.525-1.087-12.5-13.3-5.85-11.7,6.651,1.062,9.577-3.191,4.518-13.3,14.1-13.3S330.8,90.5,332.392,97.413s-.266,14.361,1.863,17.286,3.448,5.425-1.99,4.173-12.106,2.478-12.106,2.478l-9.518-5.054Z" transform="translate(-196.765 -89.434)" fill="#231f20"/>
        <path id="Path_10017" data-name="Path 10017" d="M289.5,100.293s.889,9.041,4.156,9.838.889,5.324,6.529,6.917,9.8-1.328,10.984,0,6.234,11.44,6.234,11.44l2.373,2.925,7.123-21.547-6.828-8.51s-7.419,2.925-8.013-2.394-8.906-6.647-8.607-1.328S295.44,87.526,289.5,100.293Z" transform="translate(-182.865 -73.962)" fill="#cb957b"/>
        <path id="Path_10018" data-name="Path 10018" d="M307.992,100.556s7.878-7.069,8.674-2.28,14.1,4.253,19.684,26.6,7.979,59.579,7.979,67.027-7.979,17.825-12.5,17.825,2.66-8.78-11.435-23.676-26.6-15.693-26.6-15.693.86-31.845,3.254-40.355S302.5,102.566,307.992,100.556Z" transform="translate(-169.069 -66.359)" fill="#0076de"/>
        <path id="Path_10019" data-name="Path 10019" d="M379.3,149.259s-29.446-.645-45.75-2.053C320.135,146.047,305.286,144,305.286,144l-13.227,58.985-13.033-1.6,5.85-76.334s-1.9-11.7,22.344-9.311,58.252,1.332,58.252,1.332l8.51,8.245Z" transform="translate(-216.542 -5.893)" fill="#00d6ae"/>
        <path id="Path_10020" data-name="Path 10020" d="M313.262,114.7s-17.147-2.558-19.06-2.558-7.785,2.3-9.825,5.1-4.594,7.4-1.787,6.382,4.847-4.084,12.249-2.554,10.748,3.157,17.686,2.28S313.262,114.7,313.262,114.7Z" transform="translate(-209.075 -16.414)" fill="#cb957b"/>
        <path id="Path_10021" data-name="Path 10021" d="M283.248,109.273l21.659,26.187h-8.689l-23.229-26.948Z" transform="translate(-235.951 -28.099)" fill="#231f20"/>
        <path id="Path_10022" data-name="Path 10022" d="M327.955,116.185s4.927-22.373,14.416-12.148,5.041,24.574,3.283,39.807c-1.69,14.651-8.839,28.814-19.823,27.887s-37.206-13.948-37.206-13.948l1.4-9.484,32.629,4.089S323.306,129.391,327.955,116.185Z" transform="translate(-185.681 -51.088)" fill="#0585ff"/>
        <rect id="Rectangle_988" data-name="Rectangle 988" width="34.462" height="2.541" transform="translate(60.268 105.918)" fill="#231f20"/>
        <path id="Path_10023" data-name="Path 10023" d="M294.065,97.129s5.374,6.3,5.576,8.519-.223,8.245-2.019,8.877a35.594,35.594,0,0,1-5.459,1.092l3.288.447s6.752.472,7.157-.586,3.364-4.919,2.31-7.958a41.5,41.5,0,0,0-2.752-6l-7.144-6.786Z" transform="translate(-174.303 -72.391)" fill="#231f20"/>
      </g>
      <g id="Group_13278" data-name="Group 13278" transform="translate(499.312 232.411)">
        <rect id="Rectangle_989" data-name="Rectangle 989" width="652.834" height="452.106" rx="4.897" fill="#242426"/>
        <path id="Path_10024" data-name="Path 10024" d="M690.943,269.83,663.52,256.776a5.521,5.521,0,0,0-2.377-.535H550.182V230.622H459.331v25.619H348.7a5.52,5.52,0,0,0-2.352.523L318.6,269.818a5.527,5.527,0,0,0,2.352,10.529H688.57A5.526,5.526,0,0,0,690.943,269.83Z" transform="translate(-178.341 221.514)" fill="#242426"/>
        <path id="Path_10025" data-name="Path 10025" d="M289.346,129.781V496.092h38.423L570.285,129.781Z" transform="translate(-262.144 -102.695)" fill="#404040"/>
        <path id="Path_10026" data-name="Path 10026" d="M569.2,129.781,326.685,496.092H379.8L622.317,129.781Z" transform="translate(-142.097 -102.695)" fill="#404040"/>
        <path id="Path_10027" data-name="Path 10027" d="M660.519,129.781H595.132L352.616,496.092H684.36V129.781Z" transform="translate(-58.728 -102.695)" fill="#404040"/>
        <path id="Path_10028" data-name="Path 10028" d="M540.978,129.781,298.461,496.092H417.425L659.941,129.781Z" transform="translate(-232.837 -102.695)" fill="#4b4b4b"/>
        <path id="Path_10029" data-name="Path 10029" d="M581.8,129.781,339.286,496.092h56.186L637.988,129.781Z" transform="translate(-101.584 -102.695)" fill="#4b4b4b"/>
      </g>
      <g id="Group_13286" data-name="Group 13286" transform="translate(467.466 547.844)">
        <path id="Path_10030" data-name="Path 10030" d="M593.025,310.675H314.255a6.644,6.644,0,0,0-4.147,1.454l-21.648,17.32a6.639,6.639,0,0,1-10.786-5.184V208.423a6.641,6.641,0,0,1,6.639-6.643H593.025a6.642,6.642,0,0,1,6.643,6.643v95.614A6.639,6.639,0,0,1,593.025,310.675Z" transform="translate(-267.827 -186.648)" fill="#b3b3b3" style="mix-blend-mode: multiply;isolation: isolate"/>
        <g id="Group_13285" data-name="Group 13285">
          <path id="Path_10031" data-name="Path 10031" d="M590.693,307.085H311.923a6.64,6.64,0,0,0-4.152,1.454l-21.644,17.315a6.64,6.64,0,0,1-10.79-5.184V204.829a6.642,6.642,0,0,1,6.643-6.639H590.693a6.638,6.638,0,0,1,6.639,6.639v95.614A6.641,6.641,0,0,1,590.693,307.085Z" transform="translate(-275.337 -198.19)" fill="#008eff"/>
          <g id="Group_13279" data-name="Group 13279" transform="translate(105.123 16.066)">
            <path id="Path_10032" data-name="Path 10032" d="M319.214,211.06,314.744,202l-4.47,9.059-10,1.452,7.233,7.051-1.708,9.956,8.941-4.7,8.941,4.7-1.708-9.956,7.233-7.051Z" transform="translate(-300.277 -202.002)" fill="#fece00"/>
            <path id="Path_10033" data-name="Path 10033" d="M327.163,211.06,322.693,202l-4.471,9.059-10,1.452,7.233,7.051-1.708,9.956,8.941-4.7,8.94,4.7-1.707-9.956,7.233-7.051Z" transform="translate(-274.721 -202.002)" fill="#fece00"/>
            <path id="Path_10034" data-name="Path 10034" d="M335.112,211.06,330.641,202l-4.47,9.059-10,1.452,7.234,7.051-1.708,9.956,8.941-4.7,8.941,4.7-1.708-9.956,7.233-7.051Z" transform="translate(-249.165 -202.002)" fill="#fece00"/>
            <path id="Path_10035" data-name="Path 10035" d="M343.061,211.06,338.59,202l-4.47,9.059-10,1.452,7.233,7.051-1.707,9.956,8.941-4.7,8.941,4.7-1.708-9.956,7.233-7.051Z" transform="translate(-223.609 -202.002)" fill="#fece00"/>
            <path id="Path_10036" data-name="Path 10036" d="M361.006,212.512l-10-1.452L346.54,202l-4.47,9.059-10,1.452,7.233,7.051-1.708,9.956,8.941-4.7,8.941,4.7-1.707-9.956Z" transform="translate(-198.053 -202.002)" fill="#fece00"/>
          </g>
          <g id="Group_13280" data-name="Group 13280" transform="translate(105.123 53.393)">
            <rect id="Rectangle_990" data-name="Rectangle 990" width="204.563" height="6.731" rx="0.679" fill="#fff"/>
            <rect id="Rectangle_991" data-name="Rectangle 991" width="204.563" height="6.731" rx="0.679" transform="translate(0 15.389)" fill="#fff"/>
            <rect id="Rectangle_992" data-name="Rectangle 992" width="123.998" height="6.731" rx="0.679" transform="translate(0 30.779)" fill="#fff"/>
          </g>
          <g id="Group_13284" data-name="Group 13284" transform="translate(19.814 13.729)">
            <g id="Group_13283" data-name="Group 13283">
              <circle id="Ellipse_551" data-name="Ellipse 551" cx="38.391" cy="38.391" r="38.391" fill="#fff"/>
              <g id="Group_13282" data-name="Group 13282" clip-path="url(#clip-path)">
                <g id="Group_13281" data-name="Group 13281" transform="translate(7.663 5.575)">
                  <path id="Path_10037" data-name="Path 10037" d="M321.967,220.445a.859.859,0,0,0-.013-.223c-.017-.384-.034-.767-.034-1.155l0-2.736v-1.619c-.341-7.364-18.546-8.013-18.546-8.013s-18.2.649-18.542,8.013v1.619q0,1.366,0,2.736c0,.388-.017.771-.038,1.155a.83.83,0,0,0-.009.223c-.017.337-.038.679-.042,1.02l2.685,10.584a37.9,37.9,0,0,0,3.764,6.6,20.354,20.354,0,0,0,6.2,5.872,11.6,11.6,0,0,0,11.945,0,20.32,20.32,0,0,0,6.209-5.872,37.613,37.613,0,0,0,3.76-6.6l2.689-10.584C322,221.124,321.984,220.782,321.967,220.445Z" transform="translate(-272.542 -190.134)" fill="#ffd5aa"/>
                  <path id="Path_10038" data-name="Path 10038" d="M284.6,254.691l12.4.814a22.27,22.27,0,0,1-3.617-4.953A30.781,30.781,0,0,1,288.673,236c-.518-11.642,3.646-14.179,2.93-12.165s1.5,3.709,6.436,3.709,10.213-5.791,15.09-5.985,7.756,3.954,8.611,11.444a27.053,27.053,0,0,1-8.321,22.5l13.033-.814c-4.223-4.4-3.372-8.476-1.324-21.041,2.563-15.752-.552-31.992-19.836-30.82s-20.827,14.238-21.1,18.407c-.434,6.681,3.313,16.194,3.962,22.247C288.526,246.944,286.448,251.458,284.6,254.691Z" transform="translate(-274.456 -202.77)" fill="#333"/>
                  <rect id="Rectangle_993" data-name="Rectangle 993" width="16.416" height="19.828" transform="translate(22.547 52.733)" fill="#ffd5aa"/>
                  <path id="Path_10039" data-name="Path 10039" d="M343.13,245.809c.084-11.924.181-20.485.181-20.485s-15.937-7.123-22.125-8.6v.413c.392.253.7.552.653.843-.253,1.61-8.906,4.148-9.21,4.236-.308-.088-8.957-2.626-9.214-4.236-.046-.291.265-.59.658-.843v-.413c-6.192,1.475-22.125,8.6-22.125,8.6l-.093,20.485Z" transform="translate(-281.856 -157.903)" fill="#ff5c53"/>
                </g>
              </g>
            </g>
          </g>
        </g>
      </g>
      <g id="Group_13295" data-name="Group 13295" transform="translate(467.466 395.475)">
        <path id="Path_10040" data-name="Path 10040" d="M593.335,273.4H314.561a6.653,6.653,0,0,0-4.147,1.454l-21.644,17.32a6.641,6.641,0,0,1-10.79-5.185V171.143a6.641,6.641,0,0,1,6.639-6.643H593.335a6.641,6.641,0,0,1,6.639,6.643v95.614A6.638,6.638,0,0,1,593.335,273.4Z" transform="translate(-266.843 -154.135)" fill="#b3b3b3" style="mix-blend-mode: multiply;isolation: isolate"/>
        <g id="Group_13294" data-name="Group 13294">
          <path id="Path_10041" data-name="Path 10041" d="M590.693,270.936H311.923a6.665,6.665,0,0,0-4.152,1.454l-21.644,17.32a6.641,6.641,0,0,1-10.79-5.185V168.684a6.645,6.645,0,0,1,6.643-6.643H590.693a6.641,6.641,0,0,1,6.639,6.643V264.3A6.638,6.638,0,0,1,590.693,270.936Z" transform="translate(-275.337 -162.041)" fill="#008eff"/>
          <g id="Group_13291" data-name="Group 13291" transform="translate(21.776 10.366)">
            <g id="Group_13290" data-name="Group 13290">
              <circle id="Ellipse_553" data-name="Ellipse 553" cx="38.391" cy="38.391" r="38.391" fill="#fff"/>
              <g id="Group_13289" data-name="Group 13289" clip-path="url(#clip-path)">
                <g id="Group_13288" data-name="Group 13288" transform="translate(7.653 4.19)">
                  <g id="Group_13287" data-name="Group 13287" transform="translate(9.413)">
                    <path id="Path_10042" data-name="Path 10042" d="M326.344,183.731a.863.863,0,0,0-.371-.459.837.837,0,0,0-.489-.042,2.888,2.888,0,0,0-1.206.489l0-.038c-.008-.341-.025-.679-.042-1.02a1.079,1.079,0,0,0-.013-.219c-.017-.384-.034-.767-.034-1.159l0-2.736v-1.614c-.341-7.368-18.546-8.017-18.546-8.017s-18.2.649-18.542,8.017v4.35c0,.392-.013.776-.034,1.159a.811.811,0,0,0-.008.219c-.017.341-.038.679-.042,1.02v.038a2.888,2.888,0,0,0-1.206-.489.684.684,0,0,0-.856.5,5.81,5.81,0,0,0-.152,3.891,14.93,14.93,0,0,0,1.682,3.583c.78,1.307,1.77,2.668,3.216,3.064a38.044,38.044,0,0,0,3.764,6.6,20.387,20.387,0,0,0,6.2,5.867,11.6,11.6,0,0,0,11.945,0,20.357,20.357,0,0,0,6.209-5.867,37.749,37.749,0,0,0,3.76-6.6c1.446-.4,2.436-1.758,3.22-3.064a15.1,15.1,0,0,0,1.682-3.583A5.862,5.862,0,0,0,326.344,183.731Z" transform="translate(-284.552 -154.497)" fill="#cb957b"/>
                    <path id="Path_10043" data-name="Path 10043" d="M288.164,198.269s-1.3-4.009.325-5.345.485-10.816,2.47-10.327,10.609,3.764,15.591,2.39,6.4-3.646,8.624-2.795,5.509,3,5.834,6.761,1.092,4.333,1.661,4.9.2,4.253.2,4.253,4.738-16.645.729-21.223-6.723-5.062-6.723-5.062-3-7.692-11.583-6.116-17.05,9.113-18.668,9.033-1.623-.282-1.623-.282a13.392,13.392,0,0,0,1.214,2.672c.611.851-3.806,10.854.649,19.924C287.718,198.956,288.164,198.269,288.164,198.269Z" transform="translate(-283.587 -165.494)" fill="#333"/>
                  </g>
                  <rect id="Rectangle_994" data-name="Rectangle 994" width="16.416" height="19.828" transform="translate(22.565 50.459)" fill="#cb957b"/>
                  <path id="Path_10044" data-name="Path 10044" d="M343.585,211.61c.093-13.775.207-24.1.207-24.1s-15.933-7.123-22.125-8.6v.413c.392.253.7.552.658.847-.257,1.61-8.906,4.143-9.214,4.232-.3-.089-8.957-2.622-9.21-4.232-.046-.3.261-.594.653-.847v-.413c-6.188,1.475-22.125,8.6-22.125,8.6l-.11,24.1Z" transform="translate(-282.319 -122.363)" fill="#0076cc"/>
                </g>
              </g>
            </g>
          </g>
          <g id="Group_13292" data-name="Group 13292" transform="translate(105.123 17.977)">
            <path id="Path_10045" data-name="Path 10045" d="M319.214,175.364l-4.47-9.058-4.47,9.058-10,1.452,7.233,7.051-1.708,9.956,8.941-4.7,8.941,4.7-1.708-9.956,7.233-7.051Z" transform="translate(-300.277 -166.305)" fill="#fece00"/>
            <path id="Path_10046" data-name="Path 10046" d="M327.163,175.364l-4.47-9.058-4.47,9.058-10,1.452,7.233,7.051-1.708,9.956,8.941-4.7,8.941,4.7-1.707-9.956,7.233-7.051Z" transform="translate(-274.721 -166.305)" fill="#fece00"/>
            <path id="Path_10047" data-name="Path 10047" d="M335.112,175.364l-4.471-9.058-4.47,9.058-10,1.452,7.233,7.051-1.707,9.956,8.941-4.7,8.941,4.7-1.708-9.956,7.233-7.051Z" transform="translate(-249.165 -166.305)" fill="#fece00"/>
            <path id="Path_10048" data-name="Path 10048" d="M343.061,175.364l-4.471-9.058-4.47,9.058-10,1.452,7.233,7.051-1.707,9.956,8.941-4.7,8.94,4.7-1.707-9.956,7.233-7.051Z" transform="translate(-223.609 -166.305)" fill="#fece00"/>
            <path id="Path_10049" data-name="Path 10049" d="M346.539,172.747l1.914,3.878.666,1.345,1.479.215,4.282.624-3.1,3.018-1.071,1.045.253,1.48.729,4.266-3.827-2.015-1.328-.7-1.328.7-3.827,2.015.729-4.266.253-1.48-1.071-1.045-3.1-3.018,4.282-.624,1.479-.215.666-1.345,1.914-3.878m0-6.441-4.472,9.058-9.994,1.454,7.233,7.048-1.707,9.96,8.94-4.7,8.94,4.7-1.707-9.96,7.233-7.048-9.994-1.454-4.472-9.058Z" transform="translate(-198.052 -166.306)" fill="#fece00"/>
          </g>
          <g id="Group_13293" data-name="Group 13293" transform="translate(105.123 52.122)">
            <rect id="Rectangle_995" data-name="Rectangle 995" width="204.563" height="6.731" rx="0.679" fill="#fff"/>
            <rect id="Rectangle_996" data-name="Rectangle 996" width="204.563" height="6.731" rx="0.679" transform="translate(0 15.389)" fill="#fff"/>
            <rect id="Rectangle_997" data-name="Rectangle 997" width="123.998" height="6.731" rx="0.679" transform="translate(0 30.779)" fill="#fff"/>
          </g>
        </g>
      </g>
      <g id="Group_13299" data-name="Group 13299" transform="translate(587.284 291.644)">
        <path id="Path_10050" data-name="Path 10050" d="M356.343,162.559l-12.412-25.151-12.412,25.151-27.756,4.032,20.084,19.578-4.742,27.644,24.825-13.053,24.825,13.053-4.741-27.644L384.1,166.59Z" transform="translate(-303.763 -137.407)" fill="#fece00"/>
        <path id="Path_10051" data-name="Path 10051" d="M378.414,162.559,366,137.407,353.59,162.559l-27.756,4.032,20.084,19.578-4.742,27.644L366,200.759l24.826,13.053-4.742-27.644L406.17,166.59Z" transform="translate(-232.804 -137.407)" fill="#fece00"/>
        <path id="Path_10052" data-name="Path 10052" d="M400.486,162.559l-12.413-25.151-12.412,25.151-27.756,4.032,20.084,19.578-4.742,27.644,24.825-13.053L412.9,213.812l-4.741-27.644,20.084-19.578Z" transform="translate(-161.845 -137.407)" fill="#fece00"/>
        <path id="Path_10053" data-name="Path 10053" d="M422.556,162.559l-12.413-25.151-12.412,25.151-27.755,4.032,20.083,19.578-4.741,27.644,24.825-13.053,24.825,13.053-4.742-27.644,20.084-19.578Z" transform="translate(-90.886 -137.407)" fill="#fece00"/>
        <path id="Path_10054" data-name="Path 10054" d="M432.216,155.284l5.315,10.774,1.842,3.735,4.118.594,11.886,1.728-8.6,8.384-2.976,2.9.7,4.1,2.027,11.84-10.63-5.589-3.684-1.939-3.684,1.939-10.63,5.589,2.027-11.84.7-4.1-2.98-2.9-8.6-8.384,11.886-1.728,4.118-.594,1.842-3.735,5.315-10.774m0-17.876L419.8,162.555l-27.756,4.034,20.085,19.579L407.39,213.81l24.827-13.054,24.827,13.054L452.3,186.168l20.084-19.579-27.756-4.034-12.413-25.147Z" transform="translate(-19.928 -137.406)" fill="#e6e6e6"/>
        <g id="Group_13298" data-name="Group 13298" transform="translate(406.767 33.014)">
          <path id="Path_10055" data-name="Path 10055" d="M427.791,180.385l-2.179-3.267s.548-5.26-.906-7.254-8.342-10.7-9.248-9.977c0,0-4.552,2.483-4.8,5.8s4.552,9.475,6.887,10.58,4.181,4.114,4.181,4.114l3.2,5.606,4.059-3.322Z" transform="translate(-366.88 -98.284)" fill="#ffd5aa"/>
          <path id="Path_10056" data-name="Path 10056" d="M468.784,216.632,419,164.387l-5.678,3.212,44.652,64.534Z" transform="translate(-358.292 -83.68)" fill="#e6e6e6"/>
          <path id="Path_10057" data-name="Path 10057" d="M452.848,170.391,440.435,145.24l-12.413,25.151-27.755,4.032L420.35,194l-4.741,27.644,24.825-13.053,24.824,13.053L460.518,194,480.6,174.423Z" transform="translate(-400.267 -145.24)" fill="#fece00"/>
          <g id="Group_13296" data-name="Group 13296" transform="translate(35.954 388.53)">
            <path id="Path_10058" data-name="Path 10058" d="M417.092,262.32l1.389.1,2.657-19.083-4.246-.317Z" transform="translate(-382.77 -219.39)" fill="#ce005b"/>
            <path id="Path_10059" data-name="Path 10059" d="M447.217,242.149s-4.565-3.288-8.067,3.043-5.935,15.005-11.823,15.882-4.948-3.5-4.948-3.5-10.474,2.192-12.127,4.552-1.446,2.761-1.446,2.761,18.1,5,23.229.729,6.723-12.072,11.124-13.838S449.729,248,447.217,242.149Z" transform="translate(-408.797 -224.947)" fill="#ce005b"/>
            <path id="Path_10060" data-name="Path 10060" d="M423.132,248s-2.415,15.039-3.882,17.379-6.369,4.666-6.369,4.666-3.279,4.982,1.332,5.041a14.1,14.1,0,0,0,11.4-6.213c2.04-3.334,12.11-14.255,12.11-14.255s-2.381-2.31-3.625-3.612c-1.467-1.53-.35-7.726-.35-7.726l.518-4.388-8.375-1.475Z" transform="translate(-399.301 -237.417)" fill="#ffd5aa"/>
          </g>
          <g id="Group_13297" data-name="Group 13297" transform="translate(123.223 381.811)">
            <path id="Path_10061" data-name="Path 10061" d="M444.739,258.194l1.235-.644-7.792-17.621-3.776,1.966Z" transform="translate(-413.732 -222.618)" fill="#ce005b"/>
            <path id="Path_10062" data-name="Path 10062" d="M450.44,238.566s-5.614-.392-5.252,6.837,2.854,15.878-1.686,19.726-6.053-.367-6.053-.367-7.747,7.376-7.907,10.251.223,3.115.223,3.115,18.015-5.281,20.131-11.617-.645-13.8,2.166-17.623S455.658,242.22,450.44,238.566Z" transform="translate(-429.501 -227.017)" fill="#ce005b"/>
            <path id="Path_10063" data-name="Path 10063" d="M433.163,249.429s5.872,14.057,5.855,16.818-2.959,7.322-2.959,7.322-.164,5.96,3.789,3.583a14.11,14.11,0,0,0,6.415-11.288c-.021-3.907,2.786-18.491,2.786-18.491s-3.237-.712-4.982-1.163c-2.057-.531-4.367-6.382-4.367-6.382l-1.871-4-7.895,3.157Z" transform="translate(-428.11 -235.823)" fill="#ffd5aa"/>
          </g>
          <path id="Path_10064" data-name="Path 10064" d="M429.2,185.825a38.3,38.3,0,0,1,7.444-.742,1,1,0,0,0,.561-.114.386.386,0,0,0,.084-.438c-.691-2.87-1.673-5.754-1.421-8.666.072-.83.148-1.821-.8-2.318a4.412,4.412,0,0,0-1.914-.316c-3.241-.051-10.921-.367-9.366,3.355C424.107,177.353,430.345,185.6,429.2,185.825Z" transform="translate(-325.311 -55.34)" fill="#ffd5aa"/>
          <path id="Path_10065" data-name="Path 10065" d="M423.657,253.532l7.368,26.631,20,62.736,14.737-3.789-19.368-79.671-2.948-54.854Z" transform="translate(-325.067 45.558)" fill="#ff5c53"/>
          <path id="Path_10066" data-name="Path 10066" d="M464.55,193.747s26.525,23.368,15.157,44.633S448.242,310.8,448.242,310.8l-19.06,72.208-14.314-2.525,8-76.191,18.525-72.018.632-30.736Z" transform="translate(-353.328 10.712)" fill="#ff5c53"/>
          <path id="Path_10067" data-name="Path 10067" d="M439.64,177.635a8.34,8.34,0,0,1,10.546-.936c5.4,3.735,12.173,11.587,10.8,27.128-2.23,25.21-4.691,33.29-4.148,42.226.548,8.97,4.7,24.06,4.7,24.06s10.251,6.091-33.139,4.034c-4.46-.518-4.46-1.374-4.46-1.374s1.716-39.963,0-45.792-6.6-14.445-1.614-24.772c6.9-14.268,8.7-12.1,10.736-16.561C434.118,183.313,437.069,180.134,439.64,177.635Z" transform="translate(-336.372 -48.777)" fill="#e6e6e6"/>
          <path id="Path_10068" data-name="Path 10068" d="M424.81,177.416l5.172-4.489a34.515,34.515,0,0,1,2.761-4.632c1.167-1.345,3.806-1.062,3.806-1.062a9.242,9.242,0,0,1,3.17.746,6.742,6.742,0,0,1,.771,2.188,29.225,29.225,0,0,1,.11,3.494,12.414,12.414,0,0,0,.5,3.018l.038.118a53.713,53.713,0,0,0-2.807,7.005c1.256-1.007,2.065-2.466,3.187-3.621s2.849-2.023,4.325-1.378a3.315,3.315,0,0,1,1.572,3.886,6.382,6.382,0,0,1-2.837,3.456c-1.277.835-2.7,1.429-3.983,2.247a13.691,13.691,0,0,0-4.422,4.519c-.531.885,1.53,3.292.826,4.055s-3.482-.341-4.459-.683q-3.2-1.113-6.4-2.23c-2.074-.721-3.326-3.056-3.8-5.2-.67-3.014,1.85-4.274,1.619-7.351-.072-.969-.531-1.968-.173-2.87A3.429,3.429,0,0,1,424.81,177.416Z" transform="translate(-329.668 -74.611)" fill="#ffd5aa"/>
          <path id="Path_10069" data-name="Path 10069" d="M427.832,168.553a16.9,16.9,0,0,1,13.72-2.15,20.711,20.711,0,0,1,8.658,5.2,14.59,14.59,0,0,1,3.473,4.771c1.37,3.288.894,7.014.388,10.542a20.8,20.8,0,0,1-.919,4.282c-1.066,2.9-3.364,5.206-4.426,8.1-1.855,5.058.4,10.576,1.02,15.924a26.333,26.333,0,0,1-6.044,19.866,1.977,1.977,0,0,1-1.323.86,1.7,1.7,0,0,1-1.125-.527c-1.522-1.357-2.1-3.469-2.453-5.475-.7-3.975-.805-8.08-2.07-11.912s-4.03-7.511-7.966-8.388c-1.349-.3-2.963-.375-3.726-1.526a2.984,2.984,0,0,1-.409-1.737c.067-2.356,1.631-4.392,2.23-6.672,1.041-3.966-.919-8.1-.8-12.194a12.066,12.066,0,0,1,1.408-5.3c.712-1.345,1.682-2.55,2.263-3.954a4.473,4.473,0,0,0-.2-4.35c-1.054-1.387-3.418-.839-4.253-1.93C424.35,170.779,426.892,169.177,427.832,168.553Z" transform="translate(-321.95 -79.148)"/>
          <path id="Path_10070" data-name="Path 10070" d="M428.152,180.607,426.5,177.05s1.34-5.113.215-7.309-6.605-11.853-7.612-11.275c0,0-4.881,1.758-5.631,5s3.048,10.057,5.189,11.511,3.5,4.7,3.5,4.7l2.3,6.032,4.523-2.66Z" transform="translate(-358.116 -102.797)" fill="#ffd5aa"/>
          <path id="Path_10071" data-name="Path 10071" d="M462.737,222.619l-41.2-59.252-6.1,2.305,34.243,70.61Z" transform="translate(-351.489 -86.962)" fill="#e6e6e6"/>
        </g>
      </g>
      <g id="Group_13300" data-name="Group 13300" transform="translate(666.032 133.941)">
        <path id="Path_10072" data-name="Path 10072" d="M355.789,115.917l15.924,8.709-15.924,8.709-8.71,15.924-8.709-15.924-15.924-8.709,15.924-8.709,8.709-15.924Z" transform="translate(-322.446 -99.993)" fill="#fcee21"/>
        <path id="Path_10073" data-name="Path 10073" d="M354.238,117.518l9.22,5.042-9.22,5.043-5.043,9.22-5.042-9.22-9.22-5.043,9.22-5.042,5.042-9.22Z" transform="translate(-282.302 -73.293)" fill="#fcee21"/>
      </g>
      <g id="Group_13301" data-name="Group 13301" transform="translate(1183.874 175.988)">
        <path id="Path_10074" data-name="Path 10074" d="M468.791,125.893l-15.924,8.71,15.924,8.709,8.709,15.924,8.709-15.924,15.924-8.709-15.924-8.71L477.5,109.968Z" transform="translate(-420.979 -109.968)" fill="#fcee21"/>
        <path id="Path_10075" data-name="Path 10075" d="M454.522,127.493l-9.22,5.043,9.22,5.042,5.043,9.22,5.043-9.22,9.22-5.042-9.22-5.043-5.043-9.22Z" transform="translate(-445.302 -83.269)" fill="#fcee21"/>
      </g>
      <g id="Group_13302" data-name="Group 13302" transform="translate(868.401 455.691)">
        <path id="Path_10076" data-name="Path 10076" d="M431.309,215.527a122.164,122.164,0,0,1-16.3.114c-.008,0-5.349-3.684-3.912-8.291.852-2.731,6.373-10.479,8.329-15.461s1.914-11.338-3.882-14.727-9.762,4.392-10.537,8.063c-.843,4.013-10.967,18.129-14.913,22.449-5.049,5.53-13.973,7.275-13.973,7.275v42.656l.645-.03a34.928,34.928,0,0,1,19.461,4.995,41.776,41.776,0,0,0,5.1,2.592c7.461,3.136,38,3.279,43.213-2s5.631-24.388,5.631-27.954,2.955-4.278,5.349-12.839S445.526,214.528,431.309,215.527Z" transform="translate(-352.26 -176.327)" fill="#fff"/>
        <rect id="Rectangle_998" data-name="Rectangle 998" width="16.124" height="42.042" transform="translate(0 38.692)" fill="#fff"/>
      </g>
    </g>
  </g>
</svg>
