<svg xmlns="http://www.w3.org/2000/svg" width="54.283" height="54.283" viewBox="0 0 54.283 54.283">
  <g id="guaranteed" transform="translate(0 0)">
    <path id="Path_7804" data-name="Path 7804" d="M342.888,346.368l-5.828-5.828a4.748,4.748,0,0,1-3.209,2.583l-.794.189-.189.795a4.772,4.772,0,0,1-5.028,3.653l-.814-.066-.425.7a4.8,4.8,0,0,1-3.249,2.213l7.65,7.65a1.59,1.59,0,0,0,2.633-.622l2.157-6.472L342.266,349a1.59,1.59,0,0,0,.621-2.633Z" transform="translate(-289.07 -304.436)" fill="#ff5c53"/>
    <path id="Path_7805" data-name="Path 7805" d="M16.751,348.391l-.425-.7-.814.066a4.772,4.772,0,0,1-5.028-3.653l-.189-.795-.794-.189a4.748,4.748,0,0,1-3.209-2.583L.466,346.369A1.59,1.59,0,0,0,1.088,349L7.56,351.16l2.157,6.472a1.59,1.59,0,0,0,2.633.622L20,350.6A4.8,4.8,0,0,1,16.751,348.391Z" transform="translate(0 -304.436)" fill="#ff5c53"/>
    <path id="Path_7806" data-name="Path 7806" d="M77.908,42.3l1.445-2.371,2.767.225A1.591,1.591,0,0,0,83.8,38.936l.642-2.7,2.7-.641a1.59,1.59,0,0,0,1.218-1.676l-.225-2.767L90.5,29.706a1.59,1.59,0,0,0,.64-1.97l-1.068-2.562,1.808-2.106a1.59,1.59,0,0,0,0-2.071l-1.808-2.107,1.068-2.562a1.59,1.59,0,0,0-.64-1.97l-2.371-1.445.225-2.767a1.591,1.591,0,0,0-1.218-1.676l-2.7-.641-.642-2.7A1.591,1.591,0,0,0,82.12,3.908l-2.767.225L77.908,1.763a1.591,1.591,0,0,0-1.97-.64L73.376,2.191,71.27.383a1.59,1.59,0,0,0-2.072,0L67.092,2.191,64.53,1.122a1.59,1.59,0,0,0-1.97.64L61.115,4.133l-2.767-.225a1.591,1.591,0,0,0-1.676,1.218l-.642,2.7-2.7.642a1.59,1.59,0,0,0-1.218,1.676l.225,2.767-2.371,1.445a1.59,1.59,0,0,0-.64,1.97l1.068,2.562L48.586,21a1.59,1.59,0,0,0,0,2.071l1.808,2.106-1.068,2.562a1.59,1.59,0,0,0,.64,1.97l2.371,1.445-.225,2.767a1.591,1.591,0,0,0,1.218,1.676l2.7.641.642,2.7a1.591,1.591,0,0,0,1.676,1.218l2.767-.225L62.56,42.3a1.59,1.59,0,0,0,1.97.64l2.562-1.069L69.2,43.678a1.59,1.59,0,0,0,2.072,0l2.106-1.808,2.562,1.069a1.591,1.591,0,0,0,1.97-.64Zm-8.253-8.923a1.59,1.59,0,0,1-2.249,0l-9.369-9.369a1.59,1.59,0,0,1,0-2.249l4.818-4.818a1.59,1.59,0,0,1,2.249,0l3.426,3.426,7.685-7.685a1.59,1.59,0,0,1,2.249,0L83.282,17.5a1.59,1.59,0,0,1,0,2.249Z" transform="translate(-43.092 0)" fill="#4562db"/>
    <path id="Path_7807" data-name="Path 7807" d="M181.024,159.12a1.59,1.59,0,0,1-2.249,0l-3.426-3.426-2.569,2.569,7.12,7.12L191.278,154l-2.569-2.569Z" transform="translate(-154.461 -135.38)" fill="#ff5c53"/>
  </g>
</svg>
