<svg xmlns="http://www.w3.org/2000/svg" xmlns:xlink="http://www.w3.org/1999/xlink" width="2416" height="635" viewBox="0 0 2416 635">
  <defs>
    <linearGradient id="linear-gradient" x1="0.012" y1="0.025" x2="1" y2="1" gradientUnits="objectBoundingBox">
      <stop offset="0" stop-color="#ff7a73"/>
      <stop offset="1" stop-color="#6684ff"/>
    </linearGradient>
    <clipPath id="clip-path">
      <rect id="Rectangle_916" data-name="Rectangle 916" width="2416" height="631" transform="translate(-0.001 0.001)" fill="none"/>
    </clipPath>
    <linearGradient id="linear-gradient-2" y1="0.5" x2="1" y2="0.5" gradientUnits="objectBoundingBox">
      <stop offset="0.061" stop-color="#abe1ff"/>
      <stop offset="1" stop-color="#d7edfd" stop-opacity="0"/>
    </linearGradient>
    <linearGradient id="linear-gradient-12" x1="0.5" y1="1" x2="0.5" gradientUnits="objectBoundingBox">
      <stop offset="0.061" stop-color="#004bba"/>
      <stop offset="1" stop-color="#d7edfd" stop-opacity="0"/>
    </linearGradient>
    <linearGradient id="linear-gradient-13" y1="0.5" x2="1" y2="0.5" gradientUnits="objectBoundingBox">
      <stop offset="0" stop-color="#d7edfd" stop-opacity="0"/>
      <stop offset="0.939" stop-color="#4562db"/>
      <stop offset="1" stop-color="#4562db"/>
    </linearGradient>
    <linearGradient id="linear-gradient-15" x1="0.5" y1="1" x2="0.5" y2="0" xlink:href="#linear-gradient-13"/>
    <linearGradient id="linear-gradient-16" y1="0.5" x2="1" y2="0.5" gradientUnits="objectBoundingBox">
      <stop offset="0" stop-color="#4562db"/>
      <stop offset="0.061" stop-color="#4562db"/>
      <stop offset="1" stop-color="#d7edfd" stop-opacity="0"/>
    </linearGradient>
    <linearGradient id="linear-gradient-17" y1="0.5" x2="1" y2="0.5" gradientUnits="objectBoundingBox">
      <stop offset="0" stop-color="#d7edfd" stop-opacity="0"/>
      <stop offset="0.938" stop-color="#19adff"/>
    </linearGradient>
  </defs>
  <g id="Group_13903" data-name="Group 13903" transform="translate(0 -10322.341)">
    <path id="two-business-partners-working-office" d="M0,0H2416V634.52H0Z" transform="translate(2416 10956.86) rotate(180)" fill="url(#linear-gradient)"/>
    <g id="Group_13183" data-name="Group 13183" transform="translate(-963.766 10209.56)" opacity="0.28">
      <g id="Group_13126" data-name="Group 13126" transform="translate(963.767 116.78)" clip-path="url(#clip-path)">
        <g id="Group_13125" data-name="Group 13125" transform="translate(-25.426 -142.48)">
          <g id="Group_13100" data-name="Group 13100" transform="translate(0 497.387)">
            <g id="Group_13099" data-name="Group 13099" transform="translate(0 152.793)">
              <g id="Group_13089" data-name="Group 13089">
                <path id="Path_9716" data-name="Path 9716" d="M3372.183,847.691c-.443-.177-45.234-18.011-134.6-37.253-82.48-17.76-220.878-40.385-411.821-47.313-209.934-7.62-371.067,17.485-526.9,41.763-117.4,18.291-238.8,37.2-377.987,41.1-235.01,6.568-426.855-12.668-566.934-26.715-51.666-5.181-96.288-9.656-133.192-11.83-129.481-7.628-267.711,6.561-269.092,6.706l-.519-.762c1.385-.145,140.011-14.377,269.911-6.723,37.005,2.179,81.671,6.659,133.392,11.846,139.947,14.034,331.612,33.255,566.292,26.692,138.876-3.883,260.127-22.773,377.385-41.041,156.047-24.312,317.392-49.448,527.828-41.815,191.335,6.944,330.031,29.623,412.693,47.425,89.6,19.3,134.542,37.2,134.988,37.377Z" transform="translate(-951.138 -760.947)" fill="url(#linear-gradient-2)"/>
              </g>
              <g id="Group_13090" data-name="Group 13090" transform="translate(4.343 19.837)">
                <path id="Path_9717" data-name="Path 9717" d="M3375.017,869.527c-7.864-2.841-196.662-69.718-550.065-81.569-56.776-1.822-113.27-1.281-167.91,1.608-118.779,6.278-227.78,21.386-333.2,36-128.018,17.743-260.392,36.089-406.75,37.536-47.555.467-96.694-.365-150.239-2.55-140.841-5.747-266.517-18.19-367.5-28.187-68.534-6.785-127.722-12.645-176.732-15.088-121.269-6.045-254.519,6.2-268.51,8.648l-.82-.721c14.063-2.456,147.922-14.776,269.583-8.708,49.134,2.45,108.376,8.314,176.974,15.107,100.918,9.991,226.518,22.426,367.214,28.168,53.458,2.182,102.513,3.014,149.978,2.546,146.039-1.444,272.378-18.953,406.129-37.491,105.513-14.623,214.615-29.744,333.6-36.034,54.783-2.9,111.424-3.439,168.351-1.613,354.084,11.873,543.376,78.927,551.26,81.775Z" transform="translate(-953.295 -786.116)" fill="url(#linear-gradient-2)"/>
              </g>
              <g id="Group_13091" data-name="Group 13091" transform="translate(8.835 39.579)">
                <path id="Path_9718" data-name="Path 9718" d="M3377.737,891.324c-1.878-.679-203.494-68.324-553.665-78.556-56.726-1.657-113.188-.784-167.829,2.593-103.193,6.378-202.918,18.695-299.356,30.607-136.573,16.868-277.647,34.29-427.3,34.292q-8.163,0-16.346-.069c-45.813-.393-94.254-2.343-148.091-5.96-110.373-7.416-212.356-17.776-302.334-26.915-92.384-9.385-172.17-17.49-238.391-20.232-123.933-5.129-250.34,7.51-268.077,10.609l-.819-.72c17.824-3.113,144.769-15.824,269.108-10.672,66.37,2.748,146.225,10.86,238.685,20.252,89.939,9.136,191.881,19.491,302.169,26.9,53.738,3.611,102.08,5.556,147.793,5.949,155.429,1.345,301.615-16.724,443-34.185,96.509-11.921,196.306-24.247,299.648-30.635,54.8-3.387,111.426-4.261,168.294-2.6,350.84,10.251,553,78.083,554.877,78.763Z" transform="translate(-955.526 -811.165)" fill="url(#linear-gradient-2)"/>
              </g>
              <g id="Group_13092" data-name="Group 13092" transform="translate(13.326 58.401)">
                <path id="Path_9719" data-name="Path 9719" d="M3380.457,912.872c-7.089-2.562-63.768-19.244-161.989-36.684-86.326-15.329-224.976-34.514-395.274-38.857-57.366-1.465-113.8-.26-167.747,3.577-85.14,6.056-171.292,15.616-254.608,24.862-158.965,17.64-323.337,35.879-491.463,31.263-45.914-1.262-92.289-4.24-145.938-9.372-72.9-6.973-142.162-14.589-209.147-21.954-126.9-13.953-236.492-26-328.073-29.061-115.4-3.853-238.218,7.432-267.642,12.572l-.819-.72c30.564-5.338,151.268-16.556,268.633-12.637,91.77,3.064,201.448,15.124,328.447,29.088,66.97,7.364,136.218,14.977,209.079,21.947,53.537,5.121,99.8,8.093,145.6,9.351,167.763,4.607,331.973-13.614,490.772-31.235,83.362-9.25,169.563-18.816,254.8-24.88,54.106-3.848,110.715-5.055,168.238-3.588,170.6,4.351,309.5,23.57,395.977,38.926,98.464,17.485,155.393,34.248,162.522,36.824Z" transform="translate(-957.757 -835.046)" fill="url(#linear-gradient-2)"/>
              </g>
              <g id="Group_13093" data-name="Group 13093" transform="translate(17.818 63.249)">
                <path id="Path_9720" data-name="Path 9720" d="M3383.177,930.665c-10.568-3.818-73.217-20.2-171.147-36.448a2791.088,2791.088,0,0,0-389.715-36.082,1649.126,1649.126,0,0,0-167.664,4.562c-63.541,5.139-127.178,11.609-194.55,18.461-181.8,18.488-369.787,37.6-554.583,28.959-45.642-2.134-92.678-6.316-143.792-12.783q-36.023-4.556-71.469-9.111c-170.437-21.813-331.421-42.416-462.241-45.771-113.373-2.909-229.975,8.031-267.206,14.535l-.822-.72c44.954-7.852,163.153-17.292,268.158-14.6,131.074,3.362,292.175,23.979,462.737,45.808q35.421,4.533,71.461,9.111c50.992,6.451,97.9,10.622,143.414,12.751,184.431,8.623,372.223-10.471,553.838-28.94,67.4-6.853,131.056-13.327,194.647-18.47a1652.422,1652.422,0,0,1,168.182-4.577,2795.864,2795.864,0,0,1,390.391,36.142c98.174,16.284,161.093,32.752,171.726,36.6Z" transform="translate(-959.988 -841.197)" fill="url(#linear-gradient-2)"/>
              </g>
              <g id="Group_13094" data-name="Group 13094" transform="translate(22.312 67.978)">
                <path id="Path_9721" data-name="Path 9721" d="M3385.895,948.426c-13.59-4.909-82.526-21.074-180.308-36.188-88.458-13.673-226.907-30.553-384.152-33.328-59.295-1.044-115.674.82-167.58,5.546-36,3.278-72.49,6.824-111.122,10.578-202.679,19.7-432.4,42.022-641.074,28.137-46.631-3.1-92.964-8.4-141.65-16.2-179.742-28.786-368.377-55.825-530.2-58.746-101.438-1.825-213.158,7.134-266.771,16.5l-.82-.72c53.824-9.4,165.929-18.406,267.683-16.564,162.126,2.926,350.958,29.991,530.87,58.8,48.547,7.775,94.741,13.057,141.223,16.15,208.261,13.856,437.767-8.447,640.252-28.124,38.64-3.755,75.131-7.3,111.15-10.582,52.087-4.742,108.658-6.617,168.127-5.564,157.521,2.779,296.2,19.687,384.8,33.382,98.025,15.152,167.253,31.4,180.934,36.342Z" transform="translate(-962.22 -847.198)" fill="url(#linear-gradient-2)"/>
              </g>
              <g id="Group_13095" data-name="Group 13095" transform="translate(26.803 72.636)">
                <path id="Path_9722" data-name="Path 9722" d="M3388.615,966.167c-13.913-5.027-83.773-20.72-189.475-35.9-89.374-12.839-227.6-28.57-378.585-30.6-60.541-.813-116.9,1.383-167.493,6.53-153.529,15.619-366.775,37.311-569.389,37.313-63.744,0-126.419-2.146-185.873-7.3a1310.7,1310.7,0,0,1-139.5-19.612c-203.1-40.01-380.307-61.074-526.69-62.608-104.71-1.1-209.2,8.481-266.334,18.46l-.821-.72c57.342-10.014,162.218-19.622,267.208-18.528,146.683,1.536,324.173,22.629,527.542,62.693a1306.586,1306.586,0,0,0,139.035,19.547c247.95,21.511,552.678-9.489,754.319-30,50.782-5.166,107.319-7.368,168.071-6.555,151.246,2.033,289.695,17.789,379.208,30.647,105.968,15.222,176.132,31,190.147,36.066Z" transform="translate(-964.451 -853.108)" fill="url(#linear-gradient-2)"/>
              </g>
              <g id="Group_13096" data-name="Group 13096" transform="translate(31.295 77.218)">
                <path id="Path_9723" data-name="Path 9723" d="M3391.337,983.888c-16.183-5.847-90.507-21.2-198.644-35.6-90.187-12-228.111-26.587-373.016-27.894-62-.56-118.322,1.969-167.409,7.514-127.374,14.388-255.007,24.5-369.1,29.244-150.871,6.272-281.828,3.6-389.224-7.942-48.994-5.266-95.208-13.015-137.356-23.03-126.28-30.007-319.554-65.9-523.182-66.468-90.461-.254-192.318,7.572-265.9,20.423l-.822-.72c73.829-12.894,176.044-20.762,266.734-20.491,204.088.573,397.718,36.524,524.211,66.582,41.99,9.978,88.031,17.7,136.846,22.943,107.152,11.517,237.853,14.18,388.477,7.919,113.981-4.739,241.5-14.842,368.758-29.217,49.286-5.568,105.819-8.1,168.017-7.545,145.157,1.309,283.294,15.914,373.616,27.936,109.612,14.589,182.567,29.7,199.358,35.765Z" transform="translate(-966.682 -858.92)" fill="url(#linear-gradient-2)"/>
              </g>
              <g id="Group_13097" data-name="Group 13097" transform="translate(35.789 81.706)">
                <path id="Path_9724" data-name="Path 9724" d="M3394.054,1001.584c-41.757-15.089-324.6-59.394-575.256-60.478-63.611-.271-119.936,2.584-167.324,8.5-112.316,14.016-243.38,23.647-369.052,27.119-150.541,4.159-286.209-.865-392.342-14.526-50.75-6.531-96.24-15.43-135.208-26.447-160.716-45.439-341.824-70.347-510.98-70.347-2.909,0-5.795.007-8.7.022-91.178.463-185.454,8.413-265.462,22.386l-.819-.72c80.251-14.016,174.81-21.99,266.257-22.454,172.065-.861,357.052,24.155,520.881,70.474,38.8,10.97,84.1,19.831,134.656,26.338,224.158,28.854,543.3,14.464,760.154-12.6,47.6-5.939,104.1-8.819,167.958-8.534,251.125,1.086,534.7,45.545,576.6,60.687Z" transform="translate(-968.914 -864.615)" fill="url(#linear-gradient-2)"/>
              </g>
              <g id="Group_13098" data-name="Group 13098" transform="translate(40.281 86.08)">
                <path id="Path_9725" data-name="Path 9725" d="M3396.774,1019.25c-29.159-10.537-158.884-30.691-305.527-43.9-106.068-9.555-304.344-22.789-440.564-4.085-126.006,17.3-302.32,26.912-460.166,25.092-89.71-1.037-171.506-5.523-243.118-13.332-79.853-8.709-145.2-21.406-194.232-37.741-106.985-35.644-231.819-59.633-361.007-69.374a1756.218,1756.218,0,0,0-206.8-3.355,1659.659,1659.659,0,0,0-213.4,22.9l-.819-.72a1664.147,1664.147,0,0,1,213.995-22.96,1761.96,1761.96,0,0,1,207.4,3.364c129.528,9.768,254.683,33.816,361.931,69.548,48.805,16.26,113.9,28.9,193.467,37.583,71.455,7.793,153.09,12.268,242.639,13.3,157.582,1.824,333.646-7.777,459.438-25.048,136.7-18.768,335.405-5.512,441.681,4.061,146.956,13.237,277.093,33.484,306.441,44.088Z" transform="translate(-971.145 -870.165)" fill="url(#linear-gradient-2)"/>
              </g>
            </g>
            <path id="Path_9726" data-name="Path 9726" d="M3380.988,987.13c-275.2-99.446-783.539-34.144-1098.194-28.4-488.318,8.909-839.765-180.686-1327.707-95.466v157.727h2425.9Z" transform="translate(-947.136 -625.152)" fill="url(#linear-gradient-12)"/>
            <path id="Path_9727" data-name="Path 9727" d="M2956.808,900.108c-18.366-3.814-37.354-7.162-56.742-10.1-20.767-3.144-41.992-5.817-63.472-8.11-23.639-2.524-47.59-4.588-71.691-6.306q-40.045-2.854-80.555-4.553-45.016-1.955-90.27-2.885-50.377-1.1-100.844-1.3-56.133-.284-112.27.2-62.3.482-124.549,1.609-68.877,1.2-137.686,2.938-75.875,1.876-151.675,4.181c-46.573,1.4-93.252,2.277-139.967,2.331-38.638.043-77.3-.46-115.8-1.751-31.4-1.053-62.713-2.629-93.674-4.951-25.221-1.892-50.227-4.278-74.677-7.36-19.415-2.446-38.495-5.333-56.861-8.812-14.6-2.766-28.766-5.907-42.1-9.527-10.254-2.784-20.027-5.852-28.984-9.257a162.011,162.011,0,0,1-18.529-8.254,74.761,74.761,0,0,1-10.047-6.283,26.55,26.55,0,0,1-3.95-3.533c-.131-.152-.258-.3-.372-.458,1.715.988,3.666,1.916,5.643,2.823,5.551,2.55,11.661,4.914,18.056,7.138,10.073,3.5,20.927,6.659,32.26,9.508,15.362,3.862,31.632,7.161,48.419,9.963,21.267,3.548,43.375,6.3,65.862,8.388,28.193,2.617,56.986,4.191,85.881,4.961,35.515.946,71.206.68,106.668-.461,43.9-1.412,87.5-4.165,130.52-7.84,52.347-4.47,103.9-10.307,154.61-17.063q78.864-10.508,154.95-23.905,69.013-12.178,135.215-26.623,62.973-13.713,123.168-29.271,56.858-14.674,111.1-30.829,50.041-14.888,97.761-30.925,43.642-14.656,85.261-30.2,36.53-13.643,71.417-27.941,29.7-12.176,58.093-24.824,22.393-9.987,43.856-20.288c10.022-4.82,19.878-9.7,29.483-14.645,5.017-2.585,9.982-5.188,14.8-7.832q.882-.484,1.75-.969Z" transform="translate(-514.438 -567.084)" fill="url(#linear-gradient-13)"/>
            <path id="Path_9728" data-name="Path 9728" d="M955.087,706.822C1239.7,693.7,1526.7,729.958,1760.525,791.931c261.888,69.412,557.983,74.494,808.77-7.115-124.839,83.422-522.681,102.89-724.035,58.816-105.831-23.165-189.038-59.642-293.568-83.878-180.393-41.824-390.584-50.4-596.605-45.186Z" transform="translate(-947.136 -596.121)" fill="url(#linear-gradient-2)"/>
          </g>
          <g id="Group_13124" data-name="Group 13124" transform="translate(6.346)">
            <path id="Path_9729" data-name="Path 9729" d="M961.471,180.847c271.742-44.13,595.358-53.732,882.1-31.88,346.052,26.372,680.4,82.824,1040.168,61.841,158.508-9.245,354.7-32.88,502.977,4.6V77.109H961.471Z" transform="translate(-947.013 34.104)" fill="url(#linear-gradient-15)"/>
            <path id="Path_9730" data-name="Path 9730" d="M2643.66,240.515c-43.891,6.281-91.544,10.2-139.5,12.717-51.326,2.692-103.671,3.767-155.782,3.442-49.2-.306-98.583-1.836-146.526-5.151-59.746-4.13-118.155-9.776-176.021-15.738-57.982-5.973-115.547-12.3-173.964-17.908q-86.888-8.342-176.515-13.8c-59.74-3.54-120.275-5.963-181.105-7.1-60.619-1.137-121.541-1-182.05.6-59.355,1.563-118.549,4.465-176.078,9.053-52.884,4.217-104.951,10.115-150.329,19.256-10.973,2.211-21.515,4.605-31.495,7.189,69.6-3.506,140.241-5.206,210.852-5.168,70.642.038,141.163,1.847,210.8,5.31,68.248,3.393,136.4,7.576,201.51,14.587,57.7,6.212,112.413,14.519,166.241,23.155,53.756,8.625,106.868,17.631,162.168,25.4,54.064,7.591,110.492,13.983,169.5,17.345,53.581,3.052,108.712,3.666,163.006,2.112,54.523-1.559,108.37-5.307,159.367-11.176,50.653-5.83,98.607-13.781,140.883-23.845,19.954-4.751,37.855-10.039,55.52-15.5,16.379-5.059,34.011-10.308,44.495-16.653C2642.717,246.159,2645.894,243.272,2643.66,240.515Z" transform="translate(-954.29 8.87)" fill="url(#linear-gradient-16)"/>
            <g id="Group_13123" data-name="Group 13123" transform="translate(577.982)">
              <g id="Group_13101" data-name="Group 13101" transform="translate(0 125.806)">
                <path id="Path_9731" data-name="Path 9731" d="M3247.9,392.683c-229.448-20.934-448.23-62.324-632.7-119.695-25.44-7.911-50.689-16.266-75.107-24.346-46.951-15.536-95.5-31.6-147.428-45.181-92.2-24.11-181.289-36.082-264.788-35.625-48.032.271-95.76,4.705-141.916,8.993-20.552,1.909-41.8,3.884-62.83,5.468-120.041,9.048-247.473,5.746-368.519-9.545s-229.363-41.775-313.25-76.585l1.466-.541c83.654,34.715,191.681,61.125,312.4,76.377s247.8,18.544,367.518,9.522c20.987-1.581,42.216-3.554,62.748-5.461,46.262-4.3,94.1-8.741,142.353-9.014,83.95-.458,173.39,11.558,265.931,35.758,52.022,13.6,100.618,29.684,147.614,45.234,24.405,8.075,49.643,16.426,75.057,24.33,184.236,57.3,402.743,98.637,631.9,119.545Z" transform="translate(-1241.367 -95.625)" fill="url(#linear-gradient-17)"/>
              </g>
              <g id="Group_13102" data-name="Group 13102" transform="translate(1.959 120.1)">
                <path id="Path_9732" data-name="Path 9732" d="M3247.493,378.769C3017.709,356.517,2799.013,316.14,2615.042,262c-25.467-7.5-50.782-15.407-75.26-23.054-29.4-9.184-59.8-18.682-90.624-27.517-20.771-5.954-39.925-11.092-58.548-15.709C2298,172.754,2208.981,161.278,2125.949,161.6c-47.477.188-94.679,4.247-140.327,8.173-20.852,1.794-42.415,3.648-63.738,5.111a1883.368,1883.368,0,0,1-349.869-9.292,1660.828,1660.828,0,0,1-177.085-31.071C1338.475,121.333,1287.136,106,1242.34,88.95l1.405-.565c44.682,17.007,95.9,32.3,152.218,45.463a1656.754,1656.754,0,0,0,176.648,30.995,1878.286,1878.286,0,0,0,348.925,9.269c21.281-1.46,42.822-3.313,63.654-5.1,45.749-3.934,93.056-8,140.74-8.191,83.475-.331,172.814,11.191,265.758,34.241,18.662,4.626,37.851,9.775,58.661,15.739,30.854,8.845,61.274,18.347,90.688,27.536,24.468,7.644,49.772,15.549,75.218,23.041,183.753,54.074,402.2,94.405,631.721,116.632Z" transform="translate(-1242.34 -88.385)" fill="url(#linear-gradient-17)"/>
              </g>
              <g id="Group_13103" data-name="Group 13103" transform="translate(3.922 114.393)">
                <path id="Path_9733" data-name="Path 9733" d="M3247.081,364.854c-230.682-23.654-449.292-63.019-632.2-113.839-25.455-7.081-50.788-14.536-75.289-21.745-29.906-8.8-60.829-17.9-92.11-26.357-20.9-5.649-40.174-10.533-58.932-14.932-93.022-21.825-182-32.812-264.538-32.611-46.877.1-93.507,3.793-138.6,7.359-21.2,1.676-43.12,3.41-64.781,4.749a1894.274,1894.274,0,0,1-347.684-11.04,1776.424,1776.424,0,0,1-175.982-31.284c-55.469-12.775-108.6-27.79-153.652-43.42l1.335-.59c44.956,15.6,97.979,30.58,153.337,43.33a1772.432,1772.432,0,0,0,175.576,31.213A1889.065,1889.065,0,0,0,1920.318,166.7c21.619-1.336,43.518-3.068,64.695-4.743,45.191-3.573,91.921-7.269,138.99-7.374,82.978-.207,172.242,10.823,265.585,32.724,18.8,4.407,38.108,9.3,59.041,14.959,31.315,8.467,62.254,17.571,92.174,26.375,24.49,7.206,49.812,14.657,75.246,21.732,182.708,50.766,401.092,90.09,631.542,113.719Z" transform="translate(-1243.315 -81.144)" fill="url(#linear-gradient-17)"/>
              </g>
              <g id="Group_13104" data-name="Group 13104" transform="translate(5.889 108.686)">
                <path id="Path_9734" data-name="Path 9734" d="M3246.667,350.939c-232.379-25.177-450.9-63.53-631.947-110.911-25.388-6.657-50.692-13.652-75.166-20.418-30.458-8.421-61.952-17.128-93.745-25.215-21.053-5.353-40.456-9.983-59.317-14.154-93.425-20.684-182.347-31.125-264.413-31.1-46.226.024-92.239,3.342-136.736,6.552-21.591,1.557-43.919,3.168-65.965,4.378-114.247,6.255-233.722,1.833-345.5-12.788-56.458-7.377-115.3-17.975-174.878-31.5-54.93-12.468-108.426-26.736-154.707-41.265l1.26-.615c46.2,14.5,99.612,28.75,154.457,41.2,59.464,13.5,118.177,24.071,174.506,31.431,111.49,14.582,230.645,18.994,344.584,12.755,22-1.209,44.309-2.818,65.88-4.373,44.585-3.216,90.687-6.541,137.1-6.564h.533c82.231,0,171.339,10.5,264.874,31.207,18.9,4.179,38.334,8.817,59.423,14.179,31.825,8.1,63.338,16.807,93.81,25.232,24.462,6.763,49.755,13.756,75.125,20.407,180.866,47.335,399.188,85.651,631.365,110.806Z" transform="translate(-1244.292 -73.903)" fill="url(#linear-gradient-17)"/>
              </g>
              <g id="Group_13105" data-name="Group 13105" transform="translate(7.86 102.979)">
                <path id="Path_9735" data-name="Path 9735" d="M3246.254,337.024c-238.628-27.264-451.161-63.6-631.7-107.983-25.269-6.227-50.49-12.759-74.878-19.076-31.065-8.046-63.188-16.367-95.546-24.087-21.2-5.054-40.729-9.429-59.7-13.376-93.835-19.544-182.756-29.5-264.3-29.6h-1.271c-45.09,0-89.988,2.925-133.423,5.753-22.042,1.436-44.831,2.921-67.322,4-114.242,5.458-232.957.43-343.315-14.535-54.557-7.39-111.4-17.763-173.775-31.711-53.569-11.978-107.429-25.5-155.76-39.11l1.176-.639c48.274,13.592,102.074,27.1,155.582,39.065,62.266,13.924,119,24.277,173.435,31.65,110.071,14.928,228.475,19.94,342.414,14.5,22.447-1.077,45.215-2.561,67.235-4,43.923-2.861,89.3-5.828,135.032-5.764,81.868.1,171.105,10.084,265.23,29.69,19.01,3.953,38.574,8.336,59.8,13.4,32.393,7.729,64.531,16.053,95.613,24.1,24.379,6.315,49.588,12.844,74.839,19.067,180.375,44.348,392.737,80.649,631.184,107.893Z" transform="translate(-1245.271 -66.662)" fill="url(#linear-gradient-17)"/>
              </g>
              <g id="Group_13106" data-name="Group 13106" transform="translate(9.835 97.272)">
                <path id="Path_9736" data-name="Path 9736" d="M3245.836,323.109c-243.455-29.282-455.9-64.628-631.444-105.055-25.068-5.79-50.118-11.849-74.343-17.71-31.754-7.681-64.586-15.624-97.594-22.986-21.341-4.754-40.993-8.875-60.086-12.6-94.234-18.4-183.116-27.855-264.173-28.09-44.8-.139-89.34,2.46-132.465,4.967-22.551,1.311-45.874,2.666-68.87,3.611-114.237,4.652-232.2-.977-341.131-16.284-52.129-7.314-107-17.458-172.67-31.923-49.747-10.957-102.5-23.391-156.808-36.956l1.083-.664c54.273,13.557,107,25.983,156.712,36.933,65.573,14.444,120.341,24.57,172.362,31.869,108.647,15.266,226.3,20.884,340.243,16.241,22.954-.942,46.252-2.3,68.785-3.607,43.2-2.511,87.908-5.118,132.775-4.975,81.365.236,170.543,9.715,265.057,28.173,19.125,3.729,38.809,7.856,60.18,12.618,33.039,7.369,65.89,15.315,97.657,23,24.217,5.858,49.26,11.915,74.308,17.7,175.406,40.4,387.709,75.717,631.011,104.981Z" transform="translate(-1246.252 -59.421)" fill="url(#linear-gradient-17)"/>
              </g>
              <g id="Group_13107" data-name="Group 13107" transform="translate(11.814 91.566)">
                <path id="Path_9737" data-name="Path 9737" d="M3245.416,309.2c-258.607-32.692-459.17-65.144-631.184-102.129-24.754-5.339-49.524-10.915-73.479-16.307-32.549-7.328-66.206-14.906-99.978-21.919-21.468-4.454-41.247-8.32-60.468-11.82-95.964-17.507-182.336-26.2-264.051-26.583-43.887-.21-87.657,2.029-129.987,4.192-23.147,1.182-47.086,2.405-70.668,3.207-114.242,3.845-231.447-2.39-338.948-18.03-62.444-9.071-121.769-21.336-171.566-32.137-31.79-6.9-63.229-13.871-93.632-20.617q-33.966-7.537-64.219-14.184l.983-.688q30.287,6.622,64.229,14.187c30.4,6.745,61.834,13.72,93.616,20.613,49.731,10.787,108.974,23.035,171.292,32.087,107.224,15.6,224.13,21.817,338.071,17.984,23.542-.8,47.456-2.022,70.583-3.2,42.4-2.167,86.249-4.4,130.268-4.2,82.007.381,168.651,9.1,264.878,26.657,19.251,3.5,39.063,7.377,60.563,11.838,33.8,7.02,67.475,14.6,100.039,21.932,23.946,5.39,48.707,10.964,73.442,16.3,171.9,36.96,372.352,69.393,630.833,102.069Z" transform="translate(-1247.235 -52.181)" fill="url(#linear-gradient-17)"/>
              </g>
              <g id="Group_13108" data-name="Group 13108" transform="translate(13.799 85.861)">
                <path id="Path_9738" data-name="Path 9738" d="M3245,295.28c-198.145-26.286-428.059-58.629-630.935-99.2-24.3-4.879-48.654-9.959-72.206-14.873-33.48-6.985-68.1-14.209-102.763-20.884-21.595-4.154-41.5-7.766-60.851-11.043-96.362-16.352-182.693-24.554-263.934-25.075-42.962-.279-85.792,1.608-127.237,3.434-23.834,1.05-48.475,2.136-72.738,2.788-114.241,3.031-230.692-3.809-336.76-19.777-59.118-8.885-116.626-20.853-170.463-32.35-59.365-12.677-112.3-23.884-158.89-32.648l.87-.71c46.637,8.772,99.594,19.984,158.985,32.666,53.778,11.485,111.219,23.439,170.219,32.306,105.8,15.928,221.948,22.751,335.9,19.727,24.216-.65,48.837-1.735,72.647-2.784,41.509-1.829,84.423-3.718,127.5-3.439,81.508.523,168.093,8.746,264.7,25.14,19.38,3.282,39.317,6.9,60.942,11.059,34.691,6.681,69.325,13.908,102.819,20.9,23.544,4.913,47.889,9.992,72.178,14.868,202.761,40.547,432.585,72.877,630.66,99.155Z" transform="translate(-1248.221 -44.942)" fill="url(#linear-gradient-17)"/>
              </g>
              <g id="Group_13109" data-name="Group 13109" transform="translate(15.785 80.155)">
                <path id="Path_9739" data-name="Path 9739" d="M3244.573,281.365l-35.892-4.987c-200.295-27.816-407.409-56.581-594.785-91.284-23.675-4.4-47.43-8.976-70.4-13.4-34.585-6.658-70.346-13.541-106.083-19.891-21.72-3.854-41.75-7.212-61.236-10.264-96.745-15.2-183.04-22.906-263.815-23.567-41.859-.349-83.692,1.2-124.136,2.7-24.633.911-50.1,1.853-75.156,2.347-114.253,2.207-229.945-5.235-334.576-21.525-55.673-8.652-109.664-20.008-161.878-30.989l-7.48-1.574c-42.956-9.028-106.271-22.011-159.929-30.494l.755-.731c53.748,8.5,117.128,21.494,160.124,30.532l7.484,1.573c52.163,10.971,106.1,22.316,161.667,30.951,104.369,16.249,219.775,23.673,333.732,21.47,25.008-.493,50.456-1.434,75.065-2.345,40.5-1.5,82.388-3.047,124.372-2.7,81.021.664,167.545,8.391,264.52,23.624,19.513,3.057,39.57,6.419,61.32,10.277,35.765,6.355,71.54,13.242,106.137,19.9,22.968,4.422,46.715,8.993,70.376,13.394,187.286,34.686,394.35,63.444,594.6,91.254l35.892,4.987Z" transform="translate(-1249.207 -37.703)" fill="url(#linear-gradient-17)"/>
              </g>
              <g id="Group_13110" data-name="Group 13110" transform="translate(17.778 74.452)">
                <path id="Path_9740" data-name="Path 9740" d="M3244.147,267.45c-61.032-8.882-123.689-17.709-184.28-26.245-149.321-21.037-303.726-42.79-446.143-67.1-22.8-3.911-45.708-7.958-67.863-11.872-35.928-6.347-73.078-12.91-110.129-18.949-21.851-3.555-42.008-6.658-61.624-9.486-97.123-14.042-183.378-21.258-263.694-22.059-40.665-.41-81.313.808-120.623,1.985-25.57.765-52.01,1.557-77.991,1.881-114.267,1.385-229.2-6.666-332.389-23.272-48.374-7.77-95.569-17.621-141.211-27.148q-13.521-2.822-27.045-5.628C1345.42,45.964,1292.771,36.693,1250.2,31.216l.628-.749c42.681,5.491,95.434,14.779,161.27,28.4q13.532,2.8,27.051,5.629c45.6,9.518,92.748,19.359,141.03,27.115,102.93,16.564,217.583,24.593,331.56,23.213,25.936-.324,52.355-1.115,77.9-1.88,39.358-1.179,80.058-2.4,120.826-1.987,80.542.8,167.008,8.035,264.34,22.108,19.642,2.832,39.824,5.939,61.7,9.5,37.08,6.044,74.244,12.609,110.186,18.957,22.15,3.913,45.054,7.96,67.841,11.868,142.357,24.3,296.729,46.047,446.016,67.079,60.6,8.537,123.263,17.365,184.3,26.249Z" transform="translate(-1250.197 -30.467)" fill="url(#linear-gradient-17)"/>
              </g>
              <g id="Group_13111" data-name="Group 13111" transform="translate(19.771 68.75)">
                <path id="Path_9741" data-name="Path 9741" d="M3243.718,253.537c-98.685-15.015-200.8-29.129-299.558-42.779-110.049-15.211-223.849-30.94-330.6-47.639-21.6-3.4-43.337-6.9-64.356-10.285-37.593-6.057-76.462-12.32-115.152-18.065-21.99-3.258-42.272-6.107-62.007-8.708-97.483-12.887-183.7-19.609-263.58-20.551-39.278-.466-78.572.434-116.578,1.305-26.681.611-54.271,1.244-81.353,1.384-115.918.556-227.005-7.863-330.2-25.02-42.6-7.069-84.357-15.783-124.734-24.21-13.886-2.9-28.243-5.894-42.417-8.778C1348.96,37.126,1294.462,28.312,1251.187,24l.5-.764c43.421,4.332,98.067,13.166,162.417,26.258,14.184,2.886,28.547,5.884,42.435,8.782,40.339,8.419,82.052,17.125,124.575,24.18,102.942,17.113,213.784,25.523,329.391,24.957,27.035-.14,54.6-.772,81.264-1.383,38.044-.872,77.386-1.773,116.753-1.306,80.081.944,166.489,7.68,264.162,20.593,19.759,2.6,40.065,5.456,62.077,8.718,38.718,5.749,77.6,12.015,115.2,18.073,21.015,3.387,42.75,6.888,64.34,10.283,106.717,16.692,220.492,32.419,330.524,47.627,98.771,13.652,200.9,27.769,299.617,42.788Z" transform="translate(-1251.187 -23.232)" fill="url(#linear-gradient-17)"/>
              </g>
              <g id="Group_13112" data-name="Group 13112" transform="translate(21.768 63.05)">
                <path id="Path_9742" data-name="Path 9742" d="M3243.289,239.623c-128.648-20.441-262.968-38.2-392.866-55.368-78.54-10.382-159.75-21.118-237.038-32.123-19.872-2.844-39.9-5.768-59.271-8.594-39.771-5.8-80.9-11.8-121.75-17.287-22.094-2.959-42.5-5.553-62.393-7.93-97.816-11.732-184-17.961-263.463-19.043-37.669-.515-75.391.085-111.871.666-28.013.446-56.979.912-85.379.846-115.922-.3-226.282-9.3-328.016-26.767-37.927-6.5-75.222-14.323-111.291-21.891-17.9-3.755-36.4-7.638-54.759-11.311-63.979-12.8-118.827-20.892-163.014-24.046l.363-.775c44.38,3.168,99.412,11.282,163.569,24.119C1434.48,43.795,1453,47.68,1470.9,51.437c36.035,7.56,73.293,15.378,111.148,21.863,101.482,17.42,211.575,26.4,327.221,26.7,28.35.061,57.3-.4,85.285-.846,36.52-.582,74.281-1.183,112.024-.666,79.646,1.084,166,7.324,263.98,19.077,19.912,2.379,40.343,4.976,62.458,7.938,40.879,5.486,82.017,11.489,121.8,17.294,19.366,2.826,39.391,5.749,59.256,8.592,77.264,11,158.466,21.735,236.991,32.116,129.924,17.175,264.272,34.935,392.98,55.385Z" transform="translate(-1252.179 -16)" fill="url(#linear-gradient-17)"/>
              </g>
              <g id="Group_13113" data-name="Group 13113" transform="translate(23.768 57.351)">
                <path id="Path_9743" data-name="Path 9743" d="M3242.86,225.709c-153.028-25.368-314.448-45.33-470.558-64.634-52.508-6.493-106.8-13.206-159.088-19.93q-26.071-3.372-51.9-6.773c-42.7-5.6-86.865-11.384-130.635-16.64-22.2-2.661-42.739-5-62.778-7.152C2269.768,100,2183.628,94.268,2104.554,93.046c-35.761-.555-71.618-.233-106.3.08-29.63.266-60.271.541-90.272.255-115.938-1.158-225.564-10.751-325.832-28.514-34.055-6.022-67.634-13.134-100.1-20.011-21.152-4.48-43.027-9.113-64.84-13.4-63.039-12.4-119.763-19.973-164.038-21.9l.221-.783c44.511,1.936,101.472,9.537,164.723,21.979,21.838,4.3,43.726,8.931,64.892,13.414,32.441,6.87,65.985,13.975,99.976,19.986,100.022,17.718,209.385,27.288,325.053,28.444,29.948.288,60.567.012,90.175-.255,34.706-.312,70.6-.636,106.421-.079,79.229,1.224,165.518,6.968,263.8,17.562,20.057,2.154,40.611,4.5,62.834,7.159,43.8,5.259,87.967,11.048,130.684,16.647q25.851,3.388,51.892,6.772c52.272,6.721,106.564,13.434,159.063,19.927,156.154,19.31,317.624,39.277,470.739,64.659Z" transform="translate(-1253.172 -8.769)" fill="url(#linear-gradient-17)"/>
              </g>
              <g id="Group_13114" data-name="Group 13114" transform="translate(25.767 51.655)">
                <path id="Path_9744" data-name="Path 9744" d="M3242.43,211.8c-173.159-29.921-357.965-50.848-536.685-71.086-30.5-3.454-62.041-7.025-92.7-10.551q-20.451-2.368-40.762-4.74c-46.876-5.465-95.351-11.115-143.287-16.205-22.259-2.358-42.918-4.443-63.162-6.374-98.4-9.421-184.5-14.662-263.231-16.025-33.484-.582-67.094-.509-99.6-.439-31.627.069-64.322.14-96.29-.405-115.96-2.025-224.849-12.206-323.645-30.261-30.8-5.62-61.241-12.147-90.676-18.459-23.818-5.107-48.447-10.389-73.163-15.168-44-8.507-108.358-18.84-165.063-19.754l.083-.787c57.058.92,121.7,11.294,165.872,19.835,24.754,4.786,49.4,10.072,73.237,15.183,29.407,6.306,59.816,12.827,90.562,18.436,98.555,18.011,207.188,28.168,322.882,30.188,31.919.545,64.594.474,96.191.4,32.529-.07,66.166-.143,99.7.44,78.865,1.364,165.1,6.613,263.618,16.046,20.258,1.933,40.935,4.02,63.212,6.379,47.958,5.093,96.445,10.744,143.335,16.21q20.318,2.368,40.753,4.739c30.659,3.526,62.2,7.1,92.694,10.55,178.784,20.245,363.656,41.179,536.939,71.122Z" transform="translate(-1254.165 -1.542)" fill="url(#linear-gradient-17)"/>
              </g>
              <g id="Group_13115" data-name="Group 13115" transform="translate(27.708 45.932)">
                <path id="Path_9745" data-name="Path 9745" d="M3242.029,197.876c-189.921-34.179-395.284-55-593.885-75.134q-17.667-1.791-35.244-3.577l-22.529-2.308c-53.385-5.473-108.589-11.133-163.029-16.167-22.328-2.059-43.116-3.89-63.549-5.6-98.587-8.263-184.651-13.012-263.115-14.515-30.675-.591-61.511-.73-91.331-.864-34.136-.153-69.434-.311-103.88-1.159-115.978-2.9-224.132-13.668-321.459-32.008-28.031-5.275-55.781-11.315-82.615-17.155-26.022-5.664-52.929-11.52-80.119-16.685-44.088-8.376-108.69-18.223-166.09-17.612l-.056-.787c57.777-.631,122.735,9.277,167.026,17.69,27.24,5.175,54.171,11.037,80.217,16.706,26.81,5.835,54.531,11.869,82.51,17.134,97.091,18.3,204.994,29.039,320.712,31.931,34.394.846,69.665,1,103.773,1.157,29.842.135,60.7.273,91.409.865,78.572,1.506,164.743,6.259,263.437,14.532,20.447,1.707,41.249,3.538,63.589,5.6,54.467,5.036,109.681,10.7,163.078,16.172l22.529,2.308q17.568,1.786,35.24,3.576c198.686,20.144,404.136,40.974,594.221,75.182Z" transform="translate(-1255.129 5.719)" fill="url(#linear-gradient-17)"/>
              </g>
              <g id="Group_13116" data-name="Group 13116" transform="translate(29.57 39.95)">
                <path id="Path_9746" data-name="Path 9746" d="M3241.671,183.886c-203.713-38.149-429.587-58.144-628.871-75.785-66.524-5.929-126.516-11.226-187.073-16.007-22.354-1.76-43.265-3.335-63.936-4.817-98.649-7.1-184.677-11.356-263-13.006-27.13-.573-54.449-.871-80.868-1.159-37.376-.408-76.023-.829-113.661-2.042-116-3.778-223.417-15.135-319.272-33.754-25.644-4.973-51.064-10.6-75.647-16.04-27.856-6.166-56.661-12.54-85.983-18.012-44.209-8.248-109.094-17.626-167.119-15.471l-.189-.785c58.5-2.175,123.737,7.253,168.174,15.545,29.387,5.483,58.221,11.865,86.108,18.037,24.559,5.436,49.955,11.056,75.551,16.022,95.627,18.574,202.8,29.9,318.545,33.675,37.581,1.211,76.2,1.631,113.552,2.039,26.431.288,53.762.586,80.918,1.16,78.407,1.65,164.519,5.909,263.255,13.017,20.679,1.483,41.6,3.059,63.968,4.82,60.582,4.782,120.586,10.08,187.123,16.011,199.385,17.65,425.375,37.655,629.292,75.843Z" transform="translate(-1256.054 13.31)" fill="url(#linear-gradient-17)"/>
              </g>
              <g id="Group_13117" data-name="Group 13117" transform="translate(31.432 33.718)">
                <path id="Path_9747" data-name="Path 9747" d="M3241.31,169.829c-196.262-38.219-418.157-56.95-628.611-72.86-51.6-3.928-119.658-9.017-188.587-13.538-21.959-1.437-43.6-2.8-64.32-4.038-98.438-5.935-184.427-9.7-262.883-11.5-22.5-.518-45.2-.9-67.149-1.273-41.7-.705-84.818-1.435-126.7-3.106-116.018-4.667-222.7-16.611-317.086-35.5-23.568-4.711-46.963-9.983-69.585-15.083C1487,6.311,1456.621-.537,1425.448-6.248c-62.693-11.486-122.415-16.22-168.15-13.332l-.32-.779c32.634-2.059,88.506-1.41,169.323,13.4,31.251,5.726,61.671,12.582,91.091,19.213,22.6,5.095,45.972,10.362,69.5,15.065,94.162,18.845,200.606,30.762,316.375,35.419,41.823,1.669,84.912,2.4,126.582,3.1,21.959.371,44.668.755,67.179,1.274,78.522,1.8,164.572,5.565,263.072,11.5,20.727,1.244,42.379,2.6,64.346,4.04,68.953,4.523,137.031,9.613,188.637,13.542,210.591,15.92,432.635,34.665,629.124,72.928Z" transform="translate(-1256.979 21.216)" fill="url(#linear-gradient-17)"/>
              </g>
              <g id="Group_13118" data-name="Group 13118" transform="translate(33.299 27.297)">
                <path id="Path_9748" data-name="Path 9748" d="M3240.947,155.721c-201.279-40.728-429.879-57.455-628.35-69.934-68.18-4.317-130.361-7.938-190.1-11.07-21.679-1.133-43.45-2.23-64.7-3.26-97.482-4.745-183.435-8.012-262.769-9.986-16.145-.4-32.471-.766-48.264-1.118-47.744-1.063-97.113-2.162-144.906-4.44-116.042-5.562-221.99-18.094-314.9-37.248-21.746-4.477-43.353-9.444-64.25-14.245-30.663-7.047-62.373-14.334-95.17-20.232-62.914-11.315-123-15.29-169.182-11.194l-.445-.769c46.617-4.133,107.154-.138,170.469,11.247,32.89,5.914,64.642,13.212,95.35,20.268,20.876,4.8,42.461,9.758,64.167,14.228,92.7,19.109,198.408,31.612,314.207,37.162,47.728,2.275,97.067,3.373,144.779,4.436,15.793.352,32.123.716,48.272,1.118,79.378,1.975,165.369,5.243,262.891,9.991,21.261,1.029,43.037,2.126,64.725,3.261,59.758,3.132,121.958,6.754,190.153,11.073,198.625,12.489,427.411,29.23,628.953,70.012Z" transform="translate(-1257.906 29.363)" fill="url(#linear-gradient-17)"/>
              </g>
              <g id="Group_13119" data-name="Group 13119" transform="translate(35.169 20.674)">
                <path id="Path_9749" data-name="Path 9749" d="M3240.583,141.558c-194.6-40.891-416.881-56.371-628.092-67.009-61.555-3.122-126.022-6.016-191.613-8.6-21-.825-42.9-1.661-65.091-2.481-91.675-3.409-180.046-6.26-262.655-8.474q-10.325-.278-20.621-.549c-56.707-1.5-115.348-3.053-171.866-6.189-116.059-6.464-221.269-19.584-312.715-38.995C1567.8,4.991,1547.774.3,1528.41-4.247c-31.74-7.443-64.557-15.141-98.794-21.182-63.152-11.143-123.606-14.359-170.219-9.058l-.562-.757c47.074-5.354,108.021-2.123,171.609,9.1,34.341,6.06,67.213,13.77,99,21.225,19.346,4.537,39.351,9.228,59.446,13.491,91.232,19.366,196.217,32.455,312.036,38.906,56.446,3.132,112.441,4.614,171.719,6.183q10.3.272,20.625.549c82.627,2.215,171.014,5.066,262.706,8.477,22.191.82,44.094,1.655,65.1,2.481,65.611,2.586,130.1,5.481,191.669,8.6,211.4,10.647,433.9,26.145,628.787,67.1Z" transform="translate(-1258.835 37.766)" fill="url(#linear-gradient-17)"/>
              </g>
              <g id="Group_13120" data-name="Group 13120" transform="translate(37.043 13.901)">
                <path id="Path_9750" data-name="Path 9750" d="M3240.216,127.355c-196.761-42.908-427.79-56.474-627.83-64.085-58.173-2.227-119.542-4.176-193.127-6.133q-32.561-.863-65.478-1.7l-44.1-1.133c-71.56-1.836-145.558-3.735-218.443-5.831-62.033-1.786-127.943-3.869-191.806-7.915-116.075-7.375-220.551-21.081-310.527-40.741-18.7-4.083-37.317-8.544-55.32-12.856-32.634-7.818-66.382-15.9-101.891-22.046-63.41-10.973-124.23-13.43-171.26-6.923l-.67-.742c47.519-6.576,108.867-4.11,172.744,6.944,35.634,6.166,69.438,14.264,102.128,22.1,17.985,4.308,36.582,8.763,55.25,12.84,89.773,19.614,194.025,33.291,309.868,40.65,63.782,4.042,129.645,6.123,191.635,7.908,72.873,2.1,146.867,3.994,218.423,5.83l44.1,1.133q32.914.844,65.483,1.7c73.6,1.957,134.99,3.906,193.183,6.135,132.18,5.028,232.116,11.057,324.03,19.545,116.606,10.768,216.238,25.368,304.583,44.635Z" transform="translate(-1259.766 46.36)" fill="url(#linear-gradient-17)"/>
              </g>
              <g id="Group_13121" data-name="Group 13121" transform="translate(38.922 7.015)">
                <path id="Path_9751" data-name="Path 9751" d="M3239.847,113.122c-197.54-44.68-428.1-55.989-627.574-61.16-69.357-1.806-137.311-2.866-194.637-3.664l-12.2-.169q-26.736-.37-53.663-.753c-83.557-1.211-173.183-2.71-262.426-5.453-77.344-2.377-136.291-5.182-191.128-9.094-117.72-8.407-218.577-22.305-308.34-42.487-17.421-3.916-34.774-8.164-51.555-12.272-33.383-8.173-67.9-16.624-104.551-22.842-85.911-14.575-144.831-9.257-172.3-4.787l-.771-.728c27.77-4.515,87.284-9.9,173.875,4.792,36.788,6.242,71.373,14.708,104.818,22.9,16.765,4.105,34.1,8.35,51.491,12.258,89.561,20.136,190.21,34,307.7,42.4,54.767,3.907,113.651,6.708,190.922,9.083,89.207,2.741,178.806,4.24,262.343,5.452q26.92.388,53.659.753l12.2.169c57.34.8,125.314,1.858,194.7,3.665,199.708,5.176,430.547,16.5,628.446,61.264Z" transform="translate(-1260.699 55.097)" fill="url(#linear-gradient-17)"/>
              </g>
              <g id="Group_13122" data-name="Group 13122" transform="translate(40.804)">
                <path id="Path_9752" data-name="Path 9752" d="M3239.476,98.854c-109.039-25.567-238.747-42.209-396.536-50.879-137.092-7.532-280.172-8.343-426.929-8.552-153.3-.218-291.255-.992-427.207-8.3-158.224-8.5-288.394-24.954-397.949-50.293-16.274-3.764-32.491-7.824-48.175-11.751-34-8.511-69.158-17.313-106.827-23.576-86.277-14.346-145.642-7.82-173.354-2.654l-.864-.711c28.011-5.224,88-11.828,175,2.639,37.826,6.289,73.054,15.109,107.124,23.638,15.67,3.923,31.873,7.978,48.116,11.736,109.32,25.285,239.244,41.7,397.2,50.191,135.831,7.3,273.717,8.074,426.941,8.291,146.829.209,289.986,1.021,427.2,8.559,158.063,8.685,288.018,25.362,397.291,50.984Z" transform="translate(-1261.634 63.997)" fill="url(#linear-gradient-17)"/>
              </g>
            </g>
          </g>
        </g>
      </g>
    </g>
  </g>
</svg>
