<svg xmlns="http://www.w3.org/2000/svg" xmlns:xlink="http://www.w3.org/1999/xlink" width="2416.001" height="790.042" viewBox="0 0 2416.001 790.042">
  <defs>
    <clipPath id="clip-path">
      <path id="Path_9856" data-name="Path 9856" d="M0,0H2416V790.041H0Z" transform="translate(0 0)" fill="none"/>
    </clipPath>
    <linearGradient id="linear-gradient" y1="0.5" x2="1" y2="0.5" gradientUnits="objectBoundingBox">
      <stop offset="0.061" stop-color="#abe1ff"/>
      <stop offset="1" stop-color="#d7edfd" stop-opacity="0"/>
    </linearGradient>
    <linearGradient id="linear-gradient-12" y1="0.5" x2="1" y2="0.5" gradientUnits="objectBoundingBox">
      <stop offset="0" stop-color="#d7edfd" stop-opacity="0"/>
      <stop offset="0.938" stop-color="#19adff"/>
    </linearGradient>
    <clipPath id="clip-path-2">
      <ellipse id="Ellipse_544" data-name="Ellipse 544" cx="73.549" cy="127.39" rx="73.549" ry="127.39" transform="translate(0 73.552) rotate(-30.001)" fill="none"/>
    </clipPath>
  </defs>
  <g id="Group_13902" data-name="Group 13902" transform="translate(0 -5650.163)">
    <path id="two-business-partners-working-office" d="M0,0H2416V790.041H0Z" transform="translate(0 5650.164)" fill="#f5f8ff"/>
    <g id="Group_13127" data-name="Group 13127" transform="translate(-963.766 5533.383)" opacity="0.6">
      <g id="Mask_Group_5" data-name="Mask Group 5" transform="translate(963.767 116.78)" clip-path="url(#clip-path)">
        <g id="Group_13125" data-name="Group 13125" transform="translate(-25.426 -178.527)">
          <g id="Group_13100" data-name="Group 13100" transform="translate(0 758.583)">
            <g id="Group_13099" data-name="Group 13099" transform="translate(0 56.091)">
              <g id="Group_13089" data-name="Group 13089">
                <path id="Path_9716" data-name="Path 9716" d="M3372.183,869.637c-.443-.222-45.234-22.567-134.6-46.679-82.48-22.253-220.878-50.6-411.821-59.284-209.934-9.548-371.067,21.909-526.9,52.328-117.4,22.918-238.8,46.616-377.987,51.493-235.01,8.229-426.855-15.873-566.934-33.474-51.666-6.491-96.288-12.1-133.192-14.823-129.481-9.557-267.711,8.221-269.092,8.4l-.519-.955c1.385-.182,140.011-18.015,269.911-8.424,37.005,2.731,81.671,8.344,133.392,14.843,139.947,17.584,331.612,41.668,566.292,33.444,138.876-4.866,260.127-28.534,377.385-51.425,156.047-30.463,317.392-61.958,527.828-52.394,191.335,8.7,330.031,37.117,412.693,59.424,89.6,24.18,134.542,46.609,134.988,46.834Z" transform="translate(-951.138 -760.947)" fill="url(#linear-gradient)"/>
              </g>
              <g id="Group_13090" data-name="Group 13090" transform="translate(4.343 24.855)">
                <path id="Path_9717" data-name="Path 9717" d="M3375.017,890.63c-7.864-3.56-196.662-87.357-550.065-102.206a1586.608,1586.608,0,0,0-167.91,2.015c-118.779,7.867-227.78,26.8-333.2,45.1-128.018,22.232-260.392,45.22-406.75,47.033-47.555.586-96.694-.457-150.239-3.2-140.841-7.2-266.517-22.792-367.5-35.319-68.534-8.5-127.722-15.844-176.732-18.906-121.269-7.575-254.519,7.773-268.51,10.835l-.82-.9c14.063-3.077,147.922-18.515,269.583-10.912,49.134,3.069,108.376,10.418,176.974,18.928,100.918,12.518,226.518,28.1,367.214,35.294,53.458,2.734,102.513,3.776,149.978,3.19,146.039-1.809,272.378-23.748,406.129-46.977,105.513-18.323,214.615-37.269,333.6-45.151a1590.715,1590.715,0,0,1,168.351-2.021c354.084,14.877,543.376,98.9,551.26,102.464Z" transform="translate(-953.295 -786.116)" fill="url(#linear-gradient)"/>
              </g>
              <g id="Group_13091" data-name="Group 13091" transform="translate(8.835 49.592)">
                <path id="Path_9718" data-name="Path 9718" d="M3377.737,911.6c-1.878-.85-203.494-85.61-553.665-98.43a1480.75,1480.75,0,0,0-167.829,3.249c-103.193,7.992-202.918,23.425-299.356,38.351-136.573,21.135-277.647,42.965-427.3,42.967q-8.163,0-16.346-.087c-45.813-.493-94.254-2.936-148.091-7.468-110.373-9.292-212.356-22.273-302.334-33.725-92.384-11.76-172.17-21.915-238.391-25.35-123.933-6.426-250.34,9.41-268.077,13.293l-.819-.9c17.824-3.9,144.769-19.828,269.108-13.372,66.37,3.444,146.225,13.607,238.685,25.376,89.939,11.448,191.881,24.422,302.169,33.707,53.738,4.524,102.08,6.961,147.793,7.454,155.429,1.685,301.615-20.955,443-42.834,96.509-14.937,196.306-30.381,299.648-38.386a1485.323,1485.323,0,0,1,168.294-3.258c350.84,12.845,553,97.838,554.877,98.69Z" transform="translate(-955.526 -811.165)" fill="url(#linear-gradient)"/>
              </g>
              <g id="Group_13092" data-name="Group 13092" transform="translate(13.326 73.177)">
                <path id="Path_9719" data-name="Path 9719" d="M3380.457,932.562c-7.089-3.21-63.768-24.112-161.989-45.966-86.326-19.207-224.976-43.246-395.274-48.688a1395.029,1395.029,0,0,0-167.747,4.482c-85.14,7.588-171.292,19.567-254.608,31.152-158.965,22.1-323.337,44.956-491.463,39.172-45.914-1.581-92.289-5.312-145.938-11.743-72.9-8.737-142.162-18.28-209.147-27.508-126.9-17.483-236.492-32.582-328.073-36.413C1110.82,832.223,988,846.363,958.576,852.8l-.819-.9c30.564-6.689,151.268-20.744,268.633-15.834,91.77,3.84,201.448,18.95,328.447,36.448,66.97,9.227,136.218,18.766,209.079,27.5,53.537,6.416,99.8,10.14,145.6,11.716,167.763,5.772,331.973-17.058,490.772-39.138,83.362-11.59,169.563-23.576,254.8-31.174a1399.924,1399.924,0,0,1,168.238-4.5c170.6,5.452,309.5,29.534,395.977,48.774,98.464,21.909,155.393,42.912,162.522,46.14Z" transform="translate(-957.757 -835.046)" fill="url(#linear-gradient)"/>
              </g>
              <g id="Group_13093" data-name="Group 13093" transform="translate(17.818 79.251)">
                <path id="Path_9720" data-name="Path 9720" d="M3383.177,953.3c-10.568-4.784-73.217-25.316-171.147-45.669a2246.459,2246.459,0,0,0-389.715-45.21,1317.476,1317.476,0,0,0-167.664,5.716c-63.541,6.439-127.178,14.547-194.55,23.131-181.8,23.165-369.787,47.117-554.583,36.286-45.642-2.674-92.678-7.914-143.792-16.017q-36.023-5.709-71.469-11.416c-170.437-27.331-331.421-53.147-462.241-57.351-113.373-3.645-229.975,10.063-267.206,18.212l-.822-.9c44.954-9.838,163.153-21.667,268.158-18.3,131.074,4.213,292.175,30.046,462.737,57.4q35.421,5.679,71.461,11.416c50.992,8.083,97.9,13.309,143.414,15.977,184.431,10.8,372.223-13.121,553.838-36.262,67.4-8.587,131.056-16.7,194.647-23.142a1320.11,1320.11,0,0,1,168.182-5.735,2250.3,2250.3,0,0,1,390.391,45.286c98.174,20.4,161.093,41.039,171.726,45.854Z" transform="translate(-959.988 -841.197)" fill="url(#linear-gradient)"/>
              </g>
              <g id="Group_13094" data-name="Group 13094" transform="translate(22.312 85.177)">
                <path id="Path_9721" data-name="Path 9721" d="M3385.895,974.036c-13.59-6.151-82.526-26.405-180.308-45.343-88.458-17.132-226.907-38.283-384.152-41.761-59.295-1.307-115.674,1.027-167.58,6.949-36,4.107-72.49,8.55-111.122,13.254-202.679,24.68-432.4,52.653-641.074,35.256a1234.629,1234.629,0,0,1-141.65-20.3c-179.742-36.068-368.377-69.949-530.2-73.609-101.438-2.287-213.158,8.938-266.771,20.671l-.82-.9c53.824-11.779,165.929-23.063,267.683-20.754,162.126,3.666,350.958,37.579,530.87,73.681A1230.984,1230.984,0,0,0,1902,941.417c208.261,17.361,437.767-10.585,640.252-35.24,38.64-4.7,75.131-9.149,111.15-13.259,52.087-5.942,108.658-8.291,168.127-6.972,157.521,3.482,296.2,24.668,384.8,41.828,98.025,18.986,167.253,39.342,180.934,45.537Z" transform="translate(-962.22 -847.197)" fill="url(#linear-gradient)"/>
              </g>
              <g id="Group_13095" data-name="Group 13095" transform="translate(26.803 91.013)">
                <path id="Path_9722" data-name="Path 9722" d="M3388.615,994.771c-13.913-6.3-83.773-25.962-189.475-44.988-89.374-16.087-227.6-35.8-378.585-38.341-60.541-1.019-116.9,1.733-167.493,8.182-153.529,19.57-366.775,46.751-569.389,46.753-63.744,0-126.419-2.689-185.873-9.153a1063.879,1063.879,0,0,1-139.5-24.574c-203.1-50.133-380.307-76.526-526.69-78.448-104.71-1.374-209.2,10.626-266.334,23.13l-.821-.9c57.342-12.548,162.218-24.586,267.208-23.215,146.683,1.925,324.173,28.355,527.542,78.554a1060.535,1060.535,0,0,0,139.035,24.492c247.95,26.953,552.678-11.889,754.319-37.592,50.782-6.473,107.319-9.232,168.071-8.214,151.246,2.548,289.695,22.289,379.208,38.4,105.968,19.074,176.132,38.844,190.147,45.19Z" transform="translate(-964.451 -853.108)" fill="url(#linear-gradient)"/>
              </g>
              <g id="Group_13096" data-name="Group 13096" transform="translate(31.295 96.754)">
                <path id="Path_9723" data-name="Path 9723" d="M3391.337,1015.505c-16.183-7.327-90.507-26.569-198.644-44.6-90.187-15.041-228.111-33.314-373.016-34.951-62-.7-118.322,2.467-167.409,9.415-127.374,18.028-255.007,30.7-369.1,36.642-150.871,7.859-281.828,4.511-389.224-9.952-48.994-6.6-95.208-16.307-137.356-28.856-126.28-37.6-319.554-82.568-523.182-83.284-90.461-.318-192.318,9.487-265.9,25.59l-.822-.9c73.829-16.156,176.044-26.015,266.734-25.675,204.088.718,397.718,45.764,524.211,83.427,41.99,12.5,88.031,22.174,136.846,28.748,107.152,14.431,237.853,17.768,388.477,9.923,113.981-5.938,241.5-18.6,368.758-36.609,49.286-6.976,105.819-10.154,168.017-9.454,145.157,1.64,283.294,19.941,373.616,35,109.612,18.28,182.567,37.209,199.358,44.813Z" transform="translate(-966.682 -858.92)" fill="url(#linear-gradient)"/>
              </g>
              <g id="Group_13097" data-name="Group 13097" transform="translate(35.789 102.377)">
                <path id="Path_9724" data-name="Path 9724" d="M3394.054,1036.238c-41.757-18.907-324.6-74.421-575.256-75.779-63.611-.34-119.936,3.238-167.324,10.648-112.316,17.562-243.38,29.63-369.052,33.98-150.541,5.211-286.209-1.083-392.342-18.2-50.75-8.184-96.24-19.333-135.208-33.138-160.716-56.935-341.824-88.145-510.98-88.145-2.909,0-5.795.009-8.7.028-91.178.58-185.454,10.541-265.462,28.049l-.819-.9c80.251-17.562,174.81-27.554,266.257-28.134,172.065-1.078,357.052,30.266,520.881,88.3,38.8,13.746,84.1,24.849,134.656,33,224.158,36.153,543.3,18.124,760.154-15.783,47.6-7.441,104.1-11.05,167.958-10.693,251.125,1.361,534.7,57.068,576.6,76.041Z" transform="translate(-968.914 -864.615)" fill="url(#linear-gradient)"/>
              </g>
              <g id="Group_13098" data-name="Group 13098" transform="translate(40.281 107.858)">
                <path id="Path_9725" data-name="Path 9725" d="M3396.774,1056.968c-29.159-13.2-158.884-38.455-305.527-55.007-106.068-11.972-304.344-28.554-440.564-5.118-126.006,21.678-302.32,33.721-460.166,31.441-89.71-1.3-171.506-6.92-243.118-16.705-79.853-10.913-145.2-26.822-194.232-47.29-106.985-44.662-231.819-74.72-361.007-86.925a1402.622,1402.622,0,0,0-206.8-4.2,1338.272,1338.272,0,0,0-213.4,28.69l-.819-.9a1341.879,1341.879,0,0,1,213.995-28.769,1407.193,1407.193,0,0,1,207.4,4.215c129.528,12.239,254.683,42.372,361.931,87.143,48.805,20.374,113.9,36.217,193.467,47.091,71.455,9.765,153.09,15.372,242.639,16.669,157.582,2.285,333.646-9.744,459.438-31.385C2786.72,972.394,2985.422,989,3091.7,1001c146.956,16.586,277.093,41.955,306.441,55.243Z" transform="translate(-971.145 -870.165)" fill="url(#linear-gradient)"/>
              </g>
            </g>
            <path id="Path_9728" data-name="Path 9728" d="M955.087,707.5c284.613-16.443,571.612,28.99,805.438,106.642,261.888,86.973,557.983,93.34,808.77-8.915-124.839,104.527-522.681,128.921-724.035,73.7-105.831-29.026-189.038-74.732-293.568-105.1-180.393-52.405-390.584-63.156-596.605-56.618Z" transform="translate(-947.136 -704.148)" fill="url(#linear-gradient)"/>
          </g>
          <g id="Group_13124" data-name="Group 13124" transform="translate(584.328)">
            <g id="Group_13123" data-name="Group 13123">
              <g id="Group_13101" data-name="Group 13101" transform="translate(0 157.635)">
                <path id="Path_9731" data-name="Path 9731" d="M3247.9,467.838c-229.448-26.23-448.23-78.092-632.7-149.977-25.44-9.913-50.689-20.381-75.107-30.505-46.951-19.467-95.5-39.6-147.428-56.611-92.2-30.209-181.289-45.21-264.788-44.638-48.032.34-95.76,5.9-141.916,11.268-20.552,2.392-41.8,4.867-62.83,6.852-120.041,11.337-247.473,7.2-368.519-11.96s-229.363-52.344-313.25-95.961l1.466-.678c83.654,43.5,191.681,76.59,312.4,95.7s247.8,23.235,367.518,11.931c20.987-1.981,42.216-4.453,62.748-6.843,46.262-5.385,94.1-10.953,142.353-11.295,83.95-.574,173.39,14.482,265.931,44.805,52.022,17.046,100.618,37.194,147.614,56.679,24.405,10.118,49.643,20.582,75.057,30.486,184.236,71.8,402.743,123.592,631.9,149.79Z" transform="translate(-1241.367 -95.625)" fill="url(#linear-gradient-12)"/>
              </g>
              <g id="Group_13102" data-name="Group 13102" transform="translate(1.959 150.485)">
                <path id="Path_9732" data-name="Path 9732" d="M3247.493,452.235c-229.784-27.882-448.48-78.474-632.451-146.309-25.467-9.4-50.782-19.3-75.26-28.887-29.4-11.508-59.8-23.408-90.624-34.478-20.771-7.46-39.925-13.9-58.548-19.684C2298,194.1,2208.981,179.72,2125.949,180.128c-47.477.235-94.679,5.322-140.327,10.241-20.852,2.248-42.415,4.571-63.738,6.4-114.277,9.814-235.258,5.787-349.869-11.643A1360.074,1360.074,0,0,1,1394.93,146.2c-56.456-16.529-107.794-35.74-152.591-57.1l1.405-.708c44.682,21.31,95.9,40.476,152.218,56.965a1356.743,1356.743,0,0,0,176.648,38.836c114.307,17.385,234.964,21.4,348.925,11.614,21.281-1.829,42.822-4.151,63.654-6.4,45.749-4.93,93.056-10.028,140.74-10.264,83.475-.415,172.814,14.022,265.758,42.9,18.662,5.8,37.851,12.249,58.661,19.72,30.854,11.082,61.274,22.989,90.688,34.5,24.468,9.578,49.772,19.482,75.218,28.87,183.753,67.755,402.2,118.29,631.721,146.14Z" transform="translate(-1242.34 -88.385)" fill="url(#linear-gradient-12)"/>
              </g>
              <g id="Group_13103" data-name="Group 13103" transform="translate(3.922 143.334)">
                <path id="Path_9733" data-name="Path 9733" d="M3247.081,436.633c-230.682-29.638-449.292-78.963-632.2-142.64-25.455-8.872-50.788-18.213-75.289-27.247-29.906-11.026-60.829-22.427-92.11-33.025-20.9-7.078-40.174-13.2-58.932-18.71-93.022-27.347-182-41.114-264.538-40.862-46.877.131-93.507,4.752-138.6,9.221-21.2,2.1-43.12,4.273-64.781,5.95a1514.911,1514.911,0,0,1-347.684-13.834,1455.5,1455.5,0,0,1-175.982-39.2c-55.469-16.007-108.6-34.821-153.652-54.405l1.335-.739c44.956,19.543,97.979,38.317,153.337,54.293a1452.222,1452.222,0,0,0,175.576,39.11,1510.748,1510.748,0,0,0,346.754,13.8c21.619-1.674,43.518-3.845,64.695-5.943,45.191-4.478,91.921-9.108,138.99-9.24,82.978-.26,172.242,13.561,265.585,41,18.8,5.522,38.108,11.654,59.041,18.744,31.315,10.609,62.254,22.016,92.174,33.048,24.49,9.029,49.812,18.365,75.246,27.23,182.708,63.609,401.092,112.882,631.542,142.49Z" transform="translate(-1243.315 -81.144)" fill="url(#linear-gradient-12)"/>
              </g>
              <g id="Group_13104" data-name="Group 13104" transform="translate(5.889 136.184)">
                <path id="Path_9734" data-name="Path 9734" d="M3246.667,421.029c-232.379-31.547-450.9-79.6-631.947-138.971-25.388-8.341-50.692-17.106-75.166-25.584-30.458-10.551-61.952-21.461-93.745-31.595-21.053-6.707-40.456-12.508-59.317-17.734-93.425-25.917-182.347-39-264.413-38.974-46.226.03-92.239,4.187-136.736,8.21-21.591,1.95-43.919,3.969-65.965,5.486-114.247,7.837-233.722,2.3-345.5-16.023A1570.784,1570.784,0,0,1,1399,126.379c-54.93-15.622-108.426-33.5-154.707-51.705l1.26-.77c46.2,18.174,99.612,36.024,154.457,51.621a1567.286,1567.286,0,0,0,174.506,39.384c111.49,18.272,230.645,23.8,344.584,15.982,22-1.515,44.309-3.531,65.88-5.48,44.585-4.029,90.687-8.2,137.1-8.225h.533c82.231,0,171.339,13.153,264.874,39.1,18.9,5.236,38.334,11.048,59.423,17.766,31.825,10.144,63.338,21.06,93.81,31.615,24.462,8.474,49.755,17.236,75.125,25.57,180.866,59.31,399.188,107.321,631.365,138.84Z" transform="translate(-1244.292 -73.903)" fill="url(#linear-gradient-12)"/>
              </g>
              <g id="Group_13105" data-name="Group 13105" transform="translate(7.86 129.033)">
                <path id="Path_9735" data-name="Path 9735" d="M3246.254,405.426c-238.628-34.162-451.161-79.685-631.7-135.3-25.269-7.8-50.49-15.987-74.878-23.9-31.065-10.082-63.188-20.507-95.546-30.182-21.2-6.333-40.729-11.815-59.7-16.761-93.835-24.488-182.756-36.966-264.3-37.085h-1.271c-45.09,0-89.988,3.665-133.423,7.209-22.042,1.8-44.831,3.66-67.322,5.013-114.242,6.839-232.957.539-343.315-18.212-54.557-9.259-111.4-22.256-173.775-39.734-53.569-15.009-107.429-31.954-155.76-49.005l1.176-.8c48.274,17.03,102.074,33.957,155.582,48.949,62.266,17.447,119,30.419,173.435,39.657,110.071,18.7,228.475,24.985,342.414,18.166,22.447-1.35,45.215-3.209,67.235-5.006,43.923-3.585,89.3-7.3,135.032-7.222,81.868.119,171.105,12.636,265.23,37.2,19.01,4.954,38.574,10.445,59.8,16.788,32.393,9.684,64.531,20.114,95.613,30.2,24.379,7.912,49.588,16.094,74.839,23.891,180.375,55.568,392.737,101.053,631.184,135.19Z" transform="translate(-1245.271 -66.662)" fill="url(#linear-gradient-12)"/>
              </g>
              <g id="Group_13106" data-name="Group 13106" transform="translate(9.835 121.882)">
                <path id="Path_9736" data-name="Path 9736" d="M3245.836,389.822c-243.455-36.69-455.9-80.978-631.444-131.634-25.068-7.255-50.118-14.847-74.343-22.19-31.754-9.624-64.586-19.576-97.594-28.8-21.341-5.957-40.993-11.121-60.086-15.785-94.234-23.06-183.116-34.9-264.173-35.2-44.8-.175-89.34,3.082-132.465,6.224-22.551,1.642-45.874,3.341-68.87,4.524-114.237,5.829-232.2-1.225-341.131-20.4-52.129-9.164-107-21.874-172.67-40-49.747-13.729-102.5-29.309-156.808-46.305l1.083-.833c54.273,16.987,107,32.557,156.712,46.277,65.573,18.1,120.341,30.786,172.362,39.932,108.647,19.128,226.3,26.167,340.243,20.35,22.954-1.18,46.252-2.878,68.785-4.519,43.2-3.146,87.908-6.413,132.775-6.233,81.365.3,170.543,12.173,265.057,35.3,19.125,4.672,38.809,9.844,60.18,15.811,33.039,9.234,65.89,19.19,97.657,28.82,24.217,7.339,49.26,14.93,74.308,22.178,175.406,50.616,387.709,94.873,631.011,131.541Z" transform="translate(-1246.252 -59.421)" fill="url(#linear-gradient-12)"/>
              </g>
              <g id="Group_13107" data-name="Group 13107" transform="translate(11.814 114.732)">
                <path id="Path_9737" data-name="Path 9737" d="M3245.416,374.219c-258.607-40.963-459.17-81.625-631.184-127.967-24.754-6.69-49.524-13.677-73.479-20.432-32.549-9.182-66.206-18.677-99.978-27.465-21.468-5.581-41.247-10.426-60.468-14.81-95.964-21.936-182.336-32.832-264.051-33.308-43.887-.263-87.657,2.542-129.987,5.253-23.147,1.481-47.086,3.014-70.668,4.018-114.242,4.817-231.447-2.994-338.948-22.591-62.444-11.366-121.769-26.734-171.566-40.267-31.79-8.64-63.229-17.381-93.632-25.833q-33.966-9.443-64.219-17.773l.983-.862q30.287,8.3,64.229,17.776c30.4,8.451,61.834,17.191,93.616,25.828,49.731,13.517,108.974,28.863,171.292,40.205,107.224,19.547,224.13,27.336,338.071,22.534,23.542-1,47.456-2.533,70.583-4.014,42.4-2.715,86.249-5.512,130.268-5.261,82.007.478,168.651,11.4,264.878,33.4,19.251,4.392,39.063,9.243,60.563,14.833,33.8,8.8,67.475,18.294,100.039,27.481,23.946,6.754,48.707,13.738,73.442,20.424,171.9,46.311,372.352,86.949,630.833,127.892Z" transform="translate(-1247.235 -52.181)" fill="url(#linear-gradient-12)"/>
              </g>
              <g id="Group_13108" data-name="Group 13108" transform="translate(13.799 107.583)">
                <path id="Path_9738" data-name="Path 9738" d="M3245,358.615c-198.145-32.937-428.059-73.462-630.935-124.3-24.3-6.113-48.654-12.479-72.206-18.636-33.48-8.753-68.1-17.8-102.763-26.167-21.595-5.205-41.5-9.731-60.851-13.837-96.362-20.489-182.693-30.766-263.934-31.419-42.962-.35-85.792,2.015-127.237,4.3-23.834,1.315-48.475,2.676-72.738,3.493-114.241,3.8-230.692-4.773-336.76-24.781-59.118-11.133-116.626-26.129-170.463-40.535-59.365-15.885-112.3-29.927-158.89-40.907l.87-.89c46.637,10.991,99.594,25.039,158.985,40.93,53.778,14.391,111.219,29.369,170.219,40.48,105.8,19.957,221.948,28.507,335.9,24.717,24.216-.815,48.837-2.175,72.647-3.488,41.509-2.291,84.423-4.658,127.5-4.31,81.508.655,168.093,10.959,264.7,31.5,19.38,4.112,39.317,8.644,60.942,13.856,34.691,8.371,69.325,17.426,102.819,26.182,23.544,6.155,47.889,12.52,72.178,18.629,202.761,50.806,432.585,91.315,630.66,124.241Z" transform="translate(-1248.221 -44.942)" fill="url(#linear-gradient-12)"/>
              </g>
              <g id="Group_13109" data-name="Group 13109" transform="translate(15.785 100.434)">
                <path id="Path_9739" data-name="Path 9739" d="M3244.573,343.011l-35.892-6.249c-200.295-34.854-407.409-70.9-594.785-114.379-23.675-5.518-47.43-11.247-70.4-16.788-34.585-8.342-70.346-16.967-106.083-24.923-21.72-4.829-41.75-9.036-61.236-12.861-96.745-19.042-183.04-28.7-263.815-29.53-41.859-.437-83.692,1.5-124.136,3.379-24.633,1.142-50.1,2.322-75.156,2.941-114.253,2.765-229.945-6.559-334.576-26.971-55.673-10.841-109.664-25.07-161.878-38.83l-7.48-1.972c-42.956-11.312-106.271-27.58-159.929-38.209l.755-.916c53.748,10.648,117.128,26.932,160.124,38.257l7.484,1.971c52.163,13.747,106.1,27.962,161.667,38.782,104.369,20.359,219.775,29.662,333.732,26.9,25.008-.617,50.456-1.8,75.065-2.938,40.5-1.877,82.388-3.818,124.372-3.383,81.021.832,167.545,10.514,264.52,29.6,19.513,3.831,39.57,8.043,61.32,12.878,35.765,7.963,71.54,16.592,106.137,24.936,22.968,5.54,46.715,11.268,70.376,16.782,187.286,43.462,394.35,79.495,594.6,114.342l35.892,6.248Z" transform="translate(-1249.207 -37.703)" fill="url(#linear-gradient-12)"/>
              </g>
              <g id="Group_13110" data-name="Group 13110" transform="translate(17.778 93.288)">
                <path id="Path_9740" data-name="Path 9740" d="M3244.147,327.407c-61.032-11.129-123.689-22.189-184.28-32.885-149.321-26.36-303.726-53.616-446.143-84.074-22.8-4.9-45.708-9.971-67.863-14.875-35.928-7.953-73.078-16.176-110.129-23.743-21.851-4.455-42.008-8.343-61.624-11.886-97.123-17.594-183.378-26.636-263.694-27.64-40.665-.514-81.313,1.012-120.623,2.487-25.57.959-52.01,1.951-77.991,2.357-114.267,1.735-229.2-8.353-332.389-29.159-48.374-9.735-95.569-22.079-141.211-34.016q-13.521-3.536-27.045-7.052C1345.42,49.885,1292.771,38.268,1250.2,31.405l.628-.938c42.681,6.88,95.434,18.519,161.27,35.579q13.532,3.508,27.051,7.053c45.6,11.927,92.748,24.257,141.03,33.975,102.93,20.754,217.583,30.815,331.56,29.086,25.936-.406,52.355-1.4,77.9-2.355,39.358-1.477,80.058-3,120.826-2.49,80.542,1.007,167.008,10.068,264.34,27.7,19.642,3.548,39.824,7.441,61.7,11.9,37.08,7.573,74.244,15.8,110.186,23.754,22.15,4.9,45.054,9.974,67.841,14.871,142.357,30.445,296.729,57.7,446.016,84.05,60.6,10.7,123.263,21.759,184.3,32.889Z" transform="translate(-1250.197 -30.467)" fill="url(#linear-gradient-12)"/>
              </g>
              <g id="Group_13111" data-name="Group 13111" transform="translate(19.771 86.143)">
                <path id="Path_9741" data-name="Path 9741" d="M3243.718,311.8c-98.685-18.814-200.8-36.5-299.558-53.6-110.049-19.06-223.849-38.768-330.6-59.691-21.6-4.255-43.337-8.643-64.356-12.888-37.593-7.589-76.462-15.437-115.152-22.636-21.99-4.083-42.272-7.653-62.007-10.911-97.483-16.147-183.7-24.57-263.58-25.75-39.278-.584-78.572.544-116.578,1.635-26.681.765-54.271,1.558-81.353,1.734-115.918.7-227.005-9.853-330.2-31.35-42.6-8.857-84.357-19.776-124.734-30.336-13.886-3.63-28.243-7.385-42.417-11-64.215-16.37-118.714-27.412-161.989-32.821l.5-.957c43.421,5.428,98.067,16.5,162.417,32.9,14.184,3.616,28.547,7.372,42.435,11,40.339,10.549,82.052,21.458,124.575,30.3,102.942,21.443,213.784,31.98,329.391,31.271,27.035-.176,54.6-.968,81.264-1.733,38.044-1.092,77.386-2.221,116.753-1.636,80.081,1.183,166.489,9.623,264.162,25.8,19.759,3.262,40.065,6.836,62.077,10.923,38.718,7.2,77.6,15.054,115.2,22.646,21.015,4.243,42.75,8.631,64.34,12.885,106.717,20.915,220.492,40.621,330.524,59.677,98.771,17.105,200.9,34.794,299.617,53.613Z" transform="translate(-1251.187 -23.232)" fill="url(#linear-gradient-12)"/>
              </g>
              <g id="Group_13112" data-name="Group 13112" transform="translate(21.768 79.001)">
                <path id="Path_9742" data-name="Path 9742" d="M3243.289,296.2c-128.648-25.613-262.968-47.862-392.866-69.376-78.54-13.009-159.75-26.46-237.038-40.25-19.872-3.564-39.9-7.227-59.271-10.768-39.771-7.272-80.9-14.792-121.75-21.661-22.094-3.707-42.5-6.957-62.393-9.937-97.816-14.7-184-22.505-263.463-23.861-37.669-.646-75.391.107-111.871.834-28.013.559-56.979,1.143-85.379,1.061-115.922-.374-226.282-11.658-328.016-33.539-37.927-8.141-75.222-17.947-111.291-27.429-17.9-4.7-36.4-9.57-54.759-14.172-63.979-16.04-118.827-26.177-163.014-30.129l.363-.971c44.38,3.969,99.412,14.137,163.569,30.221C1434.48,50.827,1453,55.695,1470.9,60.4c36.035,9.473,73.293,19.268,111.148,27.395,101.482,21.827,211.575,33.083,327.221,33.456,28.35.077,57.3-.5,85.285-1.06,36.52-.729,74.281-1.482,112.024-.834,79.646,1.359,166,9.177,263.98,23.9,19.912,2.981,40.343,6.235,62.458,9.947,40.879,6.873,82.017,14.4,121.8,21.67,19.366,3.541,39.391,7.2,59.256,10.766,77.264,13.784,158.466,27.234,236.991,40.241,129.924,21.52,264.272,43.773,392.98,69.4Z" transform="translate(-1252.179 -16)" fill="url(#linear-gradient-12)"/>
              </g>
              <g id="Group_13113" data-name="Group 13113" transform="translate(23.768 71.86)">
                <path id="Path_9743" data-name="Path 9743" d="M3242.86,280.594c-153.028-31.786-314.448-56.8-470.558-80.986-52.508-8.135-106.8-16.547-159.088-24.972q-26.071-4.225-51.9-8.486c-42.7-7.013-86.865-14.264-130.635-20.85-22.2-3.334-42.739-6.266-62.778-8.961-98.134-13.254-184.274-20.44-263.348-21.971-35.761-.7-71.618-.291-106.3.1-29.63.333-60.271.678-90.272.319-115.938-1.451-225.564-13.471-325.832-35.728-34.055-7.546-67.634-16.457-100.1-25.074-21.152-5.613-43.027-11.418-64.84-16.794-63.039-15.538-119.763-25.027-164.038-27.44l.221-.982c44.511,2.426,101.472,11.949,164.723,27.54,21.838,5.383,43.726,11.191,64.892,16.808,32.441,8.608,65.985,17.51,99.976,25.042,100.022,22.2,209.385,34.192,325.053,35.64,29.948.361,60.567.015,90.175-.319,34.706-.391,70.6-.8,106.421-.1,79.229,1.534,165.518,8.731,263.8,22,20.057,2.7,40.611,5.633,62.834,8.97,43.8,6.59,87.967,13.843,130.684,20.858q25.851,4.245,51.892,8.485c52.272,8.421,106.564,16.833,159.063,24.968,156.154,24.2,317.624,49.214,470.739,81.018Z" transform="translate(-1253.172 -8.769)" fill="url(#linear-gradient-12)"/>
              </g>
              <g id="Group_13114" data-name="Group 13114" transform="translate(25.767 64.723)">
                <path id="Path_9744" data-name="Path 9744" d="M3242.43,264.99c-173.159-37.491-357.965-63.713-536.685-89.07-30.5-4.327-62.041-8.8-92.7-13.22q-20.451-2.967-40.762-5.939c-46.876-6.848-95.351-13.927-143.287-20.305-22.259-2.955-42.918-5.567-63.162-7.986-98.4-11.8-184.5-18.371-263.231-20.079-33.484-.73-67.094-.638-99.6-.55-31.627.086-64.322.175-96.29-.508-115.96-2.537-224.849-15.294-323.645-37.917-30.8-7.041-61.241-15.22-90.676-23.129-23.818-6.4-48.447-13.017-73.163-19.005-44-10.66-108.358-23.606-165.063-24.752l.083-.987c57.058,1.152,121.7,14.152,165.872,24.854,24.754,6,49.4,12.62,73.237,19.024,29.407,7.9,59.816,16.072,90.562,23.1,98.555,22.568,207.188,35.294,322.882,37.825,31.919.682,64.594.595,96.191.507,32.529-.088,66.166-.18,99.7.551,78.865,1.709,165.1,8.287,263.618,20.106,20.258,2.421,40.935,5.037,63.212,7.993,47.958,6.382,96.445,13.462,143.335,20.311q20.318,2.967,40.753,5.938c30.659,4.418,62.2,8.893,92.694,13.219,178.784,25.367,363.656,51.6,536.939,89.116Z" transform="translate(-1254.165 -1.542)" fill="url(#linear-gradient-12)"/>
              </g>
              <g id="Group_13115" data-name="Group 13115" transform="translate(27.708 57.552)">
                <path id="Path_9745" data-name="Path 9745" d="M3242.029,249.385c-189.921-42.826-395.284-68.914-593.885-94.143Q2630.477,153,2612.9,150.76l-22.529-2.893c-53.385-6.858-108.589-13.95-163.029-20.258-22.328-2.58-43.116-4.874-63.549-7.011-98.587-10.353-184.651-16.3-263.115-18.188-30.675-.741-61.511-.914-91.331-1.082-34.136-.192-69.434-.39-103.88-1.452-115.978-3.632-224.132-17.126-321.459-40.105-28.031-6.61-55.781-14.177-82.615-21.5-26.022-7.1-52.929-14.434-80.119-20.906C1377.187,6.876,1312.585-5.462,1255.185-4.7l-.056-.987c57.777-.79,122.735,11.623,167.026,22.166,27.24,6.484,54.171,13.83,80.217,20.932,26.81,7.312,54.531,14.872,82.51,21.468,97.091,22.924,204.994,36.386,320.712,40.01,34.394,1.06,69.665,1.258,103.773,1.45,29.842.169,60.7.343,91.409,1.083,78.572,1.887,164.743,7.843,263.437,18.208,20.447,2.139,41.249,4.433,63.589,7.016,54.467,6.31,109.681,13.4,163.078,20.264l22.529,2.892q17.568,2.238,35.24,4.481c198.686,25.241,404.136,51.34,594.221,94.2Z" transform="translate(-1255.129 5.719)" fill="url(#linear-gradient-12)"/>
              </g>
              <g id="Group_13116" data-name="Group 13116" transform="translate(29.57 50.057)">
                <path id="Path_9746" data-name="Path 9746" d="M3241.671,233.776c-203.713-47.8-429.587-72.855-628.871-94.959-66.524-7.429-126.516-14.067-187.073-20.056-22.354-2.205-43.265-4.179-63.936-6.036-98.649-8.9-184.677-14.23-263-16.3-27.13-.718-54.449-1.091-80.868-1.452-37.376-.512-76.023-1.039-113.661-2.559-116-4.734-223.417-18.964-319.272-42.294-25.644-6.231-51.064-13.282-75.647-20.1-27.856-7.726-56.661-15.713-85.983-22.569-44.209-10.335-109.094-22.086-167.119-19.385l-.189-.984c58.5-2.726,123.737,9.088,168.174,19.477,29.387,6.87,58.221,14.867,86.108,22.6,24.559,6.811,49.955,13.853,75.551,20.075,95.627,23.274,202.8,37.47,318.545,42.194,37.581,1.517,76.2,2.044,113.552,2.555,26.431.361,53.762.735,80.918,1.454,78.407,2.068,164.519,7.4,263.255,16.31,20.679,1.858,41.6,3.833,63.968,6.039,60.582,5.992,120.586,12.631,187.123,20.062,199.385,22.115,425.375,47.182,629.292,95.031Z" transform="translate(-1256.054 13.31)" fill="url(#linear-gradient-12)"/>
              </g>
              <g id="Group_13117" data-name="Group 13117" transform="translate(31.432 42.248)">
                <path id="Path_9747" data-name="Path 9747" d="M3241.31,218.163C3045.048,170.275,2823.153,146.8,2612.7,126.87c-51.6-4.922-119.658-11.3-188.587-16.963-21.959-1.8-43.6-3.5-64.32-5.06-98.438-7.436-184.427-12.148-262.883-14.4-22.5-.649-45.2-1.131-67.149-1.595-41.7-.884-84.818-1.8-126.7-3.892-116.018-5.847-222.7-20.814-317.086-44.483-23.568-5.9-46.963-12.509-69.585-18.9-29.385-8.3-59.768-16.878-90.94-24.035-62.693-14.392-122.415-20.324-168.15-16.7l-.32-.976c32.634-2.58,88.506-1.767,169.323,16.785,31.251,7.175,61.671,15.765,91.091,24.074,22.6,6.384,45.972,12.983,69.5,18.876,94.162,23.613,200.606,38.544,316.375,44.38,41.823,2.091,84.912,3,126.582,3.888,21.959.465,44.668.946,67.179,1.6,78.522,2.259,164.572,6.973,263.072,14.413,20.727,1.559,42.379,3.262,64.346,5.062,68.953,5.668,137.031,12.045,188.637,16.968,210.591,19.948,432.635,43.435,629.124,91.378Z" transform="translate(-1256.979 21.216)" fill="url(#linear-gradient-12)"/>
              </g>
              <g id="Group_13118" data-name="Group 13118" transform="translate(33.299 34.204)">
                <path id="Path_9748" data-name="Path 9748" d="M3240.947,202.547c-201.279-51.033-429.879-71.99-628.35-87.627-68.18-5.41-130.361-9.947-190.1-13.87-21.679-1.42-43.45-2.794-64.7-4.085-97.482-5.946-183.435-10.039-262.769-12.512-16.145-.5-32.471-.96-48.264-1.4-47.744-1.332-97.113-2.709-144.906-5.563-116.042-6.969-221.99-22.672-314.9-46.672-21.746-5.61-43.353-11.833-64.25-17.849-30.663-8.83-62.373-17.961-95.17-25.35-62.914-14.177-123-19.158-169.182-14.026l-.445-.964c46.617-5.179,107.154-.173,170.469,14.092,32.89,7.411,64.642,16.554,95.35,25.4,20.876,6.011,42.461,12.227,64.167,17.828,92.7,23.943,198.408,39.61,314.207,46.564,47.728,2.85,97.067,4.227,144.779,5.558,15.793.44,32.123.9,48.272,1.4,79.378,2.475,165.369,6.569,262.891,12.518,21.261,1.29,43.037,2.664,64.725,4.086,59.758,3.925,121.958,8.462,190.153,13.874,198.625,15.649,427.411,36.625,628.953,87.725Z" transform="translate(-1257.906 29.363)" fill="url(#linear-gradient-12)"/>
              </g>
              <g id="Group_13119" data-name="Group 13119" transform="translate(35.169 25.905)">
                <path id="Path_9749" data-name="Path 9749" d="M3240.583,186.927c-194.6-51.236-416.881-70.633-628.092-83.962-61.555-3.912-126.022-7.538-191.613-10.777-21-1.034-42.9-2.081-65.091-3.109-91.675-4.271-180.046-7.844-262.655-10.618q-10.325-.348-20.621-.687c-56.707-1.881-115.348-3.826-171.866-7.754-116.059-8.1-221.269-24.539-312.715-48.86-20.133-5.351-40.156-11.234-59.52-16.926-31.74-9.326-64.557-18.972-98.794-26.54C1366.464-36.269,1306.009-40.3,1259.4-33.657l-.562-.948c47.074-6.708,108.021-2.66,171.609,11.4,34.341,7.593,67.213,17.254,99,26.595,19.346,5.685,39.351,11.563,59.446,16.9,91.232,24.265,196.217,40.666,312.036,48.749,56.446,3.925,112.441,5.781,171.719,7.747q10.3.341,20.625.687c82.627,2.775,171.014,6.348,262.706,10.621,22.191,1.028,44.094,2.074,65.1,3.109,65.611,3.24,130.1,6.867,191.669,10.78,211.4,13.341,433.9,32.76,628.787,84.072Z" transform="translate(-1258.835 37.766)" fill="url(#linear-gradient-12)"/>
              </g>
              <g id="Group_13120" data-name="Group 13120" transform="translate(37.043 17.417)">
                <path id="Path_9750" data-name="Path 9750" d="M3240.216,171.305c-196.761-53.764-427.79-70.762-627.83-80.3-58.173-2.791-119.542-5.233-193.127-7.684q-32.561-1.081-65.478-2.132l-44.1-1.42c-71.56-2.3-145.558-4.68-218.443-7.306-62.033-2.238-127.943-4.848-191.806-9.918-116.075-9.241-220.551-26.415-310.527-51.048-18.7-5.117-37.317-10.705-55.32-16.108-32.634-9.8-66.382-19.925-101.891-27.624-63.41-13.75-124.23-16.828-171.26-8.675l-.67-.93c47.519-8.24,108.867-5.15,172.744,8.7,35.634,7.727,69.438,17.873,102.128,27.685,17.985,5.4,36.582,10.981,55.25,16.088,89.773,24.576,194.025,41.713,309.868,50.935,63.782,5.065,129.645,7.672,191.635,9.909,72.873,2.626,146.867,5,218.423,7.3l44.1,1.42q32.914,1.058,65.483,2.132c73.6,2.452,134.99,4.894,193.183,7.687,132.18,6.3,232.116,13.854,324.03,24.49,116.606,13.493,216.238,31.786,304.583,55.927Z" transform="translate(-1259.766 46.36)" fill="url(#linear-gradient-12)"/>
              </g>
              <g id="Group_13121" data-name="Group 13121" transform="translate(38.922 8.789)">
                <path id="Path_9751" data-name="Path 9751" d="M3239.847,155.681c-197.54-55.984-428.1-70.155-627.574-76.633-69.357-2.263-137.311-3.591-194.637-4.591l-12.2-.212q-26.736-.464-53.663-.944c-83.557-1.518-173.183-3.4-262.426-6.833-77.344-2.978-136.291-6.493-191.128-11.4-117.72-10.534-218.577-27.949-308.34-53.236-17.421-4.906-34.774-10.229-51.555-15.377-33.383-10.241-67.9-20.83-104.551-28.621-85.911-18.263-144.831-11.6-172.3-6l-.771-.912c27.77-5.658,87.284-12.4,173.875,6,36.788,7.821,71.373,18.43,104.818,28.689,16.765,5.144,34.1,10.462,51.491,15.359,89.561,25.231,190.21,42.607,307.7,53.121,54.767,4.9,113.651,8.405,190.922,11.382,89.207,3.435,178.806,5.313,262.343,6.831q26.92.486,53.659.944l12.2.212c57.34,1,125.314,2.328,194.7,4.592,199.708,6.485,430.547,20.677,628.446,76.763Z" transform="translate(-1260.699 55.097)" fill="url(#linear-gradient-12)"/>
              </g>
              <g id="Group_13122" data-name="Group 13122" transform="translate(40.804)">
                <path id="Path_9752" data-name="Path 9752" d="M3239.476,140.055C3130.438,108.02,3000.729,87.166,2842.94,76.3c-137.092-9.438-280.172-10.454-426.929-10.716-153.3-.273-291.255-1.243-427.207-10.4C1830.58,44.536,1700.41,23.923,1590.854-7.828c-16.274-4.717-32.491-9.8-48.175-14.723-34-10.665-69.158-21.693-106.827-29.541-86.277-17.975-145.642-9.8-173.354-3.325l-.864-.891c28.011-6.545,88-14.82,175,3.306,37.826,7.881,73.054,18.931,107.124,29.619,15.67,4.915,31.873,10,48.116,14.7C1701.2,23,1831.123,43.576,1989.077,54.211c135.831,9.147,273.717,10.116,426.941,10.389,146.829.262,289.986,1.279,427.2,10.725,158.063,10.882,288.018,31.778,397.291,63.883Z" transform="translate(-1261.634 63.997)" fill="url(#linear-gradient-12)"/>
              </g>
            </g>
          </g>
        </g>
      </g>
    </g>
    <g id="Group_13248" data-name="Group 13248" transform="translate(1189.563 5593.158)">
      <g id="Group_13228" data-name="Group 13228" transform="translate(204.342 697.589)">
        <g id="Group_13226" data-name="Group 13226">
          <path id="Path_9933" data-name="Path 9933" d="M297.66,402.659c-20.644,10.874-54.113,10.872-74.757,0s-20.646-28.5,0-39.374,54.113-10.872,74.757,0S318.3,391.787,297.66,402.659Z" transform="translate(-200.141 -312.082)" fill="#ff5c53" opacity="0.5"/>
          <path id="Path_9934" data-name="Path 9934" d="M324.62,378.187v-15.4h-3.189c-2.862-4.5-7.629-8.731-14.427-12.31-23.487-12.372-61.565-12.372-85.05,0-6.8,3.579-11.565,7.813-14.427,12.31h-3.184V378.1h0c-.04,8.135,5.824,16.275,17.606,22.482,23.487,12.369,61.565,12.369,85.05,0C318.748,394.4,324.62,386.294,324.62,378.187Z" transform="translate(-204.34 -331.11)" fill="#ff5c53"/>
          <ellipse id="Ellipse_537" data-name="Ellipse 537" cx="60.14" cy="31.675" rx="60.14" ry="31.675" fill="#ff5c53"/>
          <path id="Path_9935" data-name="Path 9935" d="M306.971,372.139c-23.485,12.369-61.562,12.369-85.049,0-11.255-5.928-17.055-13.623-17.524-21.391-.506,8.44,5.294,16.966,17.524,23.407,23.487,12.372,61.565,12.372,85.049,0,12.232-6.441,18.032-14.964,17.524-23.4C324.028,358.516,318.228,366.211,306.971,372.139Z" transform="translate(-204.307 -318.067)" fill="#ff5c53"/>
        </g>
        <g id="Group_13227" data-name="Group 13227" transform="translate(29.568 16.657)">
          <path id="Path_9936" data-name="Path 9936" d="M218.426,369.479a2.484,2.484,0,0,1-1.585-2.023l.062-20.637c0-1.573,2.432-2.848,5.419-2.846s5.405,1.28,5.405,2.858l-.052,17.112,54.442-6.082c2.926-.329,5.8.658,6.42,2.2s-1.249,3.054-4.173,3.38l-60.988,6.813a9.357,9.357,0,0,1-4.535-.575C218.7,369.614,218.558,369.548,218.426,369.479Z" transform="translate(-216.841 -343.974)" fill="#fff"/>
        </g>
      </g>
      <g id="Group_13233" data-name="Group 13233" transform="translate(310.417 340.649)">
        <g id="Group_13229" data-name="Group 13229">
          <path id="Path_9937" data-name="Path 9937" d="M937.9,347.143,735.2,229.766c-11.012-6.377-30.26-5.606-42.993,1.722L266.81,476.307c-12.734,7.328-14.132,18.439-3.12,24.816L466.386,618.5c11.009,6.377,30.257,5.606,42.993-1.722l425.4-244.818C947.511,364.631,948.909,353.52,937.9,347.143Z" transform="translate(-239.515 -132.229)" fill="#173d7a" opacity="0.5"/>
          <path id="Path_9938" data-name="Path 9938" d="M470.129,611.069,259.183,488.912c-6.931-4.014-10.16-9.424-9.93-15.054l-.047.017.085-30.61,11.733,13.744c.759-.5,1.526-1,2.358-1.483L694.911,207.18c17.131-9.859,43.029-10.9,57.841-2.318L960.736,325.3c4.208-4.61,13.036-14.342,13.036-14.342l-.1,29.94,0,0c.312,6.751-4.495,13.942-14.167,19.508L527.971,608.751C510.837,618.61,484.942,619.648,470.129,611.069Z" transform="translate(-249.156 -168.273)" fill="#396caa"/>
          <path id="Path_9939" data-name="Path 9939" d="M296.066,346.245l12.149,7.016c1.613.932,2.921-.059,2.921-2.209h0a7,7,0,0,0-2.921-5.583l-12.149-7.014c-1.616-.932-2.924.057-2.924,2.209h0A6.988,6.988,0,0,0,296.066,346.245Z" transform="translate(-189.16 21.609)" fill="#173d7a"/>
          <path id="Path_9940" data-name="Path 9940" d="M551.971,207.18c17.131-9.859,43.029-10.9,57.841-2.318L817.8,325.3c4.208-4.608,13.036-14.34,13.036-14.34l-.1,29.94,0,0c.312,6.751-4.495,13.94-14.167,19.508L385.031,608.751c-8.937,5.145-20.256,7.863-31.147,8.09l.412-295.9Z" transform="translate(-106.216 -168.273)" fill="#5793ce"/>
          <path id="Path_9941" data-name="Path 9941" d="M963.742,314.009,752.8,191.851c-14.813-8.58-40.711-7.541-57.844,2.318L263.426,442.515c-17.133,9.859-19.014,24.807-4.2,33.389L470.172,598.059c14.813,8.58,40.711,7.544,57.841-2.316L959.543,347.4C976.677,337.536,978.555,322.588,963.742,314.009Z" transform="translate(-249.111 -186.039)" fill="#d4ecff"/>
          <path id="Path_9942" data-name="Path 9942" d="M470.084,517.764,259.138,395.609c-7.638-4.426-10.8-10.545-9.76-16.786.374,5.069,3.624,9.871,9.921,13.519L470.245,514.5c14.813,8.58,40.71,7.544,57.841-2.316l431.53-248.348c8.3-4.774,12.982-10.742,13.961-16.6.506,6.853-4.272,14.2-14.122,19.868L527.926,515.448C510.795,525.308,484.9,526.344,470.084,517.764Z" transform="translate(-249.184 -102.477)" fill="#fff"/>
          <path id="Path_9943" data-name="Path 9943" d="M937.9,312.423,735.2,195.046c-11.012-6.377-30.26-5.606-42.993,1.722L266.81,441.587c-12.734,7.328-14.132,18.439-3.12,24.817l202.7,117.376c11.009,6.378,30.257,5.606,42.993-1.722l425.4-244.818C947.511,329.911,948.909,318.8,937.9,312.423Z" transform="translate(-239.515 -179.639)" fill="#173d7a"/>
        </g>
        <g id="Group_13231" data-name="Group 13231" transform="translate(105.986 255.327)">
          <path id="Path_9944" data-name="Path 9944" d="M449.243,381.827l-143.032-82.58,9.129-5.271,143.032,82.58Z" transform="translate(-277.3 -293.976)" fill="#d4ecff"/>
          <path id="Path_9945" data-name="Path 9945" d="M366.412,348.116,293.989,306.3l9.129-5.271,72.423,41.813Z" transform="translate(-293.989 -284.341)" fill="#d4ecff"/>
          <path id="Path_9946" data-name="Path 9946" d="M353.022,340.386l-23.489-13.561,9.129-5.271,23.489,13.561Z" transform="translate(-245.453 -256.319)" fill="#ff2c9c"/>
          <path id="Path_9947" data-name="Path 9947" d="M368.014,349.042,344.525,335.48l9.13-5.271,23.489,13.561Z" transform="translate(-224.982 -244.5)" fill="#fff"/>
          <path id="Path_9948" data-name="Path 9948" d="M358.878,336.71,300.1,302.775l9.129-5.271,58.778,33.935Z" transform="translate(-285.645 -289.159)" fill="#fff"/>
          <path id="Path_9949" data-name="Path 9949" d="M389.209,354.223l-58.778-33.936,9.129-5.271,58.778,33.935Z" transform="translate(-244.227 -265.246)" fill="#d4ecff"/>
          <g id="Group_13230" data-name="Group 13230" transform="translate(88.609 9.013)">
            <path id="Path_9950" data-name="Path 9950" d="M344.3,305.208a11.766,11.766,0,0,1-10.65,0c-2.943-1.7-2.943-4.452,0-6.15a11.773,11.773,0,0,1,10.65,0C347.247,300.757,347.247,303.51,344.3,305.208Z" transform="translate(-331.448 -297.786)" fill="#ff2c9c"/>
            <path id="Path_9951" data-name="Path 9951" d="M351.033,309.095a11.78,11.78,0,0,1-10.649,0c-2.943-1.7-2.943-4.452,0-6.15a11.765,11.765,0,0,1,10.649,0C353.975,304.643,353.975,307.4,351.033,309.095Z" transform="translate(-322.261 -292.483)" fill="#fff"/>
            <path id="Path_9952" data-name="Path 9952" d="M357.761,312.979a11.77,11.77,0,0,1-10.652,0c-2.94-1.7-2.94-4.452,0-6.15a11.771,11.771,0,0,1,10.652,0C360.7,308.527,360.7,311.28,357.761,312.979Z" transform="translate(-313.074 -287.179)" fill="#d4ecff"/>
            <path id="Path_9953" data-name="Path 9953" d="M364.489,316.861a11.766,11.766,0,0,1-10.65,0c-2.943-1.7-2.943-4.449,0-6.148a11.771,11.771,0,0,1,10.652,0C367.429,312.412,367.431,315.163,364.489,316.861Z" transform="translate(-303.887 -281.874)" fill="#ff2c9c"/>
            <path id="Path_9954" data-name="Path 9954" d="M371.217,320.748a11.771,11.771,0,0,1-10.652,0c-2.94-1.7-2.94-4.452,0-6.15a11.771,11.771,0,0,1,10.652,0C374.157,316.3,374.157,319.049,371.217,320.748Z" transform="translate(-294.7 -276.57)" fill="#fff"/>
          </g>
        </g>
        <g id="Group_13232" data-name="Group 13232" transform="translate(459.359 51.694)">
          <path id="Path_9955" data-name="Path 9955" d="M512.931,253.7l-24.083-13.9,9.36-5.4,24.082,13.9Z" transform="translate(-381.28 -171.705)" fill="#ff2c9c"/>
          <path id="Path_9956" data-name="Path 9956" d="M527.107,261.885l-24.082-13.9,9.36-5.4,24.082,13.9Z" transform="translate(-361.922 -160.529)" fill="#fff"/>
          <path id="Path_9957" data-name="Path 9957" d="M467.457,227.2l-24.083-13.9,9.36-5.4,24.082,13.9Z" transform="translate(-443.374 -207.892)" fill="#fff"/>
          <path id="Path_9958" data-name="Path 9958" d="M516.117,262.774l-33.534-19.361,9.36-5.4,33.534,19.361Z" transform="translate(-389.835 -166.766)" fill="#fff"/>
          <path id="Path_9959" data-name="Path 9959" d="M515.434,262.38l-14.715-8.5,9.36-5.4,14.715,8.5Z" transform="translate(-365.069 -152.468)" fill="#d4ecff"/>
        </g>
      </g>
      <g id="Group_13235" data-name="Group 13235" transform="translate(964.918 622.949)">
        <g id="Group_13234" data-name="Group 13234" transform="translate(0)">
          <path id="Path_9960" data-name="Path 9960" d="M566.63,384.97l-40.76-23.533L566.628,337.9l40.76,23.533Z" transform="translate(-525.869 -260.965)" fill="#ff5c53" opacity="0.5"/>
          <path id="Path_9961" data-name="Path 9961" d="M583.859,362.39,543.1,385.923V338.859l40.759-23.532Z" transform="translate(-502.34 -291.795)" fill="#ff5c53"/>
          <path id="Path_9962" data-name="Path 9962" d="M566.629,352.443,525.87,328.911l40.758-23.532,40.759,23.533Z" transform="translate(-525.869 -305.379)" fill="#ff5c53"/>
          <path id="Path_9963" data-name="Path 9963" d="M566.629,385.923,525.87,362.39V315.327l40.759,23.532Z" transform="translate(-525.869 -291.795)" fill="#ff5c53"/>
        </g>
        <path id="Path_9964" data-name="Path 9964" d="M543.476,345.82l-11.4-6.582V326.075l11.4,6.582Z" transform="translate(-517.395 -277.118)" fill="#ff5c53"/>
      </g>
      <g id="Group_13237" data-name="Group 13237" transform="translate(258.76 430.755)">
        <g id="Group_13236" data-name="Group 13236">
          <path id="Path_9965" data-name="Path 9965" d="M269.781,306.991l-42.435-24.5,42.433-24.5,42.435,24.5Z" transform="translate(-227.347 -177.892)" fill="#173d7a" opacity="0.5"/>
          <path id="Path_9966" data-name="Path 9966" d="M287.719,283.484l-42.434,24.5v-49l42.434-24.5Z" transform="translate(-202.851 -209.989)" fill="#173d7a"/>
          <path id="Path_9967" data-name="Path 9967" d="M269.781,273.128l-42.434-24.5,42.432-24.5,42.434,24.5Z" transform="translate(-227.346 -224.131)" fill="#d4ecff"/>
          <path id="Path_9968" data-name="Path 9968" d="M269.781,307.983l-42.434-24.5v-49l42.434,24.5Z" transform="translate(-227.346 -209.989)" fill="#5793ce"/>
        </g>
        <path id="Path_9969" data-name="Path 9969" d="M245.676,266.233l-11.868-6.852v-13.7l11.868,6.852Z" transform="translate(-218.524 -194.709)" fill="#fff"/>
      </g>
      <g id="Group_13240" data-name="Group 13240" transform="translate(486.271 72.814)">
        <g id="Group_13238" data-name="Group 13238">
          <path id="Path_9970" data-name="Path 9970" d="M426.067,124.607,337.788,73.64a4.514,4.514,0,0,0-4.563-.367l0-.057-8.563,4.946s3.792,1.384,6.018,2.2V144.65c0,5.23,3.179,11.307,7.1,13.571l84.378,48.718v7.541l8.651-4.982-.047-.017c1.462-.889,2.4-2.848,2.4-5.661V138.178C433.17,132.948,429.989,126.874,426.067,124.607Z" transform="translate(-321.966 -72.814)" fill="#ff5c53"/>
          <path id="Path_9971" data-name="Path 9971" d="M418.907,211.329l-88.281-50.967c-3.922-2.264-7.1-8.341-7.1-13.571V81.15c0-5.23,3.179-7.636,7.1-5.37l88.281,50.967c3.922,2.264,7.1,8.341,7.1,13.571v65.643C426.008,211.191,422.829,213.595,418.907,211.329Z" transform="translate(-323.525 -69.927)" fill="#ff5c53"/>
          <path id="Path_9972" data-name="Path 9972" d="M419.148,126.085,330.868,75.118c-2.484-1.433-4.662-.986-5.933.854a4.968,4.968,0,0,1,3.766.707l88.281,50.967c3.922,2.264,7.1,8.341,7.1,13.571v65.64a7.925,7.925,0,0,1-1.171,4.516c2-.523,3.335-2.7,3.335-6.075V139.656C426.25,134.426,423.07,128.351,419.148,126.085Z" transform="translate(-321.6 -70.826)" fill="#fff"/>
        </g>
        <g id="Group_13239" data-name="Group 13239" transform="translate(24.876 56.685)">
          <path id="Path_9973" data-name="Path 9973" d="M345.954,107.907c0,3.8-2.666,5.337-5.956,3.437a13.168,13.168,0,0,1-5.956-10.316c0-3.8,2.668-5.337,5.956-3.439A13.166,13.166,0,0,1,345.954,107.907Z" transform="translate(-334.041 -96.776)" fill="#fff"/>
          <ellipse id="Ellipse_538" data-name="Ellipse 538" cx="4.863" cy="8.423" rx="4.863" ry="8.423" transform="translate(15.578 13.246) rotate(-30.001)" fill="#fff"/>
          <ellipse id="Ellipse_539" data-name="Ellipse 539" cx="4.863" cy="8.423" rx="4.863" ry="8.423" transform="translate(33.623 23.664) rotate(-30.001)" fill="#fff"/>
        </g>
      </g>
      <path id="Path_9974" data-name="Path 9974" d="M438.944,368.58,583.8,284.948c15.683-9.055,13.715-24.869-4.393-35.324h0c-18.108-10.453-45.5-11.589-61.181-2.536L373.372,330.723c-15.683,9.053-13.718,24.869,4.39,35.322h0C395.871,376.5,423.263,377.636,438.944,368.58Z" transform="translate(216.354 229.628)" fill="#092e63"/>
      <g id="Group_13247" data-name="Group 13247" transform="translate(377.05 157.566)">
        <g id="Group_13241" data-name="Group 13241" transform="translate(317.892 173.138)">
          <path id="Path_9975" data-name="Path 9975" d="M451.579,312.584l.038-17.022,20.133-101.44-19.887-12.286-39.84,21.992-.284,130.749c-.019,8.8,3.279,14.747,8.343,16.686v.007L437.8,362.4l2.224-8.419,3.044-15.338C448.194,331.089,451.56,321.428,451.579,312.584Z" transform="translate(-411.739 -181.835)" fill="#5793ce"/>
          <path id="Path_9976" data-name="Path 9976" d="M440.008,354.921h0c-11,6.075-19.894-.712-19.863-15.153l.286-130.749,39.84-21.99-.286,130.746C459.954,332.219,451.01,348.849,440.008,354.921Z" transform="translate(-400.26 -174.743)" fill="#5793ce"/>
        </g>
        <g id="Group_13242" data-name="Group 13242" transform="translate(217.606 0)">
          <path id="Path_9984" data-name="Path 9984" d="M42.487,0C65.953,0,84.975,32.948,84.975,73.591s-19.022,73.591-42.487,73.591S0,114.233,0,73.591,19.022,0,42.487,0Z" transform="translate(121.944 42.489) rotate(-30.001)" fill="#ff5c53"/>
          <path id="Path_9977" data-name="Path 9977" d="M602.186,244.436,450.751,331.274,369.344,208.987l157.767-91.112Z" transform="translate(-369.344 -96.034)" fill="#ff5c53"/>
        </g>
        <path id="Path_9978" data-name="Path 9978" d="M608.793,233.724c0-34.132-23.963-75.635-53.522-92.7-13.431-7.754-25.7-9.11-35.1-5.1l-.014-.024-.194.1c-.08.038-.161.076-.239.116-.414.187-.818.388-1.221.594a374.95,374.95,0,0,1-179.982,38.175l-17.635-.686L464.452,420.214l7.775-15.028A374.971,374.971,0,0,1,592.851,268.511C602.69,262.986,608.793,250.94,608.793,233.724Z" transform="translate(-217.904 -74.389)" fill="#d4ecff"/>
        <path id="Path_9979" data-name="Path 9979" d="M507.195,342.083c0-65.475-45.969-145.091-102.672-177.829-28.28-16.327-53.884-17.909-72.453-7.274v0l-.1.059-.137.08-16.847,9.871,5.885-1.23C308.9,178.233,301.85,197.9,301.85,223.528c0,65.475,45.967,145.091,102.673,177.829,22.252,12.847,42.851,16.563,59.668,12.381l-2.668,3.927L477.03,408.6l.244-.142.558-.326h-.021C495.982,397.237,507.195,374.412,507.195,342.083Z" transform="translate(-243.902 -51.852)" fill="#d4ecff"/>
        <path id="Path_9980" data-name="Path 9980" d="M495.178,345.043c0-65.473-45.969-145.091-102.672-177.829-27.9-16.107-53.191-17.857-71.7-7.69l-2.576,1.512c-.882.556-1.741,1.15-2.588,1.762l5.225-1.09c-11.974,12.478-19.021,32.14-19.021,57.773,0,65.475,45.967,145.091,102.673,177.829,22.252,12.847,42.851,16.563,59.668,12.381l-2.434,3.579C482.293,403.45,495.178,379.7,495.178,345.043Z" transform="translate(-243.902 -47.803)" fill="#fff"/>
        <ellipse id="Ellipse_541" data-name="Ellipse 541" cx="83.83" cy="145.198" rx="83.83" ry="145.198" transform="translate(0 156.139) rotate(-30.001)" fill="#5793ce"/>
        <ellipse id="Ellipse_542" data-name="Ellipse 542" cx="73.549" cy="127.39" rx="73.549" ry="127.39" transform="translate(17.808 166.42) rotate(-30.001)" fill="#173d7a"/>
        <path id="Path_9981" data-name="Path 9981" d="M394.941,377.787c-49.749-28.722-90.081-98.575-90.081-156.019,0-30.165,11.127-50.9,28.892-59.644-20.2,7.411-33.1,28.966-33.1,61.446,0,57.444,40.332,127.3,90.081,156.019,23.624,13.639,45.122,15.544,61.189,7.638C436.4,392.924,416.559,390.27,394.941,377.787Z" transform="translate(-245.535 -35.612)" fill="#fff"/>
        <g id="Group_13245" data-name="Group 13245" transform="translate(17.808 92.868)">
          <g id="Group_13244" data-name="Group 13244" transform="translate(0 0)" clip-path="url(#clip-path-2)">
            <g id="Group_13243" data-name="Group 13243" transform="translate(101.952 24.504)">
              <path id="Path_9982" data-name="Path 9982" d="M333.035,259.319l130.7-101.059L511.2,240.6,357.79,303.55Z" transform="translate(-321.078 -158.26)" fill="#d4ecff"/>
              <ellipse id="Ellipse_543" data-name="Ellipse 543" cx="14.687" cy="25.439" rx="14.687" ry="25.439" transform="translate(0 107.907) rotate(-30.002)" fill="#5793ce"/>
            </g>
          </g>
        </g>
        <g id="Group_13246" data-name="Group 13246" transform="translate(322.639 266.225)">
          <path id="Path_9983" data-name="Path 9983" d="M419.277,259.97l-.7-.4c-2.616-1.5-4.743-5.538-4.752-9.017l-.073-25.214c-.009-3.48,2.1-5.086,4.714-3.586l.707.4c2.614,1.5,4.743,5.538,4.752,9.017l.073,25.214C424,259.864,421.89,261.47,419.277,259.97Z" transform="translate(-413.746 -221.186)" fill="#fff"/>
        </g>
      </g>
    </g>
  </g>
</svg>
