<svg xmlns="http://www.w3.org/2000/svg" width="49" height="64.329" viewBox="0 0 49 64.329">
  <g id="shield" transform="translate(-61 0)">
    <path id="Path_7812" data-name="Path 7812" d="M164.192,150a13.192,13.192,0,1,0,13.192,13.192A13.207,13.207,0,0,0,164.192,150Zm8.871,10.756-10.051,10.051a1.885,1.885,0,0,1-2.665,0l-5.026-5.026a1.885,1.885,0,1,1,2.665-2.665l3.693,3.693,8.719-8.719a1.885,1.885,0,1,1,2.665,2.665Z" transform="translate(-78.692 -131.153)" fill="#ff5c53"/>
    <path id="Path_7813" data-name="Path 7813" d="M108.116,10.052A28.262,28.262,0,0,1,88,1.72L86.833.553a1.885,1.885,0,0,0-2.665,0L83,1.72a28.262,28.262,0,0,1-20.116,8.332A1.885,1.885,0,0,0,61,11.936v18.8A35.434,35.434,0,0,0,84.886,64.227a1.886,1.886,0,0,0,1.228,0A35.434,35.434,0,0,0,110,30.735v-18.8a1.885,1.885,0,0,0-1.885-1.885ZM85.5,49a16.962,16.962,0,1,1,16.962-16.962A16.981,16.981,0,0,1,85.5,49Z" transform="translate(0 0)" fill="#4562db"/>
  </g>
</svg>
