<svg xmlns="http://www.w3.org/2000/svg" width="63" height="63" viewBox="0 0 63 63">
  <g id="shopping-bag" transform="translate(0)">
    <path id="Path_7808" data-name="Path 7808" d="M9.932,18.7h3.691v3.691a1.846,1.846,0,0,1-3.691,0V18.7H4.508a2.461,2.461,0,0,0-2.457,2.324L.008,57.805A4.922,4.922,0,0,0,4.922,63H24.9a8.645,8.645,0,0,1-1.527-5.528l1.463-20.745a6.152,6.152,0,0,1,6.137-5.72h8.441l-.554-9.98A2.461,2.461,0,0,0,36.405,18.7H31.588V10.828a10.828,10.828,0,1,0-21.656,0Zm3.691-7.875a7.137,7.137,0,1,1,14.273,0V18.7h3.691v3.691a1.846,1.846,0,0,1-3.691,0V18.7H13.624Z" transform="translate(0)" fill="#4562db"/>
    <path id="Path_7809" data-name="Path 7809" d="M255.742,305.033l-1.463-20.745A2.461,2.461,0,0,0,251.824,282H223.73a2.461,2.461,0,0,0-2.455,2.288l-1.463,20.745a4.922,4.922,0,0,0,4.91,5.268h26.11a4.922,4.922,0,0,0,4.91-5.268Zm-11.089-13.418a7.119,7.119,0,1,1-14.238,0v-2.232a1.846,1.846,0,0,1,3.691,0v2.232a3.428,3.428,0,1,0,6.856,0v-2.232a1.846,1.846,0,0,1,3.691,0Z" transform="translate(-192.754 -247.301)" fill="#ff5c53"/>
  </g>
</svg>
