<svg id="coin_2_" data-name="coin (2)" xmlns="http://www.w3.org/2000/svg" width="102.987" height="92.939" viewBox="0 0 102.987 92.939">
  <g id="Group_13184" data-name="Group 13184" transform="translate(30.143 0)">
    <path id="Path_9857" data-name="Path 9857" d="M149.854,410.075V401.7a2.093,2.093,0,0,1,2.093-2.093h62.378a2.093,2.093,0,0,1,2.093,2.093v8.373a2.093,2.093,0,0,1-2.093,2.093H151.947A2.093,2.093,0,0,1,149.854,410.075Z" transform="translate(-149.854 -324.253)" fill="#ffd432"/>
    <path id="Path_9858" data-name="Path 9858" d="M169.626,347.637v-8.373a2.093,2.093,0,0,1,2.093-2.093H234.1a2.093,2.093,0,0,1,2.093,2.093v8.373a2.093,2.093,0,0,1-2.093,2.093H171.719A2.093,2.093,0,0,1,169.626,347.637Z" transform="translate(-165.649 -274.374)" fill="#ffd432"/>
    <path id="Path_9859" data-name="Path 9859" d="M181.073,285.2v-8.373a2.093,2.093,0,0,1,2.093-2.093h62.378a2.093,2.093,0,0,1,2.093,2.093V285.2a2.093,2.093,0,0,1-2.093,2.093H183.166A2.093,2.093,0,0,1,181.073,285.2Z" transform="translate(-174.793 -224.494)" fill="#ffd432"/>
    <path id="Path_9860" data-name="Path 9860" d="M158.179,222.758v-8.373a2.093,2.093,0,0,1,2.093-2.093h62.378a2.093,2.093,0,0,1,2.093,2.093v8.373a2.093,2.093,0,0,1-2.093,2.093H160.272A2.093,2.093,0,0,1,158.179,222.758Z" transform="translate(-156.504 -174.614)" fill="#ffd432"/>
    <path id="Path_9861" data-name="Path 9861" d="M181.073,160.319v-8.373a2.093,2.093,0,0,1,2.093-2.093h62.378a2.093,2.093,0,0,1,2.093,2.093v8.373a2.093,2.093,0,0,1-2.093,2.093H183.166A2.093,2.093,0,0,1,181.073,160.319Z" transform="translate(-174.793 -124.734)" fill="#ffd432"/>
    <path id="Path_9862" data-name="Path 9862" d="M158.179,97.88V89.507a2.093,2.093,0,0,1,2.093-2.093h62.378a2.093,2.093,0,0,1,2.093,2.093V97.88a2.093,2.093,0,0,1-2.093,2.093H160.272A2.093,2.093,0,0,1,158.179,97.88Z" transform="translate(-156.504 -74.855)" fill="#ffd432"/>
    <path id="Path_9863" data-name="Path 9863" d="M218.883,87.414v5.861a2.093,2.093,0,0,1-2.093,2.093h-58.61v4.605h64.472a2.093,2.093,0,0,0,2.093-2.093V89.507a2.093,2.093,0,0,0-2.093-2.093h-3.768Z" transform="translate(-156.504 -74.855)" fill="#f4ac03"/>
    <path id="Path_9864" data-name="Path 9864" d="M241.777,149.853v5.861a2.093,2.093,0,0,1-2.093,2.093H181.073v4.605h64.472a2.093,2.093,0,0,0,2.093-2.093v-8.373a2.093,2.093,0,0,0-2.093-2.093h-3.768Z" transform="translate(-174.793 -124.734)" fill="#f4ac03"/>
    <path id="Path_9865" data-name="Path 9865" d="M218.883,212.292v5.861a2.093,2.093,0,0,1-2.093,2.093h-58.61v4.605h64.472a2.093,2.093,0,0,0,2.093-2.093v-8.373a2.093,2.093,0,0,0-2.093-2.093h-3.768Z" transform="translate(-156.504 -174.614)" fill="#f4ac03"/>
    <path id="Path_9866" data-name="Path 9866" d="M241.777,274.732v5.861a2.093,2.093,0,0,1-2.093,2.093H181.073v4.605h64.472a2.093,2.093,0,0,0,2.093-2.093v-8.373a2.093,2.093,0,0,0-2.093-2.093Z" transform="translate(-174.793 -224.494)" fill="#f4ac03"/>
    <path id="Path_9867" data-name="Path 9867" d="M230.33,337.171v5.861a2.093,2.093,0,0,1-2.093,2.093h-58.61v4.605H234.1a2.093,2.093,0,0,0,2.093-2.093v-8.373a2.093,2.093,0,0,0-2.093-2.093H230.33Z" transform="translate(-165.649 -274.374)" fill="#f4ac03"/>
    <path id="Path_9868" data-name="Path 9868" d="M210.558,399.61v5.861a2.093,2.093,0,0,1-2.093,2.093h-58.61v2.512a2.093,2.093,0,0,0,2.093,2.093h62.378a2.093,2.093,0,0,0,2.093-2.093V401.7a2.093,2.093,0,0,0-2.093-2.093Z" transform="translate(-149.854 -324.253)" fill="#f4ac03"/>
    <path id="Path_9869" data-name="Path 9869" d="M181.073,35.441V27.068a2.093,2.093,0,0,1,2.093-2.093h62.378a2.093,2.093,0,0,1,2.093,2.093v8.373a2.093,2.093,0,0,1-2.093,2.093H183.166A2.093,2.093,0,0,1,181.073,35.441Z" transform="translate(-174.793 -24.975)" fill="#ffd432"/>
    <path id="Path_9870" data-name="Path 9870" d="M241.777,24.975v5.861a2.093,2.093,0,0,1-2.093,2.093H181.073v2.512a2.093,2.093,0,0,0,2.093,2.093h62.378a2.093,2.093,0,0,0,2.093-2.093V27.068a2.093,2.093,0,0,0-2.093-2.093h-3.768Z" transform="translate(-174.793 -24.975)" fill="#f4ac03"/>
  </g>
  <g id="Group_13185" data-name="Group 13185" transform="translate(0 20.095)">
    <circle id="Ellipse_528" data-name="Ellipse 528" cx="36.422" cy="36.422" r="36.422" transform="translate(0 0)" fill="#ffd432"/>
    <path id="Path_9871" data-name="Path 9871" d="M6.213,170.783a36.369,36.369,0,0,0,8.936,15.777l34.719-60.687a36.623,36.623,0,0,0-18.133.3Z" transform="translate(-4.963 -124.878)" fill="#ffde73"/>
    <path id="Path_9872" data-name="Path 9872" d="M114.973,226.1a36.33,36.33,0,0,0,13.3,2.5c1.12,0,2.227-.053,3.321-.152l29.633-51.8a36.562,36.562,0,0,0-10.457-13.118Z" transform="translate(-91.847 -155.762)" fill="#ffde73"/>
    <circle id="Ellipse_529" data-name="Ellipse 529" cx="30.143" cy="30.143" r="30.143" transform="translate(6.28 6.28)" fill="#f4ac03"/>
    <circle id="Ellipse_530" data-name="Ellipse 530" cx="27.003" cy="27.003" r="27.003" transform="translate(9.419 9.419)" fill="#ffd432"/>
    <path id="Path_9873" data-name="Path 9873" d="M122.067,225.332a6.545,6.545,0,0,0-3.07-4,9.1,9.1,0,0,0-4.565-1.015,26.751,26.751,0,0,0-6.475.965q.26-.264.522-.539c3.289-3.465,4.956-6.508,4.956-9.045a6.583,6.583,0,0,0-10.159-5.532,13.31,13.31,0,0,1,1.493,5.532,1.262,1.262,0,0,1-2.525,0,11.055,11.055,0,0,0-2.579-6.418,6.584,6.584,0,0,0-8.073,6.418c0,2.6,1.744,5.721,5.184,9.284.1.1.2.2.294.3a26.755,26.755,0,0,0-6.475-.965,9.1,9.1,0,0,0-4.565,1.015,6.582,6.582,0,0,0,.2,11.516,12.29,12.29,0,0,1,4.135-4.011,1.263,1.263,0,0,1,1.263,2.187,9.753,9.753,0,0,0-4.284,5.387,6.584,6.584,0,0,0,9.61,3.837c1.854-1.07,3.424-3.346,4.683-6.777.348,4.274,1.011,8.98,2.275,11.507a1.263,1.263,0,1,0,2.258-1.129c-.872-1.745-1.426-4.829-1.778-8.033a10.069,10.069,0,0,0,3.687,4.432,6.589,6.589,0,0,0,3.289.884h0a6.611,6.611,0,0,0,5.711-3.3,6.545,6.545,0,0,0,.534-1.188,9.926,9.926,0,0,0-4.208-5.626,1.263,1.263,0,0,1,1.263-2.187,13.072,13.072,0,0,1,4.026,4.069,6.578,6.578,0,0,0,3.376-7.574Z" transform="translate(-66.091 -188.971)" fill="#f4ac03"/>
  </g>
</svg>
