<svg xmlns="http://www.w3.org/2000/svg" width="111.842" height="97.858" viewBox="0 0 111.842 97.858">
  <g id="credit-card" transform="translate(0)">
    <g id="Group_13200" data-name="Group 13200" transform="translate(0 20.967)">
      <g id="Group_13199" data-name="Group 13199">
        <path id="Path_9900" data-name="Path 9900" d="M48.931,134.982v-6.99H6.99A7,7,0,0,0,0,134.982v13.98H50.406A62.586,62.586,0,0,1,48.931,134.982Z" transform="translate(0 -127.992)" fill="#4562db"/>
      </g>
    </g>
    <g id="Group_13202" data-name="Group 13202" transform="translate(0 55.918)">
      <g id="Group_13201" data-name="Group 13201">
        <path id="Path_9901" data-name="Path 9901" d="M111.556,287.992c-4.767,7.347-12.037,13.6-22.452,19.579a10.5,10.5,0,0,1-10.422.014c-10.415-6-17.685-12.254-22.459-19.593H0v34.951a7,7,0,0,0,6.99,6.99h97.862a6.993,6.993,0,0,0,6.99-6.99V287.992Zm-80.1,20.97H17.475a3.5,3.5,0,0,1,0-6.99h13.98a3.5,3.5,0,0,1,0,6.99Z" transform="translate(0 -287.992)" fill="#4562db"/>
      </g>
    </g>
    <g id="Group_13204" data-name="Group 13204" transform="translate(55.921 0)">
      <g id="Group_13203" data-name="Group 13203">
        <path id="Path_9902" data-name="Path 9902" d="M309.8,42.776,285.338,32.291a3.508,3.508,0,0,0-2.761,0L258.111,42.776A3.487,3.487,0,0,0,256,45.985v13.98c0,19.23,7.109,30.47,26.22,41.479a3.514,3.514,0,0,0,3.481,0c19.111-10.982,26.22-22.222,26.22-41.479V45.985A3.482,3.482,0,0,0,309.8,42.776ZM297.179,58.658,283.2,76.133a3.533,3.533,0,0,1-2.733,1.307h-.147a3.508,3.508,0,0,1-2.761-1.552L270.567,65.4a3.494,3.494,0,1,1,5.816-3.873l4.341,6.508L291.713,54.3a3.5,3.5,0,0,1,5.466,4.362Z" transform="translate(-256 -32.008)" fill="#ff5c53"/>
      </g>
    </g>
  </g>
</svg>
