<svg xmlns="http://www.w3.org/2000/svg" width="105.308" height="105.308" viewBox="0 0 105.308 105.308">
  <g id="certificate" transform="translate(0)">
    <path id="Path_9881" data-name="Path 9881" d="M179.715,121h-2.356l-3.085,6.17H182.8Zm0,0" transform="translate(-138.429 -96.113)" fill="#ff5c53"/>
    <path id="Path_9882" data-name="Path 9882" d="M181.469,181h-9.55l4.858,12.514Zm0,0" transform="translate(-136.558 -143.772)" fill="#ff5c53"/>
    <path id="Path_9883" data-name="Path 9883" d="M244.709,127.17,240.079,121h-5.806l3.086,6.17Zm0,0" transform="translate(-186.088 -96.113)" fill="#ff5c53"/>
    <path id="Path_9884" data-name="Path 9884" d="M112.113,181l9.087,8.779L117.792,181Zm0,0" transform="translate(-89.054 -143.772)" fill="#ff5c53"/>
    <path id="Path_9885" data-name="Path 9885" d="M115.428,121h-5.806l-4.629,6.17h7.35Zm0,0" transform="translate(-83.398 -96.113)" fill="#ff5c53"/>
    <path id="Path_9886" data-name="Path 9886" d="M234.781,189.566,243.647,181h-5.654Zm0,0" transform="translate(-186.491 -143.773)" fill="#ff5c53"/>
    <path id="Path_9887" data-name="Path 9887" d="M422,392v15.426a9.256,9.256,0,0,0,18.511,0V392Zm0,0" transform="translate(-335.203 -311.374)" fill="#ff5c53"/>
    <path id="Path_9888" data-name="Path 9888" d="M12.341,105.308H83.79a15.275,15.275,0,0,1-3.164-9.256V0H0V92.967a12.353,12.353,0,0,0,12.341,12.341ZM67.874,92.967H12.341V86.8H67.874Zm0-12.341H12.341v-6.17H67.874ZM23.139,18.717H57.076L68.89,34.471,40.107,62.28,11.325,34.471Zm0,0" transform="translate(0)" fill="#4562db"/>
  </g>
</svg>
