<svg id="tamper" xmlns="http://www.w3.org/2000/svg" width="71.662" height="118.032" viewBox="0 0 71.662 118.032">
  <path id="Path_9877" data-name="Path 9877" d="M199.616,99.509V80.478a2.108,2.108,0,0,1,.521-1.388l4.324-4.942a40.036,40.036,0,0,0,9.908-26.371V46.754A14.771,14.771,0,0,0,199.616,32H182.754A14.771,14.771,0,0,0,168,46.754v1.023a40.039,40.039,0,0,0,9.911,26.374l4.321,4.939a2.108,2.108,0,0,1,.522,1.388V99.509a27.193,27.193,0,0,1-5.75,16.8h28.361A27.193,27.193,0,0,1,199.616,99.509Zm-2.108-61.186a2.108,2.108,0,0,1,2.108-2.108,10.55,10.55,0,0,1,10.539,10.539v.47a36.016,36.016,0,0,1-3.783,16.023l-.655,1.31a2.108,2.108,0,1,1-3.77-1.885l.655-1.31a31.777,31.777,0,0,0,3.338-14.138v-.47a6.33,6.33,0,0,0-6.323-6.323,2.108,2.108,0,0,1-2.108-2.108Z" transform="translate(-155.354 -32)" fill="#4562db"/>
  <path id="Path_9878" data-name="Path 9878" d="M188.273,400H143.462l-9.836,8.431h64.483Z" transform="translate(-130.036 -303.045)" fill="#ff5c53"/>
  <path id="Path_9879" data-name="Path 9879" d="M120,448h71.662v8.431H120Z" transform="translate(-120 -338.399)" fill="#ff5c53"/>
  <path id="Path_9880" data-name="Path 9880" d="M192,368h33.724v4.215H192Z" transform="translate(-173.031 -279.476)" fill="#ff5c53"/>
</svg>
