<svg xmlns="http://www.w3.org/2000/svg" width="113.818" height="113.817" viewBox="0 0 113.818 113.817">
  <g id="quality" transform="translate(0)">
    <path id="Path_9898" data-name="Path 9898" d="M109.041,33.531l-11.62-6.952L94.8,15.742a9.984,9.984,0,0,0-10.5-7.626l-13.3,1.029L63.4,2.4a9.968,9.968,0,0,0-12.973,0L42.805,9.144,29.51,8.115a9.93,9.93,0,0,0-10.375,7.232L15.289,27.3,4.778,33.528A9.961,9.961,0,0,0,.766,45.869L5.3,56.863.77,67.853A9.952,9.952,0,0,0,4.778,80.191l11.608,6.9,2.628,10.886a9.983,9.983,0,0,0,10.5,7.626l13.152-1.016,7.76,6.823a9.956,9.956,0,0,0,12.974,0l7.76-6.823,13.152,1.016a9.909,9.909,0,0,0,10.5-7.626l2.618-10.837,11.62-6.952a9.963,9.963,0,0,0,4.009-12.338l-4.536-10.99,4.539-11a9.959,9.959,0,0,0-4.012-12.335ZM56.909,93.588A36.679,36.679,0,1,1,93.588,56.909,36.721,36.721,0,0,1,56.909,93.588Z" transform="translate(0 0)" fill="#4562db"/>
    <path id="Path_9899" data-name="Path 9899" d="M151.01,121a30.01,30.01,0,1,0,30.01,30.01A30.043,30.043,0,0,0,151.01,121Zm19.03,22.364-20.007,20.007a3.333,3.333,0,0,1-4.715,0L131.98,150.033a3.334,3.334,0,1,1,4.715-4.715l10.98,10.98,17.649-17.649a3.334,3.334,0,1,1,4.715,4.715Z" transform="translate(-94.102 -94.102)" fill="#ff5c53"/>
  </g>
</svg>
