<svg xmlns="http://www.w3.org/2000/svg" width="114.614" height="115.063" viewBox="0 0 114.614 115.063">
  <g id="team" transform="translate(0)">
    <g id="Group_13189" data-name="Group 13189" transform="translate(0 0)">
      <g id="Group_13186" data-name="Group 13186" transform="translate(33.708)">
        <path id="Path_9889" data-name="Path 9889" d="M163.2,45.392a5.178,5.178,0,0,1-5.089-6.048l1.716-10-7.267-7.084a5.168,5.168,0,0,1,2.864-8.816l10.043-1.459,4.492-9.1a5.169,5.169,0,0,1,9.27,0l4.491,9.1,10.044,1.459a5.168,5.168,0,0,1,2.864,8.816l-7.267,7.084,1.716,10a5.168,5.168,0,0,1-7.5,5.449L174.59,40.07l-8.983,4.723A5.172,5.172,0,0,1,163.2,45.392Z" transform="translate(-150.991 0)" fill="#ff5c53"/>
      </g>
      <g id="Group_13187" data-name="Group 13187" transform="translate(0 17.979)">
        <path id="Path_9890" data-name="Path 9890" d="M28.966,116.8a4.771,4.771,0,0,1-2.224-.553l-6.638-3.49-6.638,3.49a4.769,4.769,0,0,1-6.92-5.027l1.268-7.392L2.444,98.6a4.769,4.769,0,0,1,2.643-8.134l7.422-1.078,3.319-6.725a4.769,4.769,0,0,1,8.553,0L27.7,89.384l7.422,1.078A4.769,4.769,0,0,1,37.765,98.6l-5.37,5.235,1.268,7.392a4.778,4.778,0,0,1-4.7,5.58Z" transform="translate(-1 -80)" fill="#ff5c53"/>
      </g>
      <g id="Group_13188" data-name="Group 13188" transform="translate(76.405 17.979)">
        <path id="Path_9891" data-name="Path 9891" d="M368.949,116.8a4.771,4.771,0,0,1-2.224-.553l-6.638-3.49-6.638,3.49a4.769,4.769,0,0,1-6.92-5.027l1.268-7.392-5.37-5.235a4.769,4.769,0,0,1,2.643-8.134l7.422-1.078,3.319-6.725a4.769,4.769,0,0,1,8.553,0l3.319,6.725,7.422,1.078a4.769,4.769,0,0,1,2.643,8.134l-5.37,5.235,1.268,7.392a4.778,4.778,0,0,1-4.7,5.58Z" transform="translate(-340.983 -80)" fill="#ff5c53"/>
      </g>
    </g>
    <g id="Group_13198" data-name="Group 13198" transform="translate(0 67.869)">
      <g id="Group_13197" data-name="Group 13197" transform="translate(0)">
        <g id="Group_13196" data-name="Group 13196">
          <g id="Group_13191" data-name="Group 13191">
            <g id="Group_13190" data-name="Group 13190" transform="translate(0 24.529)">
              <path id="Path_9892" data-name="Path 9892" d="M29.948,411.147a17.946,17.946,0,0,1-24.186,0A11.22,11.22,0,0,0,1,420.328v10.113a3.371,3.371,0,0,0,3.371,3.371H31.339a3.371,3.371,0,0,0,3.371-3.371V420.328A11.22,11.22,0,0,0,29.948,411.147Z" transform="translate(-1 -411.147)" fill="#4562db"/>
            </g>
            <path id="Path_9893" data-name="Path 9893" d="M37.237,324.473a11.237,11.237,0,1,1,11.237-11.237A11.249,11.249,0,0,1,37.237,324.473Z" transform="translate(-20.382 -302)" fill="#4562db"/>
          </g>
          <g id="Group_13193" data-name="Group 13193" transform="translate(80.904)">
            <g id="Group_13192" data-name="Group 13192" transform="translate(0 24.529)">
              <path id="Path_9894" data-name="Path 9894" d="M389.948,411.147a17.946,17.946,0,0,1-24.186,0A11.22,11.22,0,0,0,361,420.328v10.113a3.371,3.371,0,0,0,3.371,3.371h26.968a3.371,3.371,0,0,0,3.371-3.371V420.328A11.22,11.22,0,0,0,389.948,411.147Z" transform="translate(-361 -411.147)" fill="#4562db"/>
            </g>
            <path id="Path_9895" data-name="Path 9895" d="M397.237,324.473a11.237,11.237,0,1,1,11.237-11.237A11.249,11.249,0,0,1,397.237,324.473Z" transform="translate(-380.382 -302)" fill="#4562db"/>
          </g>
          <g id="Group_13195" data-name="Group 13195" transform="translate(40.452)">
            <g id="Group_13194" data-name="Group 13194" transform="translate(0 24.529)">
              <path id="Path_9896" data-name="Path 9896" d="M209.948,411.147a17.946,17.946,0,0,1-24.186,0A11.22,11.22,0,0,0,181,420.328v10.113a3.371,3.371,0,0,0,3.371,3.371h26.968a3.371,3.371,0,0,0,3.371-3.371V420.328A11.22,11.22,0,0,0,209.948,411.147Z" transform="translate(-181 -411.147)" fill="#4562db"/>
            </g>
            <path id="Path_9897" data-name="Path 9897" d="M217.237,324.473a11.237,11.237,0,1,1,11.237-11.237A11.249,11.249,0,0,1,217.237,324.473Z" transform="translate(-200.382 -302)" fill="#4562db"/>
          </g>
        </g>
      </g>
    </g>
  </g>
</svg>
