<svg id="logistics-delivery" xmlns="http://www.w3.org/2000/svg" width="106.601" height="95.179" viewBox="0 0 106.601 95.179">
  <path id="XMLID_369_" d="M107.684,35.979,87.125,11.986A11.43,11.43,0,0,0,78.456,8H70.529a7.612,7.612,0,0,0-7.614,7.614V49.879a3.809,3.809,0,0,1-3.807,3.807H2V65.108a7.612,7.612,0,0,0,7.614,7.614h3.807a15.229,15.229,0,1,0,30.457,0H62.915a15.229,15.229,0,0,0,30.457,0h7.614a7.612,7.612,0,0,0,7.614-7.614V38.461a3.831,3.831,0,0,0-.918-2.482ZM28.65,80.336a7.622,7.622,0,0,1-7.614-7.614,7.763,7.763,0,0,1,7.614-7.614,7.766,7.766,0,0,1,7.614,7.614A7.622,7.622,0,0,1,28.65,80.336Zm49.493,0a7.622,7.622,0,0,1-7.614-7.614,7.614,7.614,0,0,1,15.229,0A7.622,7.622,0,0,1,78.144,80.336Zm17.4-41.879h-21.2V19.422h6.7a1.9,1.9,0,0,1,1.485.716L96.155,37.178A.788.788,0,0,1,95.539,38.457Z" transform="translate(-2 7.229)" fill="#4562db"/>
  <path id="XMLID_374_" d="M55.3,7.807V53.493A3.809,3.809,0,0,1,51.493,57.3H5.807A3.809,3.809,0,0,1,2,53.493V7.807A3.809,3.809,0,0,1,5.807,4H17.229V28.743A1.9,1.9,0,0,0,20.351,30.2l8.3-7.169,8.3,7.169a1.9,1.9,0,0,0,3.122-1.462V4H51.493A3.809,3.809,0,0,1,55.3,7.807Z" transform="translate(-2 -4)" fill="#ff5c53"/>
</svg>
