<svg id="lifetime" xmlns="http://www.w3.org/2000/svg" width="115.678" height="115.679" viewBox="0 0 115.678 115.679">
  <path id="Path_9874" data-name="Path 9874" d="M41.466,26.532,52.308,43.072l5.162-6.86,43.3-.1A26.443,26.443,0,0,0,57.47,7.733L51.3,13.9,45.133,7.733a26.446,26.446,0,0,0-42.97,29.2h33.46Z" transform="translate(-0.001 0)" fill="#4562db"/>
  <path id="Path_9875" data-name="Path 9875" d="M107.412,190.164s10.812-10.9,11.426-11.665l-36,.085-8.927,11.862L63.9,175.171l-2.324,4.137H28.4c.416.481,44.729,45.14,44.729,45.14l3.418-3.418a34.066,34.066,0,0,1,30.865-30.867Z" transform="translate(-21.984 -135.594)" fill="#4562db"/>
  <path id="Path_9876" data-name="Path 9876" d="M318.112,294.833h7.241a27.5,27.5,0,0,0-23.85-23.9v7.291h-6.778v-7.291a27.5,27.5,0,0,0-23.85,23.9h7.241v6.778h-7.228A27.5,27.5,0,0,0,294.724,325.4v-7.178H301.5V325.4a27.5,27.5,0,0,0,23.837-23.787h-7.228ZM292.893,308.1,288.7,302.77l6.111-5.089-.054-13.01,6.778-.034.071,16.321Z" transform="translate(-209.674 -209.72)" fill="#ff5c53"/>
</svg>
